<?xml version="1.0" encoding="UTF-8" standalone="no"?>
<!-- Created with Inkscape (http://www.inkscape.org/) -->

<svg
   width="297mm"
   height="210mm"
   viewBox="0 0 297 210"
   version="1.1"
   id="svg1"
   inkscape:version="1.3.2 (091e20ef0f, 2023-11-25, custom)"
   sodipodi:docname="Divider.svg"
   inkscape:export-filename="../resources/Cover.pdf"
   inkscape:export-xdpi="604.7619"
   inkscape:export-ydpi="604.7619"
   xmlns:inkscape="http://www.inkscape.org/namespaces/inkscape"
   xmlns:sodipodi="http://sodipodi.sourceforge.net/DTD/sodipodi-0.dtd"
   xmlns="http://www.w3.org/2000/svg"
   xmlns:svg="http://www.w3.org/2000/svg">
  <sodipodi:namedview
     id="namedview1"
     pagecolor="#505050"
     bordercolor="#ffffff"
     borderopacity="1"
     inkscape:showpageshadow="0"
     inkscape:pageopacity="0"
     inkscape:pagecheckerboard="1"
     inkscape:deskcolor="#505050"
     inkscape:document-units="mm"
     inkscape:zoom="1.5219065"
     inkscape:cx="504.30168"
     inkscape:cy="393.58529"
     inkscape:window-width="3440"
     inkscape:window-height="1412"
     inkscape:window-x="0"
     inkscape:window-y="0"
     inkscape:window-maximized="1"
     inkscape:current-layer="layer1" />
  <defs
     id="defs1">
    <filter
       style="color-interpolation-filters:sRGB"
       inkscape:label="Blur"
       id="filter40"
       x="-0.083062979"
       y="-0.095912669"
       width="1.166126"
       height="1.1918253">
      <feGaussianBlur
         stdDeviation="5 5"
         result="blur"
         id="feGaussianBlur40" />
    </filter>
    <filter
       style="color-interpolation-filters:sRGB"
       inkscape:label="Blur"
       id="filter56"
       x="-0.33562765"
       y="-0.22968222"
       width="1.6712553"
       height="1.4593644">
      <feGaussianBlur
         stdDeviation="5 5"
         result="blur"
         id="feGaussianBlur56" />
    </filter>
    <filter
       style="color-interpolation-filters:sRGB"
       inkscape:label="Blur"
       id="filter57"
       x="-0.33557266"
       y="-0.22969083"
       width="1.6711453"
       height="1.4593817">
      <feGaussianBlur
         stdDeviation="5 5"
         result="blur"
         id="feGaussianBlur57" />
    </filter>
    <filter
       style="color-interpolation-filters:sRGB"
       inkscape:label="Blur"
       id="filter58"
       x="-0.19891222"
       y="-1.2381933"
       width="1.3978244"
       height="3.4763866">
      <feGaussianBlur
         stdDeviation="5 5"
         result="blur"
         id="feGaussianBlur58" />
    </filter>
    <filter
       style="color-interpolation-filters:sRGB"
       inkscape:label="Blur"
       id="filter59"
       x="-0.33560932"
       y="-0.22969083"
       width="1.6712186"
       height="1.4593817">
      <feGaussianBlur
         stdDeviation="5 5"
         result="blur"
         id="feGaussianBlur59" />
    </filter>
    <filter
       style="color-interpolation-filters:sRGB"
       inkscape:label="Blur"
       id="filter60"
       x="-0.33560932"
       y="-0.22969084"
       width="1.6712186"
       height="1.4593817">
      <feGaussianBlur
         stdDeviation="5 5"
         result="blur"
         id="feGaussianBlur60" />
    </filter>
    <filter
       style="color-interpolation-filters:sRGB"
       inkscape:label="Blur"
       id="filter61"
       x="-0.19891222"
       y="-1.2389598"
       width="1.3978244"
       height="3.4779197">
      <feGaussianBlur
         stdDeviation="5 5"
         result="blur"
         id="feGaussianBlur61" />
    </filter>
  </defs>
  <g
     inkscape:groupmode="layer"
     id="layer9"
     inkscape:label="Background"
     style="display:inline"
     transform="translate(-5e-5,-43.97153)">
    <rect
       style="fill:#202020;fill-opacity:1;stroke-width:0;paint-order:fill markers stroke"
       id="rect67"
       width="297.00009"
       height="210"
       x="0"
       y="43.971531"
       inkscape:label="BG" />
  </g>
  <path
     id="path40"
     style="display:none;fill:#dcdcdc;fill-opacity:1;stroke-width:0;paint-order:fill markers stroke;filter:url(#filter40)"
     d="M 70.086992,29.306984 33.969817,91.86389 70.086992,154.4208 H 142.32134 L 178.43851,91.86389 142.32134,29.306984 Z M 75.123894,38.031 h 62.161056 l 31.08027,53.83289 -31.08027,53.83289 H 75.123894 L 44.043621,91.86389 Z"
     inkscape:label="Dark Hexagon Blur" />
  <path
     id="path21"
     style="display:none;opacity:1;fill:#202020;fill-opacity:1;stroke-width:0;paint-order:fill markers stroke"
     d="M 70.086992,29.306984 33.969817,91.86389 70.086992,154.4208 H 142.32134 L 178.43851,91.86389 142.32134,29.306984 Z M 75.123894,38.031 h 62.161056 l 31.08027,53.83289 -31.08027,53.83289 H 75.123894 L 44.043621,91.86389 Z"
     inkscape:label="Dark Hexagon" />
  <g
     inkscape:groupmode="layer"
     id="g77"
     inkscape:label="Colors Blur"
     style="display:inline;opacity:1;mix-blend-mode:normal"
     transform="translate(-5e-5,-43.97153)">
    <path
       id="path72"
       style="fill:#9f0924;fill-opacity:1;stroke-width:0;paint-order:fill markers stroke;filter:url(#filter56)"
       d="m 87.257812,147.97266 c 3.729167,0 7.458334,0 11.1875,0 8.188808,-14.18685 16.377608,-28.3737 24.566408,-42.56055 -1.86458,-3.22852 -3.72917,-6.457032 -5.59375,-9.685548 -10.05339,17.415368 -20.106772,34.830728 -30.160158,52.246098 z"
       inkscape:label="Dark Red"
       transform="matrix(0.88380368,0,0,0.88380368,17.255156,0.0679803)" />
    <path
       id="path73"
       style="fill:#f40e38;fill-opacity:1;stroke-width:0;paint-order:fill markers stroke;filter:url(#filter57)"
       d="m 87.251953,149.0332 c 10.05599,17.41407 20.111977,34.82813 30.167967,52.24219 1.86393,-3.22917 3.72787,-6.45833 5.5918,-9.6875 -8.19076,-14.18555 -16.38151,-28.37109 -24.572267,-42.55664 -3.729167,6.5e-4 -7.458333,0.001 -11.1875,0.002 z"
       inkscape:label="Red"
       transform="matrix(0.88380368,0,0,0.88380368,17.255156,0.0679803)" />
    <path
       id="path74"
       style="fill:#fb970a;fill-opacity:1;stroke-width:0;paint-order:fill markers stroke;filter:url(#filter58)"
       d="m 123.92969,192.12109 c -1.86459,3.22917 -3.72917,6.45834 -5.59375,9.6875 20.10937,-0.002 40.21875,-0.004 60.32812,-0.006 -1.86393,-3.22851 -3.72786,-6.45703 -5.59179,-9.68554 -16.38086,0.001 -32.76172,0.003 -49.14258,0.004 z"
       inkscape:label="Orange"
       transform="matrix(0.88380368,0,0,0.88380368,17.255156,0.0679803)" />
    <path
       id="path75"
       style="fill:#ffcc07;fill-opacity:1;stroke-width:0;paint-order:fill markers stroke;filter:url(#filter59)"
       d="m 173.98828,191.58789 c 1.86393,3.22852 3.72787,6.45703 5.5918,9.68555 10.05469,-17.41472 20.10937,-34.82943 30.16406,-52.24414 -3.72917,0 -7.45833,0 -11.1875,0 -8.18945,14.18619 -16.37891,28.37239 -24.56836,42.55859 z"
       inkscape:label="Yellow"
       transform="matrix(0.88380368,0,0,0.88380368,17.255156,0.0679803)" />
    <path
       id="path76"
       style="fill:#07f432;fill-opacity:1;stroke-width:0;paint-order:fill markers stroke;filter:url(#filter60)"
       d="m 173.98828,105.41211 c 8.18945,14.1862 16.37891,28.3724 24.56836,42.55859 3.72917,0 7.45833,0 11.1875,0 -10.05469,-17.41471 -20.10937,-34.82942 -30.16406,-52.244138 -1.86393,3.228516 -3.72787,6.457028 -5.5918,9.685548 z"
       inkscape:label="Green"
       transform="matrix(0.88380368,0,0,0.88380368,17.255156,0.0679803)" />
    <path
       id="path77"
       style="fill:#0966f2;fill-opacity:1;stroke-width:0;paint-order:fill markers stroke;filter:url(#filter61)"
       d="m 123.92773,104.88281 c 16.38151,0 32.76303,0 49.14454,0 1.86393,-3.22851 3.72786,-6.457029 5.59179,-9.685544 -20.10937,0 -40.21875,0 -60.32812,0 1.86393,3.228515 3.72786,6.457034 5.59179,9.685544 z"
       inkscape:label="Blue"
       transform="matrix(0.88380368,0,0,0.88380368,17.255156,0.0679803)" />
  </g>
  <g
     inkscape:groupmode="layer"
     id="g46"
     inkscape:label="Colors Blur"
     style="display:inline;opacity:1;mix-blend-mode:normal"
     transform="translate(-5e-5,-43.97153)">
    <path
       id="path41"
       style="fill:#9f0924;fill-opacity:1;stroke-width:0;paint-order:fill markers stroke;filter:url(#filter56)"
       d="m 87.257812,147.97266 c 3.729167,0 7.458334,0 11.1875,0 8.188808,-14.18685 16.377608,-28.3737 24.566408,-42.56055 -1.86458,-3.22852 -3.72917,-6.457032 -5.59375,-9.685548 -10.05339,17.415368 -20.106772,34.830728 -30.160158,52.246098 z"
       inkscape:label="Dark Red"
       transform="matrix(0.88380368,0,0,0.88380368,17.255156,0.0679803)" />
    <path
       id="path42"
       style="fill:#f40e38;fill-opacity:1;stroke-width:0;paint-order:fill markers stroke;filter:url(#filter57)"
       d="m 87.251953,149.0332 c 10.05599,17.41407 20.111977,34.82813 30.167967,52.24219 1.86393,-3.22917 3.72787,-6.45833 5.5918,-9.6875 -8.19076,-14.18555 -16.38151,-28.37109 -24.572267,-42.55664 -3.729167,6.5e-4 -7.458333,0.001 -11.1875,0.002 z"
       inkscape:label="Red"
       transform="matrix(0.88380368,0,0,0.88380368,17.255156,0.0679803)" />
    <path
       id="path43"
       style="fill:#fb970a;fill-opacity:1;stroke-width:0;paint-order:fill markers stroke;filter:url(#filter58)"
       d="m 123.92969,192.12109 c -1.86459,3.22917 -3.72917,6.45834 -5.59375,9.6875 20.10937,-0.002 40.21875,-0.004 60.32812,-0.006 -1.86393,-3.22851 -3.72786,-6.45703 -5.59179,-9.68554 -16.38086,0.001 -32.76172,0.003 -49.14258,0.004 z"
       inkscape:label="Orange"
       transform="matrix(0.88380368,0,0,0.88380368,17.255156,0.0679803)" />
    <path
       id="path44"
       style="fill:#ffcc07;fill-opacity:1;stroke-width:0;paint-order:fill markers stroke;filter:url(#filter59)"
       d="m 173.98828,191.58789 c 1.86393,3.22852 3.72787,6.45703 5.5918,9.68555 10.05469,-17.41472 20.10937,-34.82943 30.16406,-52.24414 -3.72917,0 -7.45833,0 -11.1875,0 -8.18945,14.18619 -16.37891,28.37239 -24.56836,42.55859 z"
       inkscape:label="Yellow"
       transform="matrix(0.88380368,0,0,0.88380368,17.255156,0.0679803)" />
    <path
       id="path45"
       style="fill:#07f432;fill-opacity:1;stroke-width:0;paint-order:fill markers stroke;filter:url(#filter60)"
       d="m 173.98828,105.41211 c 8.18945,14.1862 16.37891,28.3724 24.56836,42.55859 3.72917,0 7.45833,0 11.1875,0 -10.05469,-17.41471 -20.10937,-34.82942 -30.16406,-52.244138 -1.86393,3.228516 -3.72787,6.457028 -5.5918,9.685548 z"
       inkscape:label="Green"
       transform="matrix(0.88380368,0,0,0.88380368,17.255156,0.0679803)" />
    <path
       id="path46"
       style="fill:#0966f2;fill-opacity:1;stroke-width:0;paint-order:fill markers stroke;filter:url(#filter61)"
       d="m 123.92773,104.88281 c 16.38151,0 32.76303,0 49.14454,0 1.86393,-3.22851 3.72786,-6.457029 5.59179,-9.685544 -20.10937,0 -40.21875,0 -60.32812,0 1.86393,3.228515 3.72786,6.457034 5.59179,9.685544 z"
       inkscape:label="Blue"
       transform="matrix(0.88380368,0,0,0.88380368,17.255156,0.0679803)" />
  </g>
  <g
     inkscape:groupmode="layer"
     id="layer2"
     inkscape:label="Network">
    <path
       id="path34-5"
       style="display:inline;opacity:0.188;fill:#ffffff;fill-opacity:1;fill-rule:nonzero;stroke:none;stroke-width:0.0113996"
       inkscape:label="Network Orig"
       d="m 168.93594,0 -11.91193,3.3786051 c -0.0234,-0.06092 -0.0502,-0.1212662 -0.0848,-0.1793172 -0.34418,-0.5886124 -1.1012,-0.7860141 -1.68982,-0.4418335 -0.58843,0.3453027 -0.786,1.10119 -0.44184,1.6898194 0.0552,0.09401 0.12296,0.1768817 0.19689,0.2506307 L 144.894,16.946769 c -0.38186,-0.259568 -0.8934,-0.294511 -1.31827,-0.04651 -0.58842,0.345303 -0.78608,1.102334 -0.44131,1.690853 0.15238,0.259888 0.38574,0.443876 0.64905,0.537435 l -4.34444,16.894576 c -0.27296,-0.04362 -0.56263,0.0033 -0.8201,0.153479 -0.27877,0.163865 -0.46831,0.419728 -0.55552,0.706934 l -40.3779,-8.315255 c 0.02867,-0.254926 -0.02039,-0.521876 -0.160197,-0.760677 -0.344614,-0.588553 -1.101201,-0.786013 -1.689819,-0.441834 -0.588435,0.345302 -0.786172,1.10235 -0.441317,1.690853 0.100282,0.171201 0.235695,0.308262 0.391708,0.409278 L 72.553711,73.557784 c -0.369924,-0.503799 -1.068018,-0.655976 -1.618506,-0.332796 -0.588613,0.344169 -0.786055,1.10129 -0.441317,1.689819 0.03162,0.0538 0.06756,0.102195 0.10542,0.149345 l -13.140283,12.77183 c -0.38893,-0.332299 -0.9602,-0.40061 -1.426269,-0.127641 -0.23447,0.13728 -0.405664,0.340926 -0.50643,0.572575 l -22.007442,-7.271907 0.221692,-0.221692 -0.433048,0.152445 -0.132809,-0.04393 0.01034,0.0863 L 0,92.648608 v 0.241846 L 32.876546,81.331986 14.536064,99.792875 c -0.388494,-0.32015 -0.949074,-0.383384 -1.4087,-0.114205 -0.471263,0.27586 -0.690724,0.81498 -0.583427,1.32085 L 0,96.285079 v 0.243913 l 12.639539,4.750618 c 0.01394,0.0301 0.02929,0.06 0.04651,0.0894 0.08531,0.14681 0.197011,0.2688 0.325045,0.36483 L 0,122.97027 v 0.43615 l 13.206429,-21.55424 c 0.187627,0.0925 0.397509,0.13598 0.609265,0.12506 L 18.32808,133.01927 0,128.97869 v 0.23358 l 18.362703,4.04833 0.19172,1.3131 c -0.114498,0.0277 -0.227642,0.0722 -0.334347,0.13487 -0.233559,0.13658 -0.403654,0.33801 -0.504878,0.56741 L 0,129.34094 v 0.2403 l 17.642851,5.91075 c -0.06973,0.29761 -0.03171,0.62168 0.135392,0.9064 0.223944,0.38206 0.62044,0.59813 1.033012,0.60927 l 0.981335,14.76602 c -0.147523,0.0232 -0.293133,0.073 -0.429431,0.15296 -0.588524,0.34474 -0.786013,1.1012 -0.441833,1.68982 0.345358,0.58852 1.10129,0.78619 1.689819,0.44132 0.357119,-0.2092 0.569095,-0.56997 0.604614,-0.95291 l 16.406234,-0.0217 c 0.017,0.17386 0.06876,0.34733 0.163298,0.50798 0.309272,0.52809 0.949587,0.74006 1.503784,0.52917 l 6.730338,15.38407 c -0.577598,0.34813 -0.770093,1.09731 -0.428914,1.68155 0.345363,0.58853 1.102335,0.78607 1.690853,0.44132 0.102474,-0.0601 0.192316,-0.13302 0.270267,-0.21549 l 10.099126,7.51582 c -0.228505,0.37545 -0.249133,0.86129 -0.01137,1.26711 0.06158,0.10544 0.137444,0.19777 0.222725,0.27698 l -11.733134,15.12001 c -0.378274,-0.24064 -0.874161,-0.26697 -1.28726,-0.0248 -0.588536,0.34473 -0.786618,1.10138 -0.441316,1.68982 0.344183,0.58858 1.101288,0.78613 1.689819,0.44132 0.04228,-0.025 0.08279,-0.0531 0.121956,-0.0827 L 57.56341,210.0001 h 0.309026 L 46.380632,197.46237 c 0.284219,-0.31312 0.388048,-0.75484 0.272851,-1.16427 l 24.714254,-9.50175 -3.777031,23.20375 H 67.8217 l 3.792533,-23.29883 14.176396,-5.45032 c 0.01,0.0204 0.01989,0.0411 0.03152,0.061 0.110804,0.1891 0.264568,0.33692 0.441316,0.44028 L 71.053027,210.0001 h 0.258899 l 15.157731,-28.15073 c 0.332439,0.11941 0.713194,0.0959 1.041797,-0.0966 0.588561,-0.34462 0.786444,-1.10138 0.441834,-1.68982 -0.344845,-0.58852 -1.101804,-0.78607 -1.690336,-0.44132 -0.05866,0.0343 -0.112187,0.0737 -0.162781,0.11576 l -10.81381,-9.70638 c 0.301906,-0.38712 0.355705,-0.93389 0.0925,-1.38338 -0.08559,-0.14604 -0.196705,-0.2682 -0.324011,-0.36381 l 17.097148,-29.80593 c 0.353162,0.16092 0.776358,0.15428 1.136881,-0.0568 0.588537,-0.34473 0.786178,-1.10131 0.441317,-1.68982 -0.344628,-0.58841 -1.101181,-0.78607 -1.689819,-0.44132 -0.135024,0.0792 -0.248013,0.18053 -0.340031,0.29611 L 78.412785,127.8661 c 0.19368,-0.3657 0.20013,-0.81916 -0.02429,-1.20251 l 0.06511,0.0935 33.296675,-22.89938 c 0.37949,0.45614 1.04279,0.58526 1.57149,0.27544 0.27242,-0.15939 0.45975,-0.40784 0.54983,-0.68626 l 16.48892,3.68969 c -0.0337,0.26161 0.0144,0.53611 0.15813,0.78135 0.3448,0.58862 1.10121,0.78619 1.68982,0.44132 0.58842,-0.34464 0.78605,-1.10129 0.44131,-1.68982 -0.13431,-0.22938 -0.33114,-0.3987 -0.55655,-0.50023 l 8.32352,-24.123592 c 0.30077,0.0736 0.62901,0.03554 0.91726,-0.133325 0.58854,-0.34474 0.78608,-1.10118 0.44132,-1.68982 -0.14345,-0.244769 -0.35872,-0.420698 -0.60307,-0.519348 l 4.49688,-14.964978 c 0.28735,0.05865 0.59614,0.01692 0.86869,-0.14366 0.5886,-0.344181 0.78603,-1.100776 0.44131,-1.689303 -0.0364,-0.06237 -0.078,-0.118509 -0.12299,-0.172599 l 19.68407,-20.812683 c 0.38606,0.290071 0.92355,0.336936 1.36633,0.07803 0.33388,-0.195628 0.54089,-0.522113 0.59583,-0.876949 l 19.64428,0.845427 c 0.005,0.200021 0.0597,0.401173 0.16846,0.58601 0.34418,0.588616 1.1012,0.786012 1.68982,0.441834 0.58844,-0.34529 0.78549,-1.101204 0.44132,-1.689819 l -0.008,-0.0124 11.26597,-10.086206 5.95675,-5.332491 c 0.38636,0.299247 0.93129,0.350754 1.37821,0.08888 0.58861,-0.344183 0.78711,-1.101385 0.44183,-1.68982 -0.26817,-0.45749 -0.78449,-0.677452 -1.27744,-0.590661 L 201.72464,7.3096313 c 0.0148,-0.0082 0.0308,-0.015158 0.0455,-0.024288 0.58843,-0.3453096 0.78715,-1.1013669 0.44184,-1.6898193 -0.34418,-0.5886084 -1.10138,-0.7871372 -1.68982,-0.4418335 -0.13944,0.08194 -0.2558,0.1869926 -0.34985,0.3079915 L 192.48282,0 h -0.39325 l 7.96075,5.6539185 c -0.0815,0.1570528 -0.12878,0.3283043 -0.13694,0.5038452 L 182.86429,5.2100179 184.44766,0 h -0.23823 l -1.58027,5.1970988 -25.52195,-1.4185181 c -0.002,-0.06091 -0.01,-0.1208588 -0.0202,-0.1803507 L 169.77207,0 Z m -11.83183,4.0064738 25.45787,1.4149007 -1.02939,3.3884237 c -0.28864,-0.05961 -0.59812,-0.017862 -0.87282,0.1431437 -0.26417,0.1546558 -0.44949,0.3939357 -0.54208,0.6635254 z m -0.0636,0.2191081 23.02185,5.6115438 c -0.0154,0.1074318 -0.0173,0.2178723 -0.004,0.3276283 l -28.83184,6.179468 4.31602,-11.3316081 c 0.31014,0.08622 0.65449,0.052937 0.95446,-0.1235066 0.26528,-0.1548239 0.45053,-0.3939177 0.54312,-0.6635254 z m -1.86086,0.6180501 c 0.0489,0.032606 0.0981,0.063017 0.14934,0.088367 l -4.36769,11.469067 -5.58416,1.196826 c -0.0277,-0.08798 -0.064,-0.173315 -0.11162,-0.255798 -0.0551,-0.09407 -0.12154,-0.176782 -0.19534,-0.250631 z m 27.61691,0.5916951 17.12661,0.9518799 c 0.003,0.02615 0.008,0.052888 0.0139,0.078548 L 182.4725,9.6831297 c -0.0283,-0.09941 -0.0675,-0.1958044 -0.12144,-0.2888713 -0.14339,-0.2440107 -0.35703,-0.4192237 -0.59996,-0.5183146 z m 17.20671,1.2495362 c 0.0224,0.05419 0.0469,0.1068347 0.077,0.1586466 0.15779,0.2694388 0.40304,0.4559808 0.67697,0.5467367 l -3.64629,11.1357544 -14.6942,-8.019666 c 0.0812,-0.188182 0.11472,-0.392976 0.0961,-0.5989294 z m 1.51101,0.7121012 6.46834,16.3437055 c -0.0653,0.02533 -0.12883,0.05408 -0.1912,0.09043 -0.14678,0.08657 -0.269,0.197799 -0.36535,0.326078 l -10.11153,-5.51956 3.66696,-11.1962158 c 0.17576,0.02428 0.35685,0.010928 0.53278,-0.044442 z m -21.91804,3.1000695 -24.26518,8.616011 -5.03949,1.790072 c -0.0163,-0.03669 -0.0345,-0.07219 -0.0548,-0.105937 -0.12771,-0.217652 -0.31005,-0.381366 -0.52141,-0.484208 l 1.41542,-3.715019 z m 0.56689,0.03979 c 0.0171,0.03539 0.0354,0.07056 0.0558,0.105419 0.11369,0.194447 0.2727,0.34511 0.45527,0.449069 L 171.04482,32.387686 150.31895,21.87515 c 0.0942,-0.237546 0.11344,-0.502806 0.0491,-0.758094 l 17.62322,-6.258016 z m 2.14458,0.170532 14.73036,8.039302 -7.21403,22.03018 c -0.14251,-0.05489 -0.29549,-0.08277 -0.4501,-0.08268 l -7.67085,-29.515511 c 0.0699,-0.02485 0.13896,-0.05638 0.20567,-0.09457 0.16467,-0.09745 0.29882,-0.228293 0.39895,-0.376721 z m -1.42627,0.476973 c 0.1915,0.06565 0.39786,0.08539 0.60151,0.05219 l 7.66155,29.480888 c -0.13329,0.02559 -0.26396,0.07269 -0.38758,0.145211 -0.14581,0.08528 -0.26835,0.19709 -0.3638,0.324011 l -17.1452,-8.695593 z m -30.01678,5.470467 -1.36167,3.577043 c -0.31122,-0.08604 -0.65602,-0.05242 -0.95601,0.124023 -0.12469,0.07271 -0.23088,0.16569 -0.31937,0.270785 l -2.95434,-2.052071 c 0.12915,-0.228042 0.18327,-0.492752 0.15245,-0.754476 z m -5.72109,2.106332 2.95434,2.052071 c -0.20933,0.371046 -0.22245,0.838917 0.008,1.231966 0.0835,0.142665 0.19228,0.261754 0.31574,0.356567 l -8.62118,13.738697 c -0.0457,-0.0228 -0.0928,-0.04322 -0.14056,-0.05994 l 4.34444,-16.894576 c 0.27299,0.04359 0.56264,-0.0028 0.82011,-0.152962 0.125,-0.07391 0.2311,-0.166777 0.31936,-0.271818 z m 52.09914,0.09663 10.06502,5.493721 h 5.2e-4 c -0.17645,0.360109 -0.17571,0.798114 0.0419,1.168921 0.0425,0.07182 0.091,0.138038 0.14315,0.197921 l -6.75308,6.044592 -10.43812,9.343616 c -0.0799,-0.09014 -0.17108,-0.165758 -0.27079,-0.227376 z m -47.02659,3.221508 20.73414,10.516154 -3.24528,7.17734 c -0.33304,-0.121862 -0.7163,-0.09993 -1.04697,0.09405 -0.0465,0.02693 -0.0902,0.05778 -0.13229,0.09095 L 150.0911,22.245154 c 0.0471,-0.05239 0.088,-0.108119 0.12505,-0.165882 z m -0.29248,0.320394 13.12788,14.149008 3.30729,3.563606 c -0.14393,0.163426 -0.24022,0.358747 -0.28371,0.566374 l -18.06659,-2.390552 v -5.17e-4 l 1.18339,-15.63212 c 0.20602,-0.0036 0.41328,-0.05775 0.60358,-0.168465 0.0455,-0.02676 0.0879,-0.05677 0.12816,-0.08733 z m -1.30897,0.12299 c 0.11025,0.05536 0.22817,0.09458 0.35037,0.115755 l -1.18288,15.619719 -7.30601,-0.967383 c 0.009,-0.227615 -0.0435,-0.461526 -0.16743,-0.672827 -0.0835,-0.14264 -0.19174,-0.261878 -0.31574,-0.356567 z m -50.975182,6.268351 40.377902,8.315772 c -0.0157,0.139788 -0.009,0.282602 0.0248,0.422713 l -27.8567,9.464022 c -0.0184,-0.04097 -0.0387,-0.08176 -0.062,-0.121956 -0.33654,-0.574834 -1.06583,-0.775024 -1.64796,-0.463021 L 97.231791,29.394071 c 0.198344,-0.159306 0.33724,-0.370426 0.407727,-0.603064 z m -0.597379,0.728638 11.243761,17.014466 c -0.47028,0.377406 -0.60649,1.050838 -0.29301,1.586466 l -10.025713,7.20215 -1.329635,-25.668717 c 0.138421,-0.02017 0.2749,-0.06549 0.404627,-0.134359 z m -1.0542,0.05168 c 0.134034,0.05624 0.276602,0.08802 0.42168,0.09405 L 97.746975,55.480847 72.951589,73.29113 Z m 75.165951,3.126941 17.12041,8.683707 c -0.0562,0.112677 -0.0939,0.232902 -0.11369,0.356051 l -19.64325,-0.844393 c -0.006,-0.199843 -0.0607,-0.40016 -0.1695,-0.584977 -0.10922,-0.188241 -0.26121,-0.335356 -0.43563,-0.438216 z m -30.70768,4.817793 7.31893,0.96945 -1.80351,23.81095 c -0.0542,-0.003 -0.10855,1.44e-4 -0.16278,0.0052 L 139.65966,38.40492 c 0.0707,-0.02603 0.14045,-0.05821 0.20774,-0.09767 0.30642,-0.178605 0.50589,-0.469275 0.57878,-0.791166 z M 138.1156,37.7455 c 0.0184,0.04097 0.0387,0.08126 0.062,0.121439 0.1013,0.172152 0.23956,0.310655 0.39688,0.411861 l -9.29763,17.848523 -19.04638,-8.248075 c 0.07,-0.214108 0.082,-0.445538 0.0279,-0.671277 z m 0.66043,0.639237 c 0.20792,0.08498 0.43721,0.112563 0.66249,0.07596 l 6.13554,23.883297 c -0.0979,0.02693 -0.19391,0.0662 -0.28577,0.11989 -0.17899,0.105484 -0.32132,0.248997 -0.42375,0.413928 l -15.37839,-6.660059 z m 9.21545,0.130742 18.05782,2.389001 c -0.006,0.221286 0.0475,0.447152 0.16743,0.652157 0.0456,0.07706 0.0971,0.146351 0.15554,0.209806 l -19.67942,20.807515 c -0.14854,-0.122054 -0.32167,-0.205445 -0.50487,-0.247013 z m -37.85143,9.573059 19.03139,8.24084 -3.61476,6.939112 c -0.34361,-0.139807 -0.74537,-0.125517 -1.09038,0.07648 -0.0493,0.02855 -0.095,0.06106 -0.13849,0.0956 L 109.98605,48.310229 c 0.06,-0.06827 0.11127,-0.143427 0.154,-0.221691 z m -2.01383,0.217557 c 0.0914,0.104222 0.19721,0.191802 0.31367,0.258899 l -9.390122,20.380668 c -0.121888,-0.04542 -0.250427,-0.06994 -0.380855,-0.07596 L 97.981099,55.592989 Z m 1.69395,0.160714 14.34176,15.130859 c -0.23176,0.263798 -0.33938,0.615142 -0.29766,0.961699 l -15.07504,3.256132 0.35915,-19.088241 c 0.18246,-0.01379 0.36468,-0.06677 0.5333,-0.164848 0.0491,-0.02964 0.0947,-0.06217 0.13849,-0.0956 z m -1.17305,0.193787 c 0.0886,0.03106 0.18057,0.0513 0.27388,0.06201 l -0.36018,19.142501 -8.758126,1.891358 c -0.02795,-0.0949 -0.06596,-0.1882 -0.118339,-0.27802 -0.10823,-0.184935 -0.2572,-0.331523 -0.428915,-0.433565 z m -10.886162,7.090523 0.680062,13.129948 c -0.153202,0.02304 -0.304758,0.07364 -0.446485,0.157096 -0.422465,0.246489 -0.641784,0.706694 -0.605647,1.163754 l -24.632089,3.788916 c -0.01894,-0.0755 -0.04447,-0.150133 -0.07855,-0.223243 z m 31.619772,0.670243 15.38253,6.660576 c -0.0434,0.111846 -0.0708,0.229052 -0.0806,0.348299 l -18.3689,0.811837 c -0.0213,-0.155893 -0.0729,-0.310506 -0.15762,-0.45527 -0.10146,-0.1733 -0.23893,-0.312038 -0.39687,-0.412894 z m 15.30501,7.236768 c 0.0177,0.170297 0.07,0.338709 0.16175,0.49506 0.14349,0.245137 0.35868,0.421513 0.60306,0.520382 l -4.49688,14.963944 c -0.28715,-0.0582 -0.59596,-0.01602 -0.86868,0.143661 -0.0495,0.0295 -0.095,0.06203 -0.13901,0.09664 L 126.0197,65.222892 c 0.18473,-0.211399 0.29033,-0.477303 0.30386,-0.752925 z m -20.77289,1.123446 c 0.0274,0.08684 0.0637,0.172397 0.11162,0.253731 0.0494,0.08454 0.1078,0.159655 0.1726,0.227893 l -15.42335,17.705379 c -0.08,-0.0786 -0.16988,-0.146521 -0.26613,-0.199471 l 0.27698,-14.720032 z m 1.94097,0.597896 13.92628,14.654919 c -0.19764,0.22604 -0.30364,0.515494 -0.30438,0.810803 l -11.62048,1.062468 -2.46806,-16.298747 c 0.11226,-0.02805 0.22283,-0.0708 0.32763,-0.132291 0.0496,-0.02972 0.095,-0.06254 0.13901,-0.09715 z m -1.48467,0.03256 c 0.23019,0.165754 0.51082,0.246496 0.79272,0.230994 l 2.466,16.285311 -18.50792,1.692403 c -0.0255,-0.136632 -0.0735,-0.2718 -0.14779,-0.398426 -0.0151,-0.0267 -0.033,-0.0515 -0.0496,-0.077 z m -15.8135,2.687174 -0.2744,14.571721 c -0.15132,-0.0477 -0.31147,-0.06618 -0.47181,-0.05478 l -7.64036,-10.559562 -0.740007,-1.02216 c 0.305587,-0.26619 0.456192,-0.661723 0.417029,-1.053683 z m -11.127488,2.327507 c 0.02799,0.10289 0.06829,0.204064 0.125057,0.301274 0.164887,0.281049 0.424965,0.471698 0.715201,0.557588 L 96.321769,80.43127 72.779537,74.481246 c 0.01358,-0.0875 0.01715,-0.17591 0.01189,-0.2651 z m 1.816426,0.741557 0.736906,1.018542 7.579896,10.47533 c -0.0956,0.0277 -0.18929,0.06664 -0.27905,0.118856 -0.14769,0.0867 -0.27093,0.199322 -0.3669,0.328662 L 96.542428,80.487077 98.491663,71.33053 c 0.252554,0.026 0.514816,-0.02314 0.750858,-0.160714 l 5.17e-4,-5.17e-4 z M 72.72321,74.701387 96.274227,80.654512 94.009766,91.29469 c -0.236186,-0.0144 -0.479209,0.03839 -0.698666,0.166915 -0.08578,0.0503 -0.162089,0.110216 -0.230993,0.176216 L 80.635388,81.521639 72.584717,74.976819 c 0.0576,-0.0864 0.104473,-0.177756 0.138493,-0.275436 z m -0.28267,0.451652 20.490222,16.657382 c -0.08698,0.12192 -0.151367,0.257175 -0.189136,0.399975 L 71.523283,90.122664 71.661776,75.518905 c 0.1787,-0.0143 0.356952,-0.06649 0.521932,-0.162781 0.09699,-0.0568 0.18209,-0.125449 0.256832,-0.203089 z m -1.682585,0.07545 c 0.192402,0.16358 0.429026,0.263725 0.675928,0.288355 L 71.29539,90.10045 57.89104,88.78115 c 0.0014,-0.21486 -0.05192,-0.432359 -0.168465,-0.630969 -0.03162,-0.0538 -0.06737,-0.102792 -0.10542,-0.149862 z m 25.737447,5.481319 10.297558,2.603459 c -0.16261,0.33947 -0.16565,0.748539 0.0202,1.103808 l -11.953794,7.291028 c -0.168171,-0.190259 -0.38735,-0.318951 -0.624251,-0.378271 z m 43.000988,0.362252 c 0.0253,0.13681 0.0729,0.271932 0.14728,0.398942 0.13454,0.22936 0.33159,0.398698 0.55707,0.500228 l -8.32352,24.12411 c -0.11854,-0.029 -0.24137,-0.04 -0.36432,-0.0331 l -3.62355,-23.928752 z m -106.053987,0.15244 22.01261,7.272941 c -0.03734,0.161659 -0.04194,0.331067 -0.01189,0.497127 L 34.97926,94.703263 Z m -0.220141,0.08423 1.53479,13.457577 L 14.904,100.30447 c -0.0238,-0.0625 -0.05206,-0.12423 -0.08682,-0.18397 -0.03566,-0.0604 -0.07595,-0.11523 -0.119889,-0.166911 z m 94.439718,0.845427 3.62561,23.941693 c -0.11239,0.0279 -0.22273,0.0713 -0.32762,0.13281 -0.0607,0.0355 -0.1163,0.0767 -0.16847,0.1204 L 108.86002,84.629976 c 0.18207,-0.221709 0.2799,-0.499311 0.2806,-0.782381 z m -20.72484,2.45463 c 0.27865,0.35499 0.72424,0.523386 1.15652,0.457336 l 3.56102,14.288534 -16.533871,-6.484875 c 0.09058,-0.31394 0.05826,-0.662647 -0.119889,-0.966867 l -0.0062,-0.0098 z m 1.76269,0.182418 21.93147,21.719605 c -0.0584,0.071 -0.10833,0.14728 -0.14883,0.22841 l -18.56734,-7.282244 -3.60029,-14.44563 c 0.0737,-0.0259 0.14646,-0.05884 0.21652,-0.09973 0.0606,-0.0356 0.11628,-0.07662 0.16847,-0.120406 z m -50.831528,4.21628 13.425021,1.321883 -0.208773,22.020362 c -0.142742,0.0117 -0.285136,0.0475 -0.420646,0.11111 L 57.37686,89.777466 c 0.26425,-0.18929 0.433288,-0.467729 0.491442,-0.769979 z m -2.36368,0.207222 c 0.01034,0.0273 0.02135,0.0552 0.03411,0.0832 L 35.688778,100.92459 35.006132,94.933223 Z m 0.149862,0.27957 c 0.144015,0.20122 0.339884,0.347078 0.558622,0.431498 L 51.36689,107.05548 35.734253,102.00463 c 0.05842,-0.25949 0.03329,-0.53748 -0.08527,-0.7922 z m 1.525488,0.398425 13.287045,22.683368 c -0.188342,0.13489 -0.32812,0.31509 -0.414445,0.51677 l -18.468641,-5.96708 4.848283,-17.137456 c 0.246495,0.0455 0.507699,0.0172 0.747758,-0.0956 z m 14.341244,0.458887 21.183203,2.084627 c -0.01822,0.2414 0.03374,0.490352 0.165365,0.715202 0.009,0.0161 0.02018,0.03059 0.02997,0.04599 L 80.5341,104.71609 l -8.525577,7.94163 c -0.195897,-0.1748 -0.440475,-0.27955 -0.696082,-0.30592 z m 23.429577,2.876827 16.620177,9.336904 c -0.153,0.34408 -0.147,0.75261 0.0501,1.10484 l -33.294605,22.89783 c -0.113233,-0.15841 -0.258951,-0.28194 -0.422196,-0.36897 l 15.52515,-32.546341 c 0.351994,0.15788 0.77209,0.149906 1.130164,-0.05994 0.161139,-0.0944 0.291682,-0.220089 0.39119,-0.364319 z m 0.478007,0.0067 16.29358,6.390824 0.56741,2.27686 c -0.0738,0.0259 -0.14607,0.0587 -0.21601,0.0997 -0.16107,0.0942 -0.2918,0.22 -0.39119,0.36432 z m -2.387967,0.14211 c 0.05824,0.0614 0.121819,0.115681 0.189652,0.162781 L 77.693449,126.11065 c -0.275083,-0.0864 -0.578819,-0.0772 -0.857312,0.0429 l -5.050855,-11.49542 0.02532,-0.0134 c 0.588508,-0.34486 0.786055,-1.10129 0.441317,-1.68982 -0.02677,-0.0461 -0.05671,-0.0887 -0.08837,-0.12971 L 91.231641,95.062415 Z m -58.25691,1.617472 0.675411,5.928322 c -0.381652,-0.43839 -1.033039,-0.55784 -1.552876,-0.25322 -0.338116,0.19803 -0.546624,0.53223 -0.598414,0.89246 l -5.103564,-0.2465 -13.221415,-0.63975 c -0.0022,-0.0508 -0.009,-0.10152 -0.01809,-0.15193 z m 77.198907,4.733562 18.1808,7.13083 -16.2419,-3.63389 c 0.0337,-0.26172 -0.0149,-0.53599 -0.15865,-0.78134 -0.2632,-0.44948 -0.76665,-0.67002 -1.25212,-0.59583 z m -97.007517,1.17564 11.322307,0.54777 6.999056,0.33796 c 0.0087,0.19468 0.06227,0.39021 0.167948,0.56999 0.206832,0.35356 0.563397,0.56501 0.941028,0.60358 l -0.04806,6.11126 -19.42052,-7.98763 c 0.01708,-0.06 0.02953,-0.12098 0.03824,-0.18293 z m -0.121439,0.39532 19.501652,8.02122 -0.209807,26.0966 c -0.13781,0.0115 -0.274228,0.0449 -0.40566,0.10438 L 14.480253,101.74108 c 0.162525,-0.11845 0.288555,-0.27119 0.373621,-0.44184 z m -0.618567,0.58033 0.07855,0.0289 19.228284,33.72714 c -0.22767,0.15929 -0.387146,0.38435 -0.466639,0.63459 l -14.509193,-3.1982 -4.525822,-31.12678 c 0.0667,-0.0161 0.131043,-0.0383 0.19482,-0.0656 z m 21.428149,0.3421 15.641423,5.05344 -1.919263,6.78408 c -0.301332,-0.0742 -0.63084,-0.0364 -0.91984,0.13281 -0.07243,0.0425 -0.13907,0.0913 -0.199471,0.14521 L 35.50791,102.48832 c 0.06429,-0.0827 0.116152,-0.17228 0.155546,-0.26665 z m -0.310058,0.4346 4.55476,4.23385 8.198466,7.62072 c -0.04188,0.0552 -0.07781,0.11342 -0.109554,0.17415 l -13.412618,-5.51698 0.05013,-6.20324 c 0.177661,-0.0149 0.354991,-0.0675 0.519865,-0.16381 0.0718,-0.0424 0.138197,-0.0909 0.198955,-0.14469 z m 16.168522,4.68912 18.460888,5.96449 c -0.01834,0.0816 -0.02841,0.16465 -0.02997,0.24856 l -19.646346,1.49242 c -0.02416,-0.14333 -0.07309,-0.28462 -0.150895,-0.41755 -0.133786,-0.22858 -0.330386,-0.39729 -0.554488,-0.49919 z m -16.939018,2.06809 13.327869,5.48235 c -0.09779,0.31877 -0.068,0.67542 0.113688,0.98599 0.07351,0.12541 0.166538,0.23192 0.271818,0.32039 l -13.43949,19.36936 c -0.14936,-0.0839 -0.31365,-0.13575 -0.483691,-0.15296 z m 35.388021,4.37596 c 0.0245,0.142 0.07283,0.28227 0.149862,0.41393 0.0745,0.12694 0.168899,0.23441 0.275952,0.32349 l -5.176945,7.53184 -14.956193,-6.42131 c 0.03082,-0.0955 0.0512,-0.19377 0.05839,-0.29404 z m 0.613916,0.86661 c 0.298014,0.16613 0.658361,0.20622 0.992187,0.0946 l 5.058606,11.51299 c -0.195079,0.13087 -0.342551,0.30833 -0.434598,0.50953 l -10.767819,-4.62297 z m -20.411157,1.19114 14.914335,6.40323 -2.654102,3.86126 c -0.384003,-0.27331 -0.907077,-0.31403 -1.33997,-0.0605 -0.05396,0.0317 -0.103682,0.0679 -0.150895,0.10594 L 49.970593,116.12211 c 0.08125,-0.0827 0.148957,-0.17524 0.203089,-0.27492 z m -0.378789,0.42323 10.983826,10.0459 c -0.256519,0.30081 -0.35463,0.70962 -0.259416,1.09554 l -8.533846,2.96054 -2.561084,-13.92731 c 0.09923,-0.0278 0.196705,-0.0674 0.289905,-0.12196 0.02799,-0.0166 0.05445,-0.0345 0.08062,-0.0527 z m -1.311547,0.0615 c 0.217011,0.12236 0.467267,0.17657 0.716752,0.15451 l 2.567285,13.96194 -16.392798,5.68699 c -0.01756,-0.0383 -0.03742,-0.076 -0.05943,-0.11317 -0.07406,-0.12513 -0.165692,-0.23215 -0.271818,-0.3204 z m 16.818094,6.00997 10.823629,4.64726 c -0.01827,0.073 -0.03,0.14738 -0.03462,0.22272 l -13.140283,-0.16329 c -0.01019,-0.1902 -0.06404,-0.38083 -0.166915,-0.55656 -0.05031,-0.0857 -0.110164,-0.16196 -0.176217,-0.23048 z m -2.360062,4.9351 13.156819,0.16329 c 0.01999,0.16177 0.072,0.32179 0.159681,0.47129 0.344612,0.58856 1.101198,0.78618 1.689819,0.44132 0.13504,-0.0791 0.248476,-0.18037 0.340548,-0.29611 l 13.287044,8.71988 c -0.01469,0.0277 -0.02816,0.056 -0.04082,0.0848 L 62.92019,127.39429 c 0.0089,-0.0387 0.01615,-0.0779 0.02119,-0.1173 z m -0.09302,0.33331 28.614791,9.46764 c -0.02685,0.11621 -0.03704,0.23543 -0.02946,0.35553 L 66.10966,141.41824 62.178634,128.2609 c 0.05545,-0.0225 0.110243,-0.0475 0.163297,-0.0785 0.234346,-0.13727 0.405482,-0.34073 0.506429,-0.57206 z m -2.255159,0.0171 c 0.01763,0.0384 0.03719,0.076 0.05891,0.11317 0.112914,0.19237 0.269818,0.34251 0.450618,0.44597 l -6.430098,14.04566 c -0.165197,-0.0577 -0.341506,-0.0797 -0.517798,-0.0641 l -2.127519,-11.56881 z m 0.716752,0.65423 c 0.206721,0.0721 0.431452,0.089 0.650606,0.045 l 3.921725,13.12737 -10.42107,1.63969 c -0.02781,-0.10986 -0.07048,-0.21823 -0.130741,-0.32091 -0.112512,-0.19234 -0.269933,-0.34198 -0.450619,-0.44545 z m -9.500712,2.39313 2.121317,11.5347 c -0.09915,0.0279 -0.196823,0.0674 -0.289905,0.12195 -0.23213,0.136 -0.402554,0.33677 -0.503845,0.56534 l -17.686775,-5.96604 c 0.04535,-0.18854 0.04659,-0.38686 -0.001,-0.57981 z m -33.208826,2.63808 14.240474,3.13935 -12.762528,-0.72244 c -0.0069,-0.19786 -0.06129,-0.39691 -0.168465,-0.57981 -0.241287,-0.41164 -0.684308,-0.6314 -1.129647,-0.60875 z m 1.463993,2.6448 12.951148,0.73277 c 0.0069,0.19796 0.06129,0.39744 0.168465,0.58033 0.04885,0.0841 0.108484,0.15847 0.172083,0.22634 l -5.272547,6.04356 -8.232056,-7.05331 c 0.112382,-0.15847 0.184983,-0.34031 0.212907,-0.52969 z m -0.361218,0.70229 8.229472,7.05228 -7.222815,8.27856 c -0.201814,-0.14559 -0.443041,-0.22538 -0.68988,-0.23202 L 19.038629,136.9927 c 0.147508,-0.0232 0.293126,-0.0731 0.429431,-0.15296 0.08772,-0.0512 0.16501,-0.11222 0.235128,-0.17983 z m 15.675012,0.48679 17.685742,5.96604 c -0.07074,0.29846 -0.03184,0.62297 0.135393,0.90847 0.147307,0.25148 0.370139,0.43117 0.622701,0.52814 l -6.983553,24.79125 c -0.178386,-0.0264 -0.362166,-0.0136 -0.539502,0.0403 L 34.777722,137.76213 c 0.03221,-0.0155 0.06443,-0.0316 0.09612,-0.0501 0.232462,-0.13603 0.403008,-0.33673 0.504362,-0.56534 z m -1.850533,0.50074 c 0.273269,0.19657 0.617514,0.2736 0.949296,0.21136 l 3.979086,13.93765 c -0.07888,0.0267 -0.15498,0.061 -0.228927,0.10439 -0.07609,0.0447 -0.145679,0.0965 -0.208256,0.15347 L 28.25564,143.6889 Z m 57.941166,0.0119 c 0.02803,0.10981 0.07049,0.21772 0.130742,0.32039 0.09233,0.15763 0.214598,0.28614 0.355017,0.38499 l -17.094047,29.80025 v 5.2e-4 c -0.242589,-0.1197 -0.520756,-0.15772 -0.79065,-0.10336 L 66.175289,141.6389 Z m -56.232226,2.02623 4.541325,12.46642 c -0.277151,-0.31592 -0.693883,-0.4653 -1.099158,-0.40824 z m 30.71182,1.98903 7.903394,26.45368 c -0.055,0.0222 -0.109487,0.0471 -0.162264,0.078 -0.0188,0.0112 -0.03661,0.0236 -0.05478,0.0357 L 55.107231,144.29972 c 0.273213,-0.25466 0.41194,-0.61722 0.389123,-0.98082 z m -37.842134,2.18591 9.759094,8.36228 c -0.139376,0.18489 -0.222631,0.40452 -0.243396,0.632 l -16.406234,0.0217 c -0.01585,-0.17418 -0.06824,-0.34762 -0.16278,-0.5085 -0.04908,-0.084 -0.107348,-0.15918 -0.172083,-0.22686 z m 26.819551,0.57774 18.530135,23.94583 c -0.242376,0.23375 -0.374872,0.5537 -0.376721,0.8816 l -15.438851,0.69401 -3.112988,-25.35607 c 0.124039,-0.0271 0.245964,-0.0729 0.361218,-0.14056 0.01279,-0.008 0.02513,-0.0164 0.03721,-0.0248 z m -0.884183,0.1726 c 0.08547,0.0159 0.172399,0.0237 0.259932,0.0212 l 3.110921,25.33799 -9.531201,0.42788 c -0.02135,-0.15788 -0.07274,-0.31445 -0.159163,-0.46044 -0.154727,-0.26488 -0.394059,-0.44929 -0.662492,-0.54208 z m -13.957288,8.38089 5.181079,14.21877 -5.771741,-13.19041 c 0.372763,-0.22713 0.582106,-0.62071 0.590662,-1.02836 z m 33.015039,16.50131 c 0.02509,0.1381 0.0732,0.27428 0.148311,0.40256 l -13.577465,8.90592 c -0.24551,-0.31054 -0.621017,-0.47652 -1.00149,-0.46561 l -1.000455,-8.14989 z m 0.218075,0.62994 -26.849524,25.40568 11.574487,-14.91692 c 0.378389,0.2405 0.873799,0.26697 1.28726,0.0248 0.573544,-0.3359 0.774624,-1.06289 0.465605,-1.64434 z m -15.877584,0.0739 1.003039,8.16746 c -0.12407,0.027 -0.245819,0.0735 -0.361218,0.14107 -0.112863,0.066 -0.211005,0.14746 -0.294039,0.23978 l -10.094991,-7.51272 c 0.117922,-0.18216 0.185634,-0.39137 0.197921,-0.60668 z m 17.69091,5.1e-4 10.808125,9.70122 c -0.261477,0.31474 -0.352029,0.74388 -0.233577,1.14102 l -14.048755,5.40122 2.594674,-15.9365 c 0.232454,0.012 0.470836,-0.0404 0.68678,-0.16691 0.07006,-0.041 0.133954,-0.0884 0.192753,-0.14005 z m -1.594735,0.0326 c 0.144328,0.11729 0.311907,0.19937 0.489376,0.24185 l -2.614828,16.06413 -24.838794,9.54981 c -0.0131,-0.0259 -0.02539,-0.0519 -0.03979,-0.077 h -5.16e-4 c -0.02882,-0.0487 -0.06052,-0.0941 -0.09508,-0.13746 z" />
    <path
       id="path34-5-2"
       style="display:inline;opacity:0.188;fill:#ffffff;fill-opacity:1;fill-rule:nonzero;stroke:none;stroke-width:0.0113996"
       inkscape:label="Network Orig"
       d="m 199.12686,0 1.48105,5.078243 c -0.32066,0.1481729 -0.57582,0.4317128 -0.67489,0.7994344 -0.17756,0.6585104 0.21284,1.3366347 0.87126,1.5141195 0.65864,0.1773798 1.33615,-0.2126823 1.5136,-0.8712647 0.0178,-0.06563 0.0286,-0.1314222 0.0351,-0.1968872 l 14.51591,-0.6712768 c 0.0565,0.4876595 0.40193,0.914996 0.90486,1.0505818 0.16346,0.044 0.32745,0.053239 0.48524,0.032039 l 8.73125,33.233631 c -0.36454,0.133134 -0.66123,0.434799 -0.76998,0.838192 -0.17747,0.658567 0.21262,1.336243 0.87126,1.513602 0.65841,0.177449 1.33609,-0.212605 1.51361,-0.871264 0.0407,-0.151175 0.0506,-0.302667 0.0351,-0.449585 l 15.58561,-3.109888 c 0.11859,0.396466 0.43205,0.724059 0.86093,0.839742 l -0.11162,-0.02119 -7.65793,39.679231 c -0.59044,-0.0587 -1.15377,0.314696 -1.3131,0.906405 -0.0823,0.30472 -0.0412,0.612785 0.0899,0.874365 l -14.33763,8.94054 c -0.15955,-0.21005 -0.3865,-0.371521 -0.66094,-0.445451 -0.65869,-0.17748 -1.33617,0.212535 -1.5136,0.871265 -0.17745,0.658419 0.21269,1.336142 0.87126,1.513602 0.25665,0.0692 0.51591,0.05118 0.74776,-0.03462 l 10.99519,23.029084 c -0.26594,0.15859 -0.47326,0.4159 -0.56017,0.73846 -0.17746,0.65859 0.2126,1.33608 0.87127,1.5136 0.27394,0.0737 0.55093,0.0485 0.79426,-0.0527 l 7.29568,13.81776 c -0.2459,0.15983 -0.43627,0.40594 -0.5178,0.71159 -0.17791,0.65823 0.21219,1.33613 0.87075,1.5136 0.0697,0.0189 0.13874,0.0297 0.20877,0.0367 l 0.57723,28.64114 c -0.4786,0.0642 -0.89402,0.40764 -1.02785,0.90279 -0.10063,0.37365 -0.0191,0.75145 0.19069,1.04283 l -14.59032,13.18163 c -0.14391,-0.13901 -0.32403,-0.24437 -0.53124,-0.29973 -0.65824,-0.17791 -1.33569,0.21251 -1.5136,0.87075 -0.17701,0.6589 0.21252,1.33568 0.87075,1.5136 l 0.0145,0.003 -0.95085,15.09159 -0.50229,7.97936 c -0.48526,0.0579 -0.90968,0.40313 -1.04438,0.9033 -0.1779,0.65823 0.21185,1.33659 0.87074,1.5136 0.51208,0.13781 1.03412,-0.0671 1.32447,-0.4749 l 15.40423,6.8094 h 0.56172 l -15.84968,-7.00629 c 0.0288,-0.0639 0.0539,-0.12878 0.0729,-0.19844 0.0438,-0.16467 0.0529,-0.32985 0.0315,-0.48886 l 11.07788,-3.16208 5.24257,10.55026 c -0.10707,0.0798 -0.18502,0.19273 -0.262,0.30541 h 2.00246 c -0.0301,-0.0444 -0.0426,-0.0994 -0.0786,-0.13952 l 12.81318,-11.28717 4.1956,8.00726 c -0.24748,0.16005 -0.43829,0.40709 -0.52038,0.71365 -0.0367,0.13589 -0.0485,0.27206 -0.0393,0.40515 l -14.24151,2.30063 h 1.42369 l 12.85348,-2.07584 c 0.10781,0.41586 0.42994,0.76308 0.87436,0.88315 0.65876,0.17696 1.33549,-0.21226 1.5136,-0.87023 v -5.2e-4 c 0.13935,-0.51623 -0.0718,-1.04367 -0.4873,-1.33273 l 14.1242,-24.85688 c 0.0594,0.027 0.12117,0.0511 0.18655,0.0682 0.65824,0.17791 1.33569,-0.21251 1.5136,-0.87075 0.17699,-0.65891 -0.21251,-1.33567 -0.87075,-1.5136 -0.1053,-0.0282 -0.21132,-0.0401 -0.31574,-0.0408 l -1.39113,-15.82125 c 0.45421,-0.083 0.84332,-0.41712 0.97204,-0.89194 0.17698,-0.65889 -0.2132,-1.3372 -0.87179,-1.51463 -0.29093,-0.0783 -0.58596,-0.0452 -0.83922,0.0729 l -8.75864,-15.08642 c 0.2251,-0.16045 0.39887,-0.39707 0.47697,-0.68471 0.0836,-0.31236 0.0391,-0.62766 -0.10025,-0.89349 l 31.43891,-20.35638 v -0.2713 l -31.56293,20.43648 v 5.2e-4 c -0.0869,-0.11062 -0.19217,-0.20824 -0.31471,-0.28422 l 13.20849,-26.28884 c 0.0419,0.0163 0.0849,0.0311 0.12971,0.0434 0.64312,0.17345 1.30275,-0.19555 1.49862,-0.82631 l 17.04082,3.61632 v -0.23254 l -16.99328,-3.6065 c 0.0703,-0.59904 -0.30487,-1.17484 -0.90434,-1.33635 l 2.09032,-12.16619 15.8073,14.47199 v -0.30851 l -15.76183,-14.43013 5.17126,-30.088082 10.59057,35.135842 v -0.79065 L 286.50603,72.474129 c 0.61707,0.0994 1.221,-0.281607 1.38647,-0.898136 0.17791,-0.65822 -0.2127,-1.336143 -0.87126,-1.513603 -0.0603,-0.0162 -0.11977,-0.02546 -0.17983,-0.03256 l 0.40152,-18.320329 c 0.51028,-0.03612 0.9648,-0.387992 1.10536,-0.909505 0.0707,-0.262331 0.0499,-0.527499 -0.0408,-0.763261 l 8.69249,-4.291211 V 45.49128 l -8.79378,4.341337 c -0.0869,-0.141358 -0.20207,-0.265049 -0.34003,-0.362252 l 9.13381,-15.914274 v -0.458886 l -9.33121,16.258955 c -0.0265,-0.01223 -0.0546,-0.02462 -0.0832,-0.03566 l 5.98568,-22.211564 3.42873,2.769856 v -0.292488 l -3.2644,-2.637565 c 0.57953,0.04457 1.12749,-0.327196 1.28416,-0.908989 0.10198,-0.378341 0.0159,-0.762222 -0.19999,-1.055233 l 2.18023,-1.948718 v -0.305924 l -2.33164,2.08411 c -0.14301,-0.1324 -0.31787,-0.233925 -0.51935,-0.287837 -0.39544,-0.106799 -0.79786,-0.0075 -1.09399,0.22996 l -4.25349,-4.388363 8.19847,-3.346049 v -0.24598 L 288.63046,20.191528 270.4693,1.4495199 c 0.0901,-0.1048879 0.1641,-0.2245463 0.21601,-0.3591512 l 26.31467,7.422286 V 8.2754639 l -26.2537,-7.40574954 c 0.0505,-0.27324173 0.006,-0.5457146 -0.11265,-0.77979737 L 270.77675,0 h -2.86959 l 0.46664,0.22169189 v 5.1677e-4 c -0.0121,0.03364 -0.0234,0.0674111 -0.0331,0.1028361 -0.0702,0.26003674 -0.051,0.52254122 0.0372,0.75654294 l -16.7876,8.1586752 c -0.159,-0.2622668 -0.4143,-0.466849 -0.73378,-0.5529379 -0.28141,-0.07583 -0.56591,-0.047648 -0.8139,0.060462 L 245.22793,0 h -0.26045 l 4.87515,8.858374 h -5.2e-4 c -0.0721,0.04866 -0.13885,0.1042287 -0.19947,0.1674317 L 238.27176,0 h -0.3669 l 11.59619,9.2046061 c -0.0694,0.1063339 -0.12398,0.2244139 -0.15865,0.3534668 -0.004,0.01468 -0.006,0.029445 -0.009,0.043925 L 219.32821,5.5412638 c 0.009,-0.3366166 -0.12109,-0.6570004 -0.34984,-0.8919352 h -5.2e-4 L 223.29335,0 h -0.31006 l -4.17856,4.501534 c -0.11478,-0.08079 -0.24459,-0.1442116 -0.38809,-0.1829346 L 219.34889,0 h -0.2341 L 218.20735,4.2049113 218.35618,0 h -0.22789 l -0.15141,4.2824259 c -0.18513,0.01769 -0.36206,0.076283 -0.51832,0.1705323 L 214.30372,0 h -0.28009 l 3.25045,4.5883504 c -0.17405,0.1545469 -0.30699,0.3593072 -0.37207,0.6009969 -0.0212,0.0784 -0.0337,0.1570409 -0.0393,0.2351278 L 202.35457,6.095752 c -0.0345,-0.4077256 -0.2705,-0.7773386 -0.63355,-0.9772014 L 204.04388,0 h -0.25012 l -2.28203,5.0281169 c -0.0214,-0.0075 -0.0429,-0.015147 -0.0651,-0.021187 -0.21163,-0.057 -0.42527,-0.055051 -0.62374,-0.00465 L 199.36406,0 Z m 94.39114,0 3.48196,2.6396322 V 2.354895 L 293.89421,0 Z m -25.04033,1.2862264 c 0.10001,0.1661238 0.23858,0.308155 0.40773,0.4123779 l -7.67447,15.5236007 -9.60458,-6.730856 c 0.0511,-0.08948 0.0928,-0.186265 0.12092,-0.290421 0.07,-0.2597756 0.0505,-0.5215719 -0.0377,-0.7555097 z m 1.82779,0.3219442 18.09709,18.6758624 -13.34285,5.445663 c -0.15398,-0.295753 -0.42521,-0.529397 -0.77257,-0.623218 -0.14036,-0.03779 -0.2815,-0.04805 -0.41858,-0.03721 L 269.85381,1.8381307 c 0.16529,-0.04502 0.31842,-0.1229142 0.45165,-0.2299601 z m -1.21594,0.1917195 c 0.0394,0.01494 0.0796,0.028204 0.12144,0.039274 h 5.1e-4 c 0.14059,0.03717 0.28053,0.048787 0.41807,0.037207 l 4.01422,23.2316569 c -0.24048,0.06508 -0.45679,0.201976 -0.61908,0.392741 l -11.62513,-8.146273 z m -49.78869,3.9682333 30.00075,4.0597005 c -0.016,0.3731471 0.13945,0.7284541 0.41083,0.9715171 l -6.29368,8.505424 -24.19232,-13.3035809 c 0.0236,-0.05441 0.045,-0.1104488 0.061,-0.1694987 0.006,-0.02117 0.009,-0.042172 0.0134,-0.063562 z m -0.18346,0.4335652 24.16442,13.2880774 -15.22956,20.582723 c -0.097,-0.0586 -0.2034,-0.106026 -0.31833,-0.136942 -0.17636,-0.04755 -0.35407,-0.05289 -0.52348,-0.02481 L 218.48124,6.683313 v -5.168e-4 c 0.25684,-0.08492 0.48196,-0.2530008 0.63613,-0.4811076 z m 32.35824,4.4767294 9.633,6.750492 -4.01836,8.12767 c -0.0395,-0.01501 -0.08,-0.02803 -0.12144,-0.03927 -0.21542,-0.05785 -0.43213,-0.05468 -0.63355,-0.0016 l -5.27358,-14.519527 c 0.1582,-0.0748 0.29927,-0.183001 0.41393,-0.31781 z m -1.57975,0.256832 c 0.0969,0.05877 0.20282,0.106075 0.31781,0.136942 0.21512,0.0581 0.43222,0.05457 0.63355,0.0016 l 5.27358,14.519527 c -0.19788,0.09367 -0.36978,0.23914 -0.49506,0.424263 l -12.00495,-6.601664 z m 11.40137,6.625952 11.59671,8.126636 c -0.0512,0.08941 -0.0928,0.185629 -0.12093,0.289905 -0.008,0.03147 -0.0143,0.06321 -0.0202,0.09457 l -14.87506,0.548804 c -0.0283,-0.394314 -0.24532,-0.754558 -0.58394,-0.962732 z m -17.81338,2.039152 12.03234,6.617167 c -0.0238,0.05497 -0.0449,0.111221 -0.061,0.170532 -0.0707,0.262239 -0.0501,0.527086 0.0403,0.762745 l -27.03143,13.331486 c -0.0625,-0.101607 -0.13873,-0.19416 -0.22841,-0.274402 z m 45.09027,0.860413 4.31653,4.454508 c -0.11613,0.135271 -0.20593,0.297279 -0.2558,0.481624 -0.0214,0.08059 -0.0343,0.161885 -0.0398,0.24288 l -6.21616,0.179317 -11.18846,0.322461 c -0.009,-0.06873 -0.0244,-0.135487 -0.0444,-0.201022 z m 4.02869,5.406905 c 0.0122,0.104041 0.0383,0.204328 0.0765,0.299206 l -14.69057,7.374227 -3.39256,-6.180501 c 0.26678,-0.158564 0.47452,-0.416672 0.56172,-0.740007 0.0218,-0.08108 0.0351,-0.162582 0.0403,-0.243396 z m -19.87114,0.433565 c 1.7e-4,0.1159 0.0167,0.229477 0.0481,0.338481 l -15.11949,5.901965 -0.81804,-4.613155 c 0.46538,-0.07469 0.86682,-0.413202 0.99736,-0.89762 0.0162,-0.06048 0.0262,-0.121127 0.0331,-0.181384 z m 20.04943,0.07028 c 0.14046,0.225869 0.35327,0.406082 0.6165,0.504362 l -6.03271,22.38623 c -0.2438,-0.04233 -0.48563,-0.0091 -0.70073,0.08423 L 278.09827,33.74109 Z m -19.91817,0.480591 c 0.0451,0.08966 0.0996,0.174135 0.16485,0.25063 l -12.91032,14.893665 c -0.11709,-0.08399 -0.24962,-0.149883 -0.39688,-0.189653 -0.14216,-0.03818 -0.28498,-0.04885 -0.42375,-0.03721 l -1.59628,-8.998933 z m 0.38086,0.448034 c 0.11781,0.08515 0.25175,0.151627 0.40049,0.19172 0.2557,0.069 0.51452,0.05104 0.74569,-0.03359 l 3.39462,6.185152 -17.33899,8.702828 c -0.0442,-0.07098 -0.0953,-0.137009 -0.15296,-0.19792 z m -17.64751,0.05478 c 0.0207,0.03389 0.0436,0.06711 0.0677,0.0987 l -9.48934,9.11469 c -0.12776,-0.101233 -0.27702,-0.178777 -0.44442,-0.223759 -0.6585,-0.17757 -1.33668,0.212541 -1.51412,0.871264 -0.0407,0.151111 -0.0502,0.303034 -0.0346,0.450102 l -15.58561,3.109888 c -0.009,-0.0299 -0.0196,-0.05967 -0.0305,-0.08888 z m 0.22066,0.267684 c 0.14072,0.128366 0.31297,0.226501 0.50953,0.27957 0.096,0.02577 0.19218,0.03783 0.28732,0.04031 l 0.83044,4.683436 -10.97297,4.283459 c -0.0383,-0.065 -0.0821,-0.126413 -0.13177,-0.183451 z m 1.6676,5.232756 1.58802,8.953975 c -0.32891,0.09073 -0.61407,0.315119 -0.7736,0.628902 L 246.61647,37.78426 c 0.0472,-0.230126 0.0275,-0.459713 -0.0481,-0.66766 z m 20.41013,0.988053 8.5695,15.612484 c -0.20755,0.140528 -0.37371,0.343919 -0.46561,0.592729 l -25.38294,-6.839376 c 0.0395,-0.228261 0.0123,-0.455117 -0.0677,-0.659391 z m -31.34383,4.159953 11.66492,4.647262 -0.009,0.02739 c -0.17736,0.658647 0.21217,1.336146 0.87075,1.513603 0.0514,0.01404 0.10316,0.02301 0.15451,0.02997 l -1.12396,26.03562 -0.10646,2.470134 c -0.0845,-0.003 -0.16769,0.0029 -0.24908,0.01705 L 245.97,38.635368 c 0.25663,-0.131447 0.46668,-0.351027 0.58084,-0.632003 z m -0.7922,0.716752 11.77396,34.083191 c -0.36158,0.13449 -0.65536,0.435355 -0.76326,0.836125 -0.0486,0.18032 -0.0535,0.361237 -0.0233,0.533817 l -18.39371,5.00848 c -0.1324,-0.35252 -0.42321,-0.639232 -0.81081,-0.751892 l 7.65742,-39.676131 c 0.19196,0.03345 0.38216,0.01903 0.55965,-0.03359 z m 14.79807,4.708757 25.38294,6.839892 c -0.0555,0.320284 0.019,0.637324 0.18966,0.893486 l -10.4929,8.478035 v -5.16e-4 l -15.3014,-15.83676 c 0.0935,-0.10849 0.16975,-0.233762 0.2217,-0.374137 z m -0.38603,0.5333 15.28744,15.821774 -16.55609,13.377995 c -0.15641,-0.18477 -0.36856,-0.325925 -0.62012,-0.393775 -0.0177,-0.005 -0.0354,-0.0071 -0.0532,-0.01137 l 0.72864,-16.883724 0.5023,-11.640633 c 0.26222,-0.0129 0.51044,-0.109716 0.71106,-0.270268 z m 26.10074,7.377328 c 0.15004,0.153795 0.34088,0.272018 0.56327,0.331763 0.0603,0.01616 0.11969,0.02623 0.17983,0.03307 L 286.613,70.02415 c -0.25188,0.0185 -0.491,0.113544 -0.6842,0.269234 L 275.79505,59.805135 Z m -10.65413,8.609294 10.1477,10.502718 c -0.1173,0.13558 -0.20736,0.297771 -0.25735,0.482141 -0.0293,0.10853 -0.042,0.217285 -0.0408,0.325045 l -26.28676,2.507857 c -0.0236,-0.14791 -0.0735,-0.289296 -0.14677,-0.417546 z m 9.87071,11.536246 c 0.0196,0.10198 0.0503,0.200053 0.0946,0.293522 l -20.9579,12.282972 -5.85183,-9.1705 c 0.17839,-0.15546 0.31414,-0.363705 0.38033,-0.609265 0.0258,-0.096 0.0385,-0.191941 0.0413,-0.287321 l 15.96492,-1.523938 z m 0.20877,0.489893 c 0.0517,0.0719 0.11148,0.137494 0.17777,0.197404 l -14.89521,19.986377 c -0.0921,-0.0537 -0.19209,-0.09722 -0.30076,-0.126607 -0.31468,-0.0846 -0.63365,-0.03861 -0.90072,0.103869 l -5.03019,-7.882206 z m 0.36019,0.33383 c 0.0664,0.0405 0.1373,0.07521 0.2129,0.103353 l -5.23068,30.436899 -9.6976,-8.878525 c 0.093,-0.12391 0.16583,-0.266398 0.20825,-0.425298 0.12807,-0.472049 -0.0386,-0.953877 -0.38499,-1.254187 z m -29.65659,2.195214 -16.09359,6.87865 -2.00143,-1.224214 c 0.0344,-0.0702 0.0631,-0.144436 0.0842,-0.222726 h -5.1e-4 c 0.0487,-0.18013 0.0537,-0.361764 0.0232,-0.534334 z m 0.47594,0.04444 v 5.17e-4 c 0.15572,0.28726 0.42342,0.512814 0.76378,0.604614 l 0.0119,0.0021 -3.39824,13.569715 c -0.44762,-0.0574 -0.88349,0.134872 -1.14515,0.485241 l -12.56306,-7.682218 z m 1.71101,0.47594 5.8415,9.152413 -9.1643,5.370215 c -0.12232,-0.35598 -0.40743,-0.648769 -0.7891,-0.771529 l 3.40186,-13.58315 c 0.25315,0.01759 0.49971,-0.04414 0.71004,-0.167949 z m -20.40186,5.328357 1.86345,1.139465 -17.95756,7.675501 14.12266,-8.806698 c 0.15962,0.21013 0.38637,0.371491 0.66094,0.445451 0.50291,0.1356 1.01666,-0.0602 1.31051,-0.453719 z m 2.10272,1.286226 12.70051,7.766452 c -0.0343,0.0702 -0.0625,0.144425 -0.0837,0.222725 -0.0182,0.0679 -0.0293,0.136302 -0.0357,0.204122 l -30.86633,-0.08733 c -0.008,-0.0916 -0.0263,-0.181464 -0.0543,-0.267684 z m 24.2626,2.730066 5.03587,7.892025 c -0.19819,0.15867 -0.35054,0.378192 -0.4222,0.641821 h 5.2e-4 l -10e-4,0.0021 -1.2392,-0.208773 -12.75116,-2.145606 c 0.0487,-0.0868 0.0885,-0.179896 0.11576,-0.280086 0.0444,-0.1654 0.0528,-0.33246 0.0305,-0.49196 z m -42.54883,5.603276 30.86634,0.08733 c 0.0258,0.28573 0.15019,0.551769 0.3483,0.753959 L 241.20802,105.01581 221.82625,90.500936 c 0.0605,-0.0987 0.10844,-0.207118 0.14005,-0.324528 0.0183,-0.0679 0.0292,-0.136422 0.0357,-0.204122 z m -0.31264,0.710551 19.37143,14.507122 -7.52564,8.90023 c -0.11402,-0.0797 -0.24291,-0.14252 -0.38499,-0.18086 -0.2568,-0.069 -0.51587,-0.0512 -0.74776,0.0346 L 221.40664,90.914864 c 0.10469,-0.06247 0.19999,-0.140947 0.28267,-0.232026 z m 33.33957,0.07493 12.85296,2.162658 1.24489,0.209807 c -0.031,0.404079 0.13891,0.79102 0.44183,1.04283 l -4.88549,7.451737 -10.02885,-10.57506 c 0.14129,-0.0722 0.26841,-0.171352 0.37466,-0.291972 z m -1.63815,0.203088 c 0.11415,0.0796 0.24302,0.142758 0.38499,0.180868 0.0295,0.008 0.0597,0.01252 0.0894,0.01912 l 1.43609,23.474016 c -0.28031,0.0434 -0.53659,0.18287 -0.72657,0.39171 l -13.18369,-9.8733 z m 1.03353,0.177767 10.13065,10.682557 -8.4863,12.94287 c -0.0805,-0.0427 -0.16616,-0.078 -0.25735,-0.10231 -0.0945,-0.0256 -0.18914,-0.0382 -0.28319,-0.0413 l -1.43299,-23.437325 c 0.11215,-1.2e-4 0.22345,-0.01464 0.32918,-0.04444 z m 16.76332,2.999817 9.8056,8.97775 -2.11615,12.30984 c -0.13825,-0.0101 -0.27508,0.002 -0.40514,0.0362 l -7.60935,-21.110853 c 0.11871,-0.0532 0.22788,-0.125677 0.32504,-0.212907 z m -1.4304,0.163814 c 0.0865,0.048 0.1792,0.08797 0.27957,0.115239 0.20687,0.0558 0.41583,0.05545 0.60978,0.0078 l 7.6109,21.113957 c -0.0849,0.04 -0.16474,0.0905 -0.23874,0.14831 L 264.8443,101.79482 Z m -5.04104,7.688416 13.13718,13.85291 c -0.12033,0.13784 -0.21325,0.30325 -0.26458,0.49144 -0.0142,0.0556 -0.0237,0.11082 -0.0315,0.16536 l -20.83491,-0.7183 c -0.0199,-0.35058 -0.19013,-0.67634 -0.46302,-0.894 z m -23.47298,3.33623 13.19506,9.88157 c -0.0603,0.0988 -0.10903,0.20718 -0.14056,0.32453 -0.0145,0.056 -0.0245,0.11089 -0.0315,0.1664 l -20.20548,-0.67025 c -0.0178,-0.29974 -0.14473,-0.58074 -0.3514,-0.79168 z m -7.19026,9.92963 20.20497,0.67076 c 0.0167,0.28024 0.12837,0.54343 0.31212,0.74931 l -12.51396,13.46223 c -0.1321,-0.10892 -0.28743,-0.19173 -0.46251,-0.23875 -0.27424,-0.074 -0.55128,-0.0488 -0.79478,0.0522 l -7.29568,-13.81776 c 0.24544,-0.16 0.43603,-0.40645 0.51831,-0.71158 0.0146,-0.0558 0.0244,-0.11085 0.0315,-0.1664 z m 22.66115,0.75396 20.8349,0.71779 c 0.005,0.0907 0.0215,0.17986 0.046,0.26561 l -19.34249,7.48172 -2.29288,-7.48017 c 0.34292,-0.14148 0.61885,-0.4341 0.72295,-0.8201 0.0151,-0.0549 0.0248,-0.10973 0.0315,-0.16485 z m -1.97714,0.82217 c 0.12456,0.0961 0.27009,0.17022 0.43201,0.21394 0.19389,0.0523 0.38927,0.0544 0.57258,0.0155 l 2.29753,7.49515 -15.63367,6.04717 c -0.0476,-0.11014 -0.11038,-0.21304 -0.18707,-0.30489 z m 22.94071,0.37414 c 0.10035,0.20167 0.25368,0.37527 0.45062,0.49816 l -13.20953,26.28832 c -0.0419,-0.0163 -0.0849,-0.0311 -0.1297,-0.0434 -0.19297,-0.0516 -0.38845,-0.0532 -0.57155,-0.015 l -5.89834,-19.2412 z m -19.57089,7.56956 5.89318,19.22467 c -0.20777,0.0853 -0.39021,0.22668 -0.52504,0.41083 L 242.3449,131.69945 c 0.0509,-0.0879 0.0916,-0.18357 0.11937,-0.28628 0.0535,-0.20075 0.0546,-0.40282 0.0119,-0.59221 z m -15.89206,7.1112 21.14135,12.71912 c -0.0321,0.0682 -0.0594,0.13964 -0.0796,0.21497 -0.093,0.34226 -0.0308,0.68948 0.14314,0.96997 l -5.89525,4.44469 -15.42231,-18.23145 c 0.0407,-0.0359 0.0775,-0.0756 0.11265,-0.1173 z m -0.29507,0.25425 15.4218,18.23144 -14.54278,10.96832 c -0.15099,-0.16189 -0.3474,-0.28535 -0.57671,-0.34726 -0.0866,-0.0229 -0.17169,-0.0361 -0.25787,-0.0403 L 241.3863,132.3201 c 0.19148,-0.0172 0.3736,-0.0794 0.5333,-0.17828 z m 21.63641,13.83119 c 0.15329,0.16849 0.35461,0.29865 0.59117,0.36225 0.15958,0.043 0.32063,0.0516 0.47543,0.032 l 3.49642,15.83883 c -0.1174,0.0379 -0.22879,0.0926 -0.33072,0.1633 l -10.1167,-11.95896 z m 1.4304,0.28991 8.75915,15.0859 h -5.1e-4 c -0.2251,0.16048 -0.39837,0.39706 -0.47646,0.68471 -0.0372,0.14038 -0.048,0.28078 -0.0372,0.41755 l -3.54448,0.61081 c -0.11119,-0.41125 -0.43042,-0.75376 -0.87023,-0.8723 -0.1596,-0.0431 -0.32094,-0.0516 -0.47543,-0.0326 l -3.49642,-15.83831 c 0.0486,-0.0158 0.0958,-0.0342 0.14159,-0.0558 z m -7.49722,4.28501 10.12548,11.96878 c -0.14427,0.14712 -0.25371,0.33122 -0.31161,0.54363 -0.0136,0.051 -0.0232,0.10191 -0.0305,0.15193 l -19.28151,-0.87023 -4.85706,-0.21859 c -0.0121,-0.21744 -0.0801,-0.42409 -0.19482,-0.60255 z m -14.36605,11.80289 24.13858,1.08883 c 0.003,0.0704 0.0138,0.13902 0.0279,0.20619 l -22.15265,7.05538 -2.72335,-7.39128 c 0.3228,-0.14685 0.58004,-0.43127 0.67954,-0.8015 0.0142,-0.0518 0.0233,-0.10444 0.03,-0.15762 z m 30.147,0.32402 c 0.068,0.25309 0.21505,0.48006 0.42065,0.64492 l -3.05821,4.64622 -1.53893,-3.50469 c 0.28212,-0.15706 0.5038,-0.4224 0.59376,-0.75861 0.0378,-0.1393 0.0489,-0.28006 0.0383,-0.41703 z m -32.2218,0.40617 c 0.14449,0.13818 0.32354,0.24279 0.53071,0.29817 0.2099,0.0575 0.4216,0.0556 0.61805,0.006 l 2.72232,7.38456 -18.29139,5.82548 c -0.039,-0.11971 -0.0967,-0.23165 -0.16898,-0.33331 z m 32.83313,0.36277 c 0.0815,0.0433 0.16708,0.0785 0.2589,0.10387 0.10527,0.0284 0.21083,0.0411 0.31523,0.0419 l 1.39061,15.8197 c -0.0578,0.0111 -0.11457,0.0245 -0.16898,0.0424 v -5.2e-4 l -4.93458,-11.23652 z m -6.52208,0.41961 c 0.0995,0.23535 0.27164,0.4379 0.49661,0.57464 l -8.16642,16.8243 -5.63997,11.61996 c -0.037,-0.0132 -0.0747,-0.0257 -0.11369,-0.0362 -0.21744,-0.0588 -0.43621,-0.0546 -0.63924,-5.2e-4 l -8.08167,-21.93044 z m 0.70125,0.67386 c 0.0374,0.0147 0.0751,0.0269 0.11317,0.0367 0.24371,0.0655 0.48883,0.0543 0.71159,-0.0207 l 1.59783,3.63957 -16.00161,24.31997 11.24428,-23.16448 z m 2.53266,3.90416 4.87516,11.10216 c -0.28148,0.15618 -0.50331,0.42191 -0.59325,0.7581 -0.0804,0.29645 -0.0446,0.59662 0.0786,0.85369 l -20.34139,12.15481 c -0.0644,-0.0874 -0.14009,-0.16757 -0.22686,-0.23616 z m -25.59533,2.543 8.08581,21.94077 c -0.18251,0.0876 -0.34328,0.21844 -0.46509,0.38499 l -26.14466,-15.63057 c 0.077,-0.11175 0.13747,-0.23727 0.17467,-0.37568 0.0441,-0.16307 0.0525,-0.32836 0.0315,-0.48576 z m -18.6707,6.87296 26.17515,15.64814 c -0.0324,0.0667 -0.0594,0.13785 -0.0801,0.21187 -0.049,0.18497 -0.053,0.37227 -0.0202,0.54829 l -16.13648,4.60747 -10.3172,-20.75894 c 0.1399,-0.0609 0.26879,-0.14838 0.37879,-0.25683 z m -0.59841,0.32918 10.31306,20.75119 -11.02671,3.14761 c -0.12695,-0.38039 -0.43488,-0.69201 -0.85008,-0.80357 -0.0807,-0.0214 -0.16162,-0.0348 -0.24081,-0.0408 l 0.5705,-9.04493 0.88109,-13.98158 c 0.12018,0.008 0.23867,-0.002 0.35295,-0.0279 z m 49.3329,3.16932 -19.13165,16.85426 -1.64434,-3.13624 c 0.24749,-0.16005 0.43866,-0.40722 0.52142,-0.71468 0.0797,-0.29555 0.0441,-0.59612 -0.0791,-0.85318 z m 0.15762,0.16484 c 0.0442,0.042 0.0919,0.0791 0.14107,0.11421 l -14.12265,24.85636 v 5.2e-4 c -0.0594,-0.027 -0.12065,-0.0516 -0.18603,-0.0687 -0.2727,-0.0742 -0.54855,-0.0481 -0.79117,0.0517 l -4.22145,-8.05739 z m -22.75417,12.96459 c 0.0742,0.19106 0.19416,0.36032 0.35192,0.49402 l -10.20145,14.56862 c -0.054,-0.0229 -0.10808,-0.0436 -0.16588,-0.0594 -0.30148,-0.0813 -0.60724,-0.0417 -0.8661,0.0858 l -5.2157,-10.49342 z m 0.53795,0.62528 c 0.0899,0.051 0.18567,0.0925 0.28939,0.12092 0.27338,0.0733 0.54855,0.0481 0.79117,-0.0517 l 1.66914,3.18533 -12.87104,11.33833 c -0.0205,-0.0165 -0.0428,-0.0319 -0.0651,-0.046 z" />
    <path
       id="path3"
       style="display:inline;opacity:0.188;fill:#ffffff;fill-opacity:1;fill-rule:nonzero;stroke:none;stroke-width:0.0113996"
       inkscape:label="Network Orig"
       d="m 31.878674,0 c -0.239838,0.15998909 -0.426806,0.40081113 -0.506945,0.70124919 -0.17791,0.65822941 0.212188,1.33613291 0.870747,1.51360271 0.0697,0.0189 0.138743,0.029173 0.208773,0.036173 l 0.577226,28.6411461 c -0.4786,0.0642 -0.894014,0.407637 -1.027844,0.902787 -0.10063,0.373649 -0.01908,0.751967 0.190686,1.043348 L 17.600993,46.019413 c -0.14391,-0.139007 -0.324024,-0.244363 -0.531234,-0.299723 -0.658239,-0.17791 -1.335693,0.213028 -1.513603,0.871265 -0.177009,0.658899 0.212519,1.335682 0.870748,1.513602 l 0.01447,0.0031 -0.950847,15.091068 -0.502295,7.979358 c -0.485259,0.0579 -0.90968,0.403135 -1.04438,0.903304 -0.1779,0.65823 0.211858,1.336593 0.870748,1.513603 0.512079,0.13781 1.034117,-0.06715 1.324467,-0.474906 l 16.104443,7.119462 c -0.005,0.0162 -0.0114,0.03281 -0.0155,0.04961 -0.17698,0.658909 0.211819,1.336603 0.870748,1.513603 0.658229,0.17791 1.336613,-0.211839 1.513603,-0.870748 0.0419,-0.15623 0.05149,-0.312888 0.03359,-0.465088 l 16.181442,-2.613277 c 0.107809,0.415859 0.429428,0.76308 0.873848,0.88315 0.658754,0.176958 1.33549,-0.212263 1.513603,-0.870231 v -5.17e-4 c 0.139341,-0.51623 -0.0718,-1.043674 -0.487309,-1.332735 L 66.851733,51.676432 c 0.0594,0.027 0.121172,0.05163 0.186552,0.06873 0.65824,0.17791 1.335693,-0.213025 1.513603,-0.871265 0.17699,-0.658909 -0.212509,-1.335673 -0.870748,-1.513602 -0.1053,-0.0282 -0.211323,-0.04013 -0.315743,-0.04082 L 65.974268,33.498214 c 0.454209,-0.083 0.843313,-0.417116 0.972033,-0.891936 0.17698,-0.658889 -0.213192,-1.337206 -0.871781,-1.514636 -0.29093,-0.0783 -0.585966,-0.04524 -0.839225,0.07286 L 56.476656,16.078088 c 0.2251,-0.160449 0.398874,-0.396556 0.476974,-0.684196 0.0836,-0.312359 0.03911,-0.628172 -0.100253,-0.894002 L 79.247876,0 H 78.829297 L 56.729354,14.309204 v 5.17e-4 c -0.0869,-0.11062 -0.19217,-0.208241 -0.31471,-0.284221 L 63.461759,0 h -0.254764 l -6.995956,13.923181 c -0.0419,-0.0163 -0.08436,-0.03111 -0.129191,-0.04341 h -5.17e-4 c -0.192969,-0.0516 -0.388441,-0.05319 -0.571541,-0.01499 L 51.259403,0 h -0.237711 l 4.27054,13.930933 c -0.20777,0.0853 -0.390202,0.226161 -0.525032,0.41031 L 33.637223,1.6288411 c 0.0509,-0.0879 0.09158,-0.1830607 0.119373,-0.2857706 0.0535,-0.2007498 0.05458,-0.40282213 0.01188,-0.59221194 L 35.709965,0 H 35.077962 L 33.697685,0.53381755 C 33.650085,0.42367766 33.587306,0.32129327 33.510616,0.22944336 L 33.72404,0 h -0.311609 l -0.06408,0.06872965 C 33.310417,0.03745077 33.257235,0.02679604 33.215544,0 Z m 1.628325,1.8169434 21.141345,12.7191206 c -0.0321,0.0682 -0.05938,0.139644 -0.07958,0.214974 -0.093,0.342259 -0.03079,0.689477 0.143144,0.969966 L 48.816659,20.165694 33.394861,1.9342489 c 0.0407,-0.0359 0.077,-0.075656 0.112138,-0.1173055 z M 33.211926,2.0717082 48.633724,20.302637 34.090942,31.270959 c -0.150989,-0.161889 -0.347399,-0.285355 -0.576709,-0.347265 -0.0866,-0.0229 -0.171685,-0.03611 -0.257865,-0.04031 L 32.678625,2.2494751 c 0.19148,-0.0172 0.373601,-0.078837 0.533301,-0.1777669 z M 54.848332,15.902905 c 0.15329,0.16849 0.355135,0.298135 0.591695,0.361735 0.15958,0.043 0.320106,0.05216 0.474906,0.03256 l 3.496428,15.83831 c -0.1174,0.0379 -0.2288,0.09314 -0.330729,0.163814 L 48.963936,20.339844 Z m 1.430403,0.289905 8.759156,15.085901 h -5.17e-4 c -0.2251,0.16048 -0.398367,0.397063 -0.476457,0.684713 -0.0372,0.14038 -0.04801,0.281292 -0.03721,0.418062 l -3.544486,0.610299 c -0.11119,-0.41125 -0.430422,-0.753759 -0.870231,-0.872299 -0.1596,-0.0431 -0.320934,-0.05156 -0.475424,-0.03256 L 56.137142,16.248621 c 0.0486,-0.0158 0.09584,-0.03421 0.141593,-0.05581 z m -7.497216,4.284493 10.12548,11.968779 c -0.14427,0.147119 -0.253709,0.331226 -0.311609,0.543636 -0.0136,0.051 -0.02319,0.102425 -0.03049,0.152445 L 39.28339,32.271415 34.426322,32.052824 c -0.0121,-0.21744 -0.08015,-0.424087 -0.19482,-0.602547 z M 34.41547,32.2802 58.554049,33.369539 c 0.003,0.0704 0.0138,0.138503 0.02791,0.205673 l -22.152653,7.055383 -2.723348,-7.39128 c 0.3228,-0.14685 0.580045,-0.431272 0.679545,-0.801502 0.0142,-0.0518 0.02327,-0.104433 0.02997,-0.157613 z m 30.146997,0.324528 c 0.068,0.2531 0.215047,0.479545 0.420647,0.644405 l -3.058212,4.646228 -1.538924,-3.504179 c 0.28212,-0.157059 0.503802,-0.4224 0.593762,-0.75861 0.0378,-0.139299 0.04884,-0.280575 0.03824,-0.417545 z m -32.221805,0.40566 v 5.17e-4 c 0.144489,0.13818 0.323547,0.242276 0.530717,0.297656 0.209899,0.0575 0.4216,0.0556 0.61805,0.0062 l 2.722314,7.384563 -18.29139,5.825484 c -0.039,-0.11971 -0.09675,-0.231653 -0.168982,-0.333313 z M 65.1738,33.373157 c 0.0815,0.0433 0.167079,0.07853 0.258899,0.103869 0.105269,0.0284 0.210826,0.04106 0.315226,0.04186 l 1.390613,15.819706 c -0.0578,0.0111 -0.114572,0.02447 -0.168982,0.04237 l -4.934583,-11.23704 z m -6.522083,0.420129 c 0.0995,0.23535 0.271641,0.437375 0.496611,0.574125 l -8.166427,16.824296 -5.639966,11.62048 c -0.037,-0.0132 -0.07473,-0.02567 -0.113688,-0.03617 -0.21744,-0.0588 -0.436208,-0.05458 -0.639237,-5.17e-4 L 36.507332,40.844535 Z m 0.701249,0.673344 c 0.0374,0.0147 0.07506,0.02689 0.113172,0.03669 0.243709,0.0655 0.488824,0.05433 0.711584,-0.02067 L 61.775557,38.122738 45.77395,62.4427 57.018225,39.277706 Z m 2.532662,3.904671 4.875155,11.102165 c -0.28148,0.15618 -0.503306,0.421387 -0.593246,0.757576 -0.0804,0.29645 -0.04465,0.597142 0.07855,0.854212 L 45.904692,63.239551 c -0.0644,-0.0874 -0.14009,-0.167055 -0.22686,-0.235645 z m -25.595337,2.542481 8.085812,21.940779 c -0.18251,0.0876 -0.343278,0.21844 -0.465088,0.38499 L 17.766357,47.60898 c 0.077,-0.11175 0.137467,-0.237277 0.174667,-0.375687 0.0441,-0.16307 0.05252,-0.327842 0.03152,-0.485242 z m -18.670695,6.872965 26.175147,15.648657 c -0.0324,0.0667 -0.0594,0.137337 -0.0801,0.211357 -0.049,0.18497 -0.05295,0.372267 -0.02015,0.548287 L 27.55801,68.802519 17.24081,48.044096 c 0.139898,-0.06089 0.268791,-0.1489 0.378788,-0.257349 z m -0.598413,0.329179 10.313066,20.751188 -11.026717,3.147612 c -0.12695,-0.38039 -0.434878,-0.692009 -0.850078,-0.803569 -0.0807,-0.0214 -0.161622,-0.03482 -0.240812,-0.04082 l 0.570508,-9.044926 0.881083,-13.981059 c 0.12018,0.008 0.23867,-0.0021 0.35295,-0.02842 z m 49.332906,3.169832 -19.131648,16.854269 -1.644344,-3.13676 c 0.247489,-0.160049 0.438655,-0.407225 0.521415,-0.714685 0.0797,-0.295549 0.04414,-0.595601 -0.07906,-0.852661 z m 0.157613,0.164848 c 0.0442,0.042 0.09194,0.07854 0.141077,0.113688 L 52.530127,76.421175 c -0.0594,-0.027 -0.120655,-0.05111 -0.186035,-0.06821 -0.2727,-0.0742 -0.548547,-0.04864 -0.791166,0.05116 L 47.331478,68.346733 Z M 43.757536,64.414673 c 0.0742,0.19106 0.194156,0.360843 0.351916,0.494543 L 33.908008,79.477319 c -0.054,-0.0229 -0.108082,-0.04311 -0.165882,-0.05891 -0.301479,-0.0813 -0.607237,-0.04223 -0.866097,0.08527 L 27.660327,69.010775 Z m 0.537951,0.625801 c 0.0899,0.051 0.185669,0.09194 0.289388,0.120407 0.27338,0.0733 0.548547,0.04864 0.791167,-0.05116 l 1.669148,3.184818 -12.871049,11.338843 h -5.16e-4 c -0.02041,-0.0164 -0.04241,-0.03248 -0.0646,-0.04651 z m 2.859774,3.462321 4.196127,8.007264 c -0.24749,0.160049 -0.438809,0.407091 -0.520899,0.713651 -0.0367,0.13589 -0.04847,0.272053 -0.03927,0.405143 l -16.19281,2.615861 c -0.0521,-0.169089 -0.138955,-0.323952 -0.256315,-0.454752 z m -19.717659,0.571542 5.242574,10.549743 c -0.14227,0.10602 -0.261799,0.243287 -0.348299,0.406177 l -16.076538,-7.10706 c 0.0288,-0.0639 0.05386,-0.128777 0.07286,-0.198437 0.0438,-0.16467 0.05292,-0.329849 0.03152,-0.488859 z" />
  </g>
  <g
     inkscape:groupmode="layer"
     id="layer6"
     inkscape:label="Colors"
     style="display:inline;opacity:1;mix-blend-mode:normal"
     transform="translate(-5e-5,-43.97153)">
    <path
       id="path28"
       style="fill:#9f0924;fill-opacity:1;stroke-width:0;paint-order:fill markers stroke"
       d="m 94.373931,130.84676 c 3.295852,0 6.591699,0 9.887549,0 7.2373,-12.53839 14.47459,-25.07678 21.71188,-37.61517 -1.64792,-2.85338 -3.29585,-5.70675 -4.94378,-8.560122 -8.88522,15.391762 -17.77043,30.783522 -26.655649,46.175292 z"
       inkscape:label="Dark Red" />
    <path
       id="path27"
       style="fill:#f40e38;fill-opacity:1;stroke-width:0;paint-order:fill markers stroke"
       d="m 94.368753,131.78407 c 8.887517,15.39062 17.775037,30.78123 26.662557,46.17184 1.64735,-2.85396 3.2947,-5.7079 4.94205,-8.56185 -7.23902,-12.53724 -14.47804,-25.07448 -21.71706,-37.61172 -3.29585,5.8e-4 -6.591695,8.9e-4 -9.887547,0.002 z"
       inkscape:label="Red" />
    <path
       id="path26"
       style="fill:#fb970a;fill-opacity:1;stroke-width:0;paint-order:fill markers stroke"
       d="m 126.78467,169.8653 c -1.64794,2.85395 -3.29586,5.70791 -4.94378,8.56185 17.77273,-0.002 35.54548,-0.004 53.31821,-0.005 -1.64734,-2.85337 -3.29469,-5.70675 -4.94204,-8.56012 -14.47747,8.9e-4 -28.95493,0.003 -43.43239,0.004 z"
       inkscape:label="Orange" />
    <path
       id="path25"
       style="fill:#ffcc07;fill-opacity:1;stroke-width:0;paint-order:fill markers stroke"
       d="m 171.02663,169.39406 c 1.64735,2.85338 3.29471,5.70675 4.94206,8.56012 8.88637,-15.39119 17.77273,-30.78238 26.6591,-46.17356 -3.29585,0 -6.5917,0 -9.88755,0 -7.23787,12.53781 -14.47574,25.07562 -21.71361,37.61344 z"
       inkscape:label="Yellow" />
    <path
       id="path24"
       style="fill:#07f432;fill-opacity:1;stroke-width:0;paint-order:fill markers stroke"
       d="m 171.02663,93.23159 c 7.23787,12.53781 14.47574,25.07563 21.71361,37.61344 3.29585,0 6.5917,0 9.88755,0 -8.88637,-15.39119 -17.77273,-30.78237 -26.6591,-46.173562 -1.64735,2.853372 -3.29471,5.706742 -4.94206,8.560122 z"
       inkscape:label="Green" />
    <path
       id="path23"
       style="fill:#0966f2;fill-opacity:1;stroke-width:0;paint-order:fill markers stroke"
       d="m 126.78293,92.76379 c 14.47804,0 28.95609,0 43.43413,0 1.64735,-2.85337 3.2947,-5.706742 4.94204,-8.560116 -17.77273,0 -35.54548,0 -53.31821,0 1.64735,2.853374 3.2947,5.706746 4.94204,8.560116 z"
       inkscape:label="Blue" />
  </g>
  <g
     inkscape:groupmode="layer"
     id="g39"
     inkscape:label="Colors Effects"
     style="display:inline"
     transform="translate(-5e-5,-43.97153)">
    <path
       id="path34"
       style="fill:#9f2c3c;fill-opacity:1;stroke-width:0;paint-order:fill markers stroke"
       d="m 94.373931,130.84676 h 9.887549 l 21.71188,-37.61517 z"
       inkscape:label="Dark Red"
       sodipodi:nodetypes="cccc" />
    <path
       id="path35"
       style="fill:#f44162;fill-opacity:1;stroke-width:0;paint-order:fill markers stroke"
       d="m 121.03131,177.95591 c 1.64735,-2.85396 3.2947,-5.7079 4.94205,-8.56185 -7.23902,-12.53724 -14.47804,-25.07448 -21.71706,-37.61172 z"
       inkscape:label="Red"
       sodipodi:nodetypes="cccc" />
    <path
       id="path36"
       style="fill:#fbb044;fill-opacity:1;stroke-width:0;paint-order:fill markers stroke"
       d="m 126.78467,169.8653 48.37443,8.55655 c -1.64734,-2.85337 -3.29469,-5.70675 -4.94204,-8.56012 -14.47747,8.9e-4 -28.95493,0.003 -43.43239,0.004 z"
       inkscape:label="Orange"
       sodipodi:nodetypes="ccccc" />
    <path
       id="path37"
       style="fill:#ffd533;fill-opacity:1;stroke-width:0;paint-order:fill markers stroke"
       d="m 171.02663,169.39406 31.60116,-37.61344 h -9.88755 c -7.23787,12.53781 -14.47574,25.07562 -21.71361,37.61344 z"
       inkscape:label="Yellow"
       sodipodi:nodetypes="cccc" />
    <path
       id="path38"
       style="fill:#5af476;fill-opacity:1;stroke-width:0;paint-order:fill markers stroke"
       d="m 171.02663,93.23159 c 7.23787,12.53781 14.47574,25.07563 21.71361,37.61344 L 175.96869,84.671468 c -1.64735,2.853372 -3.29471,5.706742 -4.94206,8.560122 z"
       inkscape:label="Green"
       sodipodi:nodetypes="cccc" />
    <path
       id="path39"
       style="mix-blend-mode:normal;fill:#1972f2;fill-opacity:1;stroke-width:0;paint-order:fill markers stroke"
       d="m 126.78293,92.76379 h 43.43413 l -48.37617,-8.560116 c 1.64735,2.853374 3.2947,5.706746 4.94204,8.560116 z"
       inkscape:label="Blue"
       sodipodi:nodetypes="cccc" />
  </g>
  <g
     inkscape:groupmode="layer"
     id="layer7"
     inkscape:label="Text">
    <path
       d="m 148.67916,94.653985 q -0.25833,0 -0.47792,-0.08719 -0.21958,-0.08719 -0.38104,-0.238958 -0.16146,-0.155 -0.25187,-0.368126 -0.0904,-0.213125 -0.0904,-0.465 0,-0.251875 0.0904,-0.465001 0.0904,-0.213125 0.25187,-0.364896 0.16146,-0.155 0.38104,-0.242188 0.22282,-0.08719 0.48115,-0.08719 0.27125,0 0.49406,0.09365 0.22604,0.09042 0.38104,0.27125 l -0.23895,0.2325 q -0.24865,-0.268021 -0.62,-0.268021 -0.18407,0 -0.33907,0.06135 -0.155,0.06136 -0.27125,0.174376 -0.11302,0.109791 -0.1776,0.261562 -0.0614,0.151771 -0.0614,0.332605 0,0.180833 0.0614,0.332604 0.0646,0.151771 0.1776,0.264792 0.11625,0.109792 0.27125,0.171146 0.155,0.06136 0.33907,0.06136 0.37135,0 0.62,-0.271251 l 0.23895,0.232501 q -0.155,0.184062 -0.38104,0.277708 -0.22281,0.09042 -0.49729,0.09042 z m 0.43916,1.714688 v -0.952605 h 0.36813 v 2.260419 h -0.36813 v -0.988126 h -1.23677 v 0.988126 h -0.36812 v -2.260419 h 0.36812 v 0.952605 z m -1.37723,3.025735 h 1.62104 v 0.31323 h -1.62104 z m 0,-0.955834 h 1.62104 v 0.319688 h -1.62104 z m 0,2.260416 h 1.62104 v -0.31968 h -1.62104 z m -0.0646,3.02251 h -0.38104 l 1.02042,-2.26042 h 0.3649 l 1.02364,2.26042 h -0.3875 l -0.82021,-1.88584 z m 0.63938,3.0225 v -1.94073 h -0.76208 v -0.31968 h 1.89229 v 0.31968 H 148.684 v 1.94073 z"
       id="text63"
       style="font-weight:600;font-size:3.22917px;line-height:1.2;font-family:Montserrat-Alt1;-inkscape-font-specification:'Montserrat-Alt1 Semi-Bold';text-align:center;writing-mode:tb-rl;text-orientation:upright;text-anchor:middle;fill:#ffffff;stroke-width:0;paint-order:fill markers stroke"
       inkscape:label="Cheat"
       aria-label="CHEAT " />
    <path
       d="m 116.75104,76.584569 h 8.7437 q 2.16241,0 3.85474,0.532769 1.72367,0.53277 2.91457,1.535631 1.19089,1.002861 1.81768,2.444473 0.65813,1.410273 0.65813,3.227958 0,1.786346 -0.65813,3.227958 -0.62679,1.441613 -1.81768,2.444474 -1.1909,0.971521 -2.91457,1.504291 -1.69233,0.532769 -3.85474,0.532769 h -5.20234 v 6.487256 h -3.5727 v -9.589856 h 8.64968 q 2.85188,0 4.2935,-1.190897 1.47295,-1.222237 1.47295,-3.415995 0,-2.225097 -1.47295,-3.415994 -1.44162,-1.222237 -4.2935,-1.222237 h -8.64968 z"
       id="text6"
       style="font-weight:600;font-size:31.3394px;line-height:1.2;font-family:Montserrat-Alt1;-inkscape-font-specification:'Montserrat-Alt1 Semi-Bold';text-align:center;text-orientation:upright;text-anchor:middle;fill:#ffffff;stroke-width:0;paint-order:fill markers stroke"
       inkscape:label="P"
       aria-label="P" />
    <path
       id="text7"
       style="font-weight:600;font-size:50.8px;line-height:1.2;font-family:Montserrat-Alt1;-inkscape-font-specification:'Montserrat-Alt1 Semi-Bold';text-align:center;writing-mode:lr-tb;text-orientation:upright;text-anchor:middle;fill:#ffffff;fill-opacity:1;stroke-width:0;paint-order:fill markers stroke"
       d="m 148.51575,76.584655 c -1.69233,0 -3.2594,0.281721 -4.70101,0.845835 -1.42071,0.564105 -2.66402,1.347871 -3.72955,2.350732 -1.04465,1.002861 -1.85936,2.193981 -2.44436,3.572909 -0.585,1.378937 -0.87735,2.872565 -0.87735,4.481319 0,1.60876 0.29235,3.10284 0.87735,4.48177 0.58501,1.37894 1.39971,2.56959 2.44436,3.57245 1.06553,1.00286 2.30884,1.78616 3.72955,2.35027 0.81964,0.32073 1.68018,0.55 2.58092,0.68828 v -3.28061 c -0.39066,-0.0919 -0.77152,-0.20739 -1.13951,-0.35305 -1.00286,-0.41786 -1.86976,-0.98224 -2.60101,-1.6926 -0.71036,-0.71034 -1.27474,-1.55646 -1.6926,-2.53843 -0.39697,-1.00286 -0.5951,-2.07897 -0.5951,-3.22808 0,-1.169998 0.19813,-2.246117 0.5951,-3.228085 0.41786,-0.981968 0.98224,-1.828077 1.6926,-2.538443 0.73125,-0.710358 1.59815,-1.264114 2.60101,-1.661083 1.00285,-0.417854 2.08959,-0.626617 3.2596,-0.626617 1.17,0 2.24566,0.208763 3.22762,0.626617 1.00286,0.396969 1.85961,0.950725 2.56996,1.661083 0.73124,0.710366 1.29517,1.556475 1.69214,2.538443 0.41786,0.981968 0.62707,2.058087 0.62707,3.228085 0,1.14911 -0.20921,2.22522 -0.62707,3.22808 -0.39697,0.98197 -0.9609,1.82809 -1.69214,2.53843 -0.71035,0.71036 -1.5671,1.27474 -2.56996,1.6926 -0.36605,0.14798 -0.74666,0.2643 -1.13905,0.35671 v 3.28014 c 0.90496,-0.13769 1.76557,-0.36773 2.58092,-0.69147 1.4416,-0.56411 2.68445,-1.34741 3.7291,-2.35027 1.04464,-1.00286 1.85981,-2.18335 2.44481,-3.54139 0.585,-1.37893 0.87736,-2.88318 0.87736,-4.51283 0,-1.629638 -0.29236,-3.123275 -0.87736,-4.481319 -0.585,-1.378928 -1.40017,-2.570048 -2.44481,-3.572909 -1.04465,-1.002861 -2.2875,-1.786627 -3.7291,-2.350732 -1.42073,-0.564114 -2.97717,-0.845835 -4.66949,-0.845835 z"
       inkscape:label="Q" />
    <path
       d="m 173.91829,98.804203 q -2.50716,0 -4.63824,-0.846164 -2.13107,-0.846164 -3.69804,-2.319116 -1.56697,-1.504291 -2.44448,-3.572691 -0.8775,-2.0684 -0.8775,-4.512874 0,-2.444473 0.8775,-4.512873 0.87751,-2.0684 2.44448,-3.541352 1.56697,-1.504291 3.69804,-2.350455 2.16242,-0.846164 4.66958,-0.846164 2.6325,0 4.79492,0.908843 2.19376,0.877503 3.69805,2.632509 l -2.31911,2.256437 q -2.41314,-2.60117 -6.01717,-2.60117 -1.78634,0 -3.29063,0.595448 -1.5043,0.595449 -2.63251,1.692328 -1.09688,1.065539 -1.72367,2.538491 -0.59545,1.472952 -0.59545,3.227958 0,1.755007 0.59545,3.227958 0.62679,1.472952 1.72367,2.569831 1.12821,1.06554 2.63251,1.660988 1.50429,0.595449 3.29063,0.595449 3.60403,0 6.01717,-2.63251 l 2.31911,2.256437 q -1.50429,1.786346 -3.69805,2.695189 -2.16242,0.877503 -4.82626,0.877503 z"
       id="text8"
       style="font-weight:600;font-size:31.3394px;line-height:1.2;font-family:Montserrat-Alt1;-inkscape-font-specification:'Montserrat-Alt1 Semi-Bold';text-align:center;text-orientation:upright;text-anchor:middle;fill:#ffffff;stroke-width:0;paint-order:fill markers stroke"
       inkscape:label="C"
       aria-label="C" />
  </g>
</svg>
