<?xml version="1.0" encoding="UTF-8" standalone="no"?>
<!-- Created with Inkscape (http://www.inkscape.org/) -->

<svg
   width="297mm"
   height="210mm"
   viewBox="0 0 1122.5197 793.70081"
   version="1.1"
   id="svg1"
   inkscape:version="1.3.2 (091e20ef0f, 2023-11-25, custom)"
   sodipodi:docname="Header.svg"
   inkscape:export-filename="Header.pdf"
   inkscape:export-xdpi="96"
   inkscape:export-ydpi="96"
   xmlns:inkscape="http://www.inkscape.org/namespaces/inkscape"
   xmlns:sodipodi="http://sodipodi.sourceforge.net/DTD/sodipodi-0.dtd"
   xmlns:xlink="http://www.w3.org/1999/xlink"
   xmlns="http://www.w3.org/2000/svg"
   xmlns:svg="http://www.w3.org/2000/svg">
  <sodipodi:namedview
     id="namedview1"
     pagecolor="#505050"
     bordercolor="#ffffff"
     borderopacity="1"
     inkscape:showpageshadow="0"
     inkscape:pageopacity="0"
     inkscape:pagecheckerboard="1"
     inkscape:deskcolor="#505050"
     inkscape:document-units="mm"
     inkscape:zoom="0.53810265"
     inkscape:cx="-196.98844"
     inkscape:cy="87.34393"
     inkscape:window-width="3440"
     inkscape:window-height="1412"
     inkscape:window-x="0"
     inkscape:window-y="0"
     inkscape:window-maximized="1"
     inkscape:current-layer="layer1" />
  <defs
     id="defs1">
    <linearGradient
       id="swatch50"
       inkscape:swatch="solid"
       inkscape:label="Background Very Dark">
      <stop
         style="stop-color:#202020;stop-opacity:1;"
         offset="0"
         id="stop50" />
    </linearGradient>
    <linearGradient
       inkscape:collect="always"
       xlink:href="#swatch50"
       id="linearGradient3"
       gradientUnits="userSpaceOnUse"
       gradientTransform="matrix(1.4142858,0,0,0.0675864,0,9e-5)"
       x1="0"
       y1="561.25983"
       x2="793.70081"
       y2="561.25983" />
    <linearGradient
       inkscape:collect="always"
       xlink:href="#swatch50"
       id="linearGradient1"
       gradientUnits="userSpaceOnUse"
       gradientTransform="matrix(1.4142858,0,0,0.0675864,6.7094512e-5,717.83385)"
       x1="0"
       y1="561.25983"
       x2="793.70081"
       y2="561.25983" />
  </defs>
  <g
     inkscape:label="Ebene 1"
     inkscape:groupmode="layer"
     id="layer1">
    <rect
       style="display:inline;fill:url(#linearGradient3);stroke-width:0;paint-order:fill markers stroke"
       id="rect3"
       width="1122.5197"
       height="75.867058"
       x="0"
       y="0"
       inkscape:label="Header" />
    <rect
       style="display:inline;fill:url(#linearGradient1);stroke-width:0;paint-order:fill markers stroke"
       id="rect3-9"
       width="1122.5197"
       height="75.867058"
       x="5.8125028e-05"
       y="717.83374"
       inkscape:label="Footer"
       sodipodi:insensitive="true" />
    <path
       id="path71"
       d="m 742.00571,399.84149 c -0.18062,-0.11467 -0.3658,-0.21988 -0.56829,-0.30749 -0.47909,-0.20456 -0.97489,-0.303 -1.46523,-0.30784 l -4.73364,-34.89565 34.20655,-11.25976 c 0.2587,0.47666 0.62062,0.89861 1.07573,1.23137 l -28.51513,45.5394 M 628.26784,333.76457 c 0.48098,-0.37708 0.87538,-0.87411 1.1332,-1.47689 0.26545,-0.61 0.35087,-1.2511 0.28854,-1.86676 l 23.53015,-5.01505 9.64487,57.88184 c -0.37928,0.0653 -0.74317,0.19117 -1.08233,0.36536 l -33.51443,-49.8885 m -92.9192,-14.44273 c 0.0313,-0.58689 -0.0767,-1.16436 -0.30627,-1.69071 l 61.88642,-38.70619 26.84063,48.78406 c -0.55487,0.38726 -1.01535,0.92678 -1.30265,1.59356 -0.10716,0.25188 -0.18472,0.50363 -0.23503,0.76263 l -86.88307,-10.74335 m -52.4078,16.79038 c -0.37701,-0.81241 -1.03966,-1.49621 -1.927,-1.8782 -0.16172,-0.0694 -0.32563,-0.12227 -0.49072,-0.16796 l 10.84376,-60.83824 c 0.85516,0.0717 1.70059,-0.15105 2.40369,-0.6166 l 35.27127,43.73392 c -0.38717,0.35222 -0.70683,0.78593 -0.92546,1.29515 -0.34358,0.79741 -0.38744,1.6463 -0.18805,2.42706 l -44.98754,16.04492 m -81.58026,25.59657 c -0.14342,-0.34447 -0.33833,-0.66675 -0.57835,-0.95676 l 52.34195,-52.27932 23.64457,26.65127 c -0.29081,0.31028 -0.53687,0.67225 -0.71486,1.0854 -0.3209,0.74677 -0.37992,1.53901 -0.22183,2.2779 l -74.47142,23.22143 M 377.5271,310.49859 c 0.62965,-1.46243 0.25998,-3.10155 -0.80236,-4.16226 l 4.26111,-5.14148 15.38819,57.67894 -20.48359,-46.56999 c 0.70538,-0.39122 1.29308,-1.00681 1.63663,-1.80521 m -232.28567,23.31525 c -0.14524,-0.81406 -0.55611,-1.56821 -1.17896,-2.13416 l 50.74524,-67.31321 55.62788,55.0565 c -0.21966,0.26793 -0.40833,0.56859 -0.55197,0.90297 -0.22082,0.5129 -0.31538,1.04735 -0.30431,1.57213 l -104.33788,11.91577 m -8.81237,48.53374 c -1.24865,-0.0734 -2.46895,0.48039 -3.232,1.49164 L 94.444474,359.04177 138.37744,336.55179 c 0.39161,0.59402 0.95329,1.08566 1.65604,1.38804 0.22798,0.0981 0.46027,0.1701 0.69406,0.22119 l -4.29852,44.18658 M 7.4442829,404.19421 c -0.04304,-0.18087 -0.0955,-0.35927 -0.164405,-0.53138 L 93.726084,359.40943 132.83149,384.433 c -0.0309,0.062 -0.0647,0.12281 -0.0926,0.18753 -0.2649,0.61541 -0.35106,1.26217 -0.28547,1.88449 L 7.4442389,404.19421 M 21.511063,316.78776 c 1.28588,0.13234 2.560895,-0.41288 3.360114,-1.43835 l 68.174777,43.62518 -86.0841731,44.06845 c -0.392296,-0.62013 -0.968781,-1.13288 -1.694159,-1.44526 -0.140027,-0.0602 -0.282409,-0.10839 -0.425048,-0.15111 L 21.511063,316.78773 m 94.468797,-95.67211 c 1.23458,0.50612 2.58214,0.3087 3.60122,-0.4089 L 93.965394,259.22499 115.97987,221.11562 M 85.676314,174.04611 c 0.40002,-0.35467 0.73158,-0.79868 0.95633,-1.32294 0.11773,-0.27301 0.19767,-0.55182 0.24669,-0.83391 l 33.476556,2.78328 -2.90197,39.17765 c -0.70771,-0.008 -1.39909,0.18516 -1.99675,0.54623 L 85.676234,174.04608 m 18.391416,-98.315805 24.72898,55.748495 -2.88543,2.85098 c -0.27568,-0.23167 -0.58962,-0.42962 -0.93708,-0.57887 -0.75943,-0.3275 -1.56373,-0.38172 -2.3119,-0.21525 L 104.06765,75.730275 M 183.17178,7.2976733 c 0.59511,-0.22982 1.13269,-0.60956 1.55144,-1.11683 l 98.2116,66.9332817 -78.67973,-11.69981 c 0.0842,-1.53651 -0.77631,-3.02996 -2.27181,-3.67372 -1.53303,-0.660322 -3.25888,-0.2244 -4.30981,0.95638 L 183.17178,7.2976733 M 306.2065,141.68331 c -0.46565,0.20097 -0.89063,0.49617 -1.24501,0.87106 l -51.13506,-40.03461 30.39842,-28.207375 21.98165,67.370925 m 60.39457,13.62965 c -0.0542,0.77004 0.12842,1.53418 0.51523,2.18662 l -36.1525,26.0845 -21.04189,-35.3898 c 0.53146,-0.38591 0.97131,-0.9115 1.24909,-1.5583 0.0757,-0.17505 0.13051,-0.35129 0.17763,-0.53019 l 55.25246,9.20716 m 158.11629,-20.61909 c 0.10446,0.43188 0.28456,0.84046 0.53259,1.20853 l -61.12944,50.06986 -88.77473,-28.77018 149.37158,-22.50821 m 57.60738,117.1231 c -0.37277,0.2145 -0.71209,0.49155 -0.99613,0.82811 L 507.55369,201.2147 c 0.0675,-0.11959 0.13078,-0.24312 0.18759,-0.3733 0.80519,-1.87015 -0.0225,-4.0278 -1.84547,-4.89558 l 21.5129,-58.50985 c 0.75159,0.19962 1.52264,0.15867 2.22309,-0.0893 l 52.69296,114.47035 m 54.96547,-17.73301 c 0.38732,0.75101 1.02705,1.37929 1.86322,1.7411 0.40843,0.1738 0.82953,0.26696 1.24808,0.2939 l 0.30085,10.99065 c -1.29276,0.15696 -2.46878,0.97373 -3.01899,2.253 -0.19976,0.46416 -0.29586,0.94761 -0.3056,1.42333 l -49.44406,3.67011 c -0.0269,-0.15384 -0.0612,-0.30576 -0.10682,-0.45379 l 49.46333,-19.91837 m 131.12308,57.53441 c -0.10749,0.16811 -0.20767,0.34357 -0.28797,0.53374 -0.34334,0.7927 -0.38581,1.63808 -0.1896,2.41569 l -26.21871,9.25718 -42.75328,-65.40111 c 0.14708,-0.11423 0.27967,-0.24293 0.40692,-0.3768 l 69.04246,53.57115 m 2.25799,56.49826 -28.55933,-43.69 26.05634,-9.20213 c 0.37627,0.81861 1.04017,1.5051 1.93187,1.88722 0.39509,0.17043 0.80214,0.26437 1.20886,0.29436 l 0.85019,50.13354 c -0.53424,0.0842 -1.04083,0.27888 -1.48777,0.57688 m -42.4101,-35.19401 c 0.61037,-0.1411 1.17557,-0.42989 1.64896,-0.84876 l 39.62637,37.219 c -0.0928,0.15321 -0.17828,0.30895 -0.25134,0.47687 -0.37741,0.87666 -0.39227,1.818 -0.11933,2.65682 l -34.02209,11.20215 -6.88257,-50.70608 M 667.1636,386.0077 c -0.12304,-0.45031 -0.33227,-0.87794 -0.61264,-1.2584 l 58.76293,-72.36621 c 0.18791,0.12717 0.39053,0.23945 0.60542,0.33446 0.53831,0.22884 1.10308,0.32199 1.64995,0.29947 l 6.90053,50.83165 -67.30619,22.15899 m -13.26203,-60.74611 69.90872,-14.89118 c 0.1853,0.59039 0.51097,1.13325 0.96171,1.57444 l -58.69444,72.28204 c -0.30449,-0.2818 -0.65806,-0.51896 -1.0606,-0.69184 -0.47414,-0.2045 -0.96992,-0.303 -1.45533,-0.30789 l -9.66004,-57.96559 m -26.47513,2.06605 c -0.15059,-0.0657 -0.30615,-0.11676 -0.46408,-0.16022 l 13.82568,-72.55547 c 0.21437,0.021 0.42631,0.02 0.63564,0.006 l 11.68162,70.1003 -23.54988,5.01509 c -0.3035,-1.04069 -1.0523,-1.9436 -2.12901,-2.40618 m -29.90585,-48.77328 40.62815,-25.41223 c 0.38212,0.50068 0.8918,0.912 1.50919,1.17986 0.14823,0.0632 0.29871,0.11427 0.44686,0.15791 l -11.04517,57.9566 -2.78045,14.59892 c -0.66314,-0.0583 -1.318,0.0585 -1.90792,0.32772 l -26.85061,-48.80875 m -63.12093,38.07275 47.70471,-58.41474 c 0.1922,0.12681 0.39701,0.24096 0.61608,0.33517 0.99492,0.4307 2.0726,0.39421 2.99713,-0.01 l 10.87505,19.77463 -61.88637,38.70625 c -0.0908,-0.13905 -0.19581,-0.26731 -0.30656,-0.39173 m -40.08479,-44.45326 c 0.34523,-0.3349 0.63239,-0.74198 0.83522,-1.21293 0.24276,-0.56378 0.3348,-1.15414 0.29736,-1.72559 l 23.67872,-3.68153 11.47525,49.93696 c -0.35409,0.0957 -0.69207,0.24162 -1.00336,0.43367 l -35.28317,-43.75038 m -78.86305,-7.21324 c 0.2906,-0.31051 0.53786,-0.67373 0.7151,-1.08663 0.037,-0.0859 0.0666,-0.17432 0.0969,-0.26193 l 71.64602,5.8949 c 0.009,0.86706 0.31907,1.70351 0.86823,2.36937 l -35.62288,35.58057 -37.70333,-42.49628 m -4.88165,0.53699 c 0.1973,0.13452 0.40958,0.2534 0.63729,0.35176 0.19757,0.0847 0.3987,0.14754 0.60098,0.19677 l -13.72862,93.34742 c -0.28071,-0.015 -0.5603,-5e-5 -0.83334,0.0469 l -15.71481,-58.90349 29.03847,-35.03851 m -43.25327,-18.24181 c 0.937,-0.34586 1.73659,-1.05714 2.16269,-2.04693 l 0.0123,-0.0341 39.57254,16.20119 c -0.36886,1.32927 0.0238,2.73172 0.96962,3.67624 l -28.723,34.65789 -13.99444,-52.45429 m 8.23481,58.28311 c -0.52379,-0.22572 -1.07055,-0.31922 -1.60589,-0.30244 l -6.97096,-56.55964 13.79088,51.69201 -4.57652,5.52159 c -0.19729,-0.13451 -0.40981,-0.25364 -0.63751,-0.35152 M 254.0691,265.26317 362.32422,244.51065 c 0.24912,1.15263 1.02984,2.1724 2.19521,2.67373 0.52428,0.2257 1.07077,0.31902 1.60613,0.30267 l 7.12834,57.83471 c -1.1243,0.24684 -2.11882,1.00148 -2.62873,2.12499 L 253.92619,266.97194 c 0.18484,-0.56618 0.22469,-1.1489 0.14297,-1.70881 m -1.55068,52.87634 -28.54256,-87.59797 c 0.11142,-0.0482 0.22074,-0.10172 0.32713,-0.1606 l 23.43799,32.68548 c -0.36194,0.34237 -0.66211,0.76109 -0.87124,1.24785 -0.82444,1.91485 0.0595,4.13554 1.97514,4.95975 0.4393,0.18921 0.89465,0.28442 1.34641,0.30154 l 2.60951,48.51151 c -0.0946,0.0147 -0.1891,0.0317 -0.28237,0.0526 m -32.01963,-87.85268 c 0.15575,0.0958 0.31734,0.18514 0.48972,0.25965 0.76258,0.32821 1.5723,0.3814 2.32466,0.21074 l 28.54279,87.59821 c -0.3346,0.14437 -0.64776,0.3365 -0.92969,0.57277 l -55.69578,-55.12364 25.26824,-33.51772 m -48.6877,10.33882 c 0.22016,-0.2675 0.40881,-0.56859 0.55247,-0.90296 0.26954,-0.62555 0.3531,-1.28413 0.28111,-1.91626 l 46.2291,-9.62115 c 0.19706,0.63961 0.56267,1.2232 1.06797,1.68308 L 194.731,263.31026 171.8111,240.62578 m -28.79315,90.37867 c -0.0614,-0.0267 -0.12454,-0.0462 -0.18693,-0.0693 l 25.37018,-88.99569 c 1.12197,0.21129 2.26539,-0.10384 3.11917,-0.81888 l 22.98703,22.75095 -50.80326,67.39059 c -0.15446,-0.0952 -0.31439,-0.18367 -0.48619,-0.25769 M 25.363767,314.52458 c 0.06893,-0.15878 0.12104,-0.32014 0.165358,-0.48371 l 112.229605,20.25271 c -0.0271,0.56786 0.074,1.12887 0.29114,1.64271 L 93.764944,358.60697 25.246538,314.7623 c 0.03957,-0.0792 0.08171,-0.15653 0.117532,-0.23765 m 61.034464,3.65201 c 1.86618,0.80322 4.0187,-0.0188 4.8902,-1.8331 l 46.337336,17.21763 -111.195481,-20.06461 57.695985,1.46564 c 0.0935,1.36733 0.92653,2.63542 2.27196,3.21444 m 3.91575,-46.30147 18.360526,22.73241 -18.290506,17.26866 c -0.29136,-0.25642 -0.62583,-0.47281 -1.00119,-0.63451 -0.36699,-0.15829 -0.74616,-0.25217 -1.12383,-0.2896 l 0.20329,-38.46422 c 0.66216,-0.0398 1.29953,-0.25236 1.85171,-0.61274 m 75.190056,-31.99538 c 0.11573,0.23914 0.25497,0.46711 0.41966,0.67814 l -56.74085,53.57002 -18.324816,-22.68824 c 0.3499,-0.33866 0.64242,-0.74822 0.84525,-1.22554 0.37161,-0.86088 0.39289,-1.78403 0.13484,-2.61306 l 73.665946,-27.72132 m -18.04495,-59.83334 c 0.0966,0.0512 0.19415,0.10104 0.29724,0.14559 0.75611,0.32578 1.55842,0.38198 2.30491,0.21725 l 17.36023,54.34999 c -0.86298,0.36666 -1.59303,1.05025 -1.99286,1.97924 -0.35203,0.8184 -0.39013,1.69177 -0.17116,2.4893 l -73.685376,27.73055 c -0.25822,-0.48701 -0.62241,-0.91659 -1.07637,-1.25552 l 56.963326,-85.65641 m -27.35282,34.93838 23.4478,-30.32404 -22.45999,33.76931 c 0.27568,-1.25471 -0.11292,-2.55093 -0.98781,-3.44527 m 25.36884,-38.22425 c 0.0112,1.02891 0.44558,2.01671 1.2,2.72073 l -27.10101,35.05042 c -0.2087,-0.1458 -0.43261,-0.27127 -0.67331,-0.37476 -0.24772,-0.1064 -0.5002,-0.18321 -0.75401,-0.23392 l 2.90311,-39.19366 24.42523,2.03115 M 123.55115,140.9897 c 0.59376,-0.0105 1.17351,-0.16026 1.69029,-0.43482 l 21.66259,33.21159 c -0.47482,0.37574 -0.86629,0.87076 -1.12236,1.46598 -0.11852,0.27278 -0.19493,0.55403 -0.24662,0.8336 l -24.43165,-2.02965 2.44767,-33.04679 m -37.290166,28.08695 34.573406,-29.17113 c 0.32441,0.3211 0.71117,0.58916 1.15469,0.78005 0.28503,0.12317 0.57469,0.20208 0.86812,0.25227 l -2.44982,33.03922 -33.468386,-2.78159 c -0.007,-0.76062 -0.24711,-1.49905 -0.67793,-2.11877 M 198.05824,64.094175 c 0.16054,0.13498 0.33215,0.25379 0.51507,0.36126 l 0.0706,0.24578 -48.18884,108.449415 c -0.80466,-0.27181 -1.64878,-0.25613 -2.40884,0.002 l -18.41602,-41.51526 68.4281,-67.543195 m 5.60347,-0.84675 c 0.11097,-0.17189 0.21227,-0.35321 0.29625,-0.54707 0.0826,-0.19757 0.14612,-0.39555 0.19388,-0.59734 l 79.46713,11.82069 -30.34934,28.162755 -49.6081,-38.839065 m 100.72666,80.092755 -64.59075,-27.80003 13.51156,-12.53721 51.22263,40.10168 c -0.0481,0.0749 -0.0978,0.15332 -0.14344,0.23555 m 26.00794,40.65343 -54.58862,39.38584 c -0.28758,-0.33015 -0.63371,-0.61547 -1.03575,-0.8339 l 31.76629,-73.81239 c 0.94482,0.30755 1.9364,0.22014 2.78585,-0.1844 l 21.07217,35.44481 m 38.47432,-24.93912 c 0.31559,0.13584 0.6393,0.22093 0.96587,0.26419 l -3.87981,80.62584 c -0.45775,0.007 -0.9075,0.0945 -1.32751,0.26033 l -33.30777,-56.01981 36.20259,-26.12074 c 0.35891,0.41408 0.81063,0.75818 1.34676,0.98975 m 63.51867,52.90877 c -0.3343,-0.33542 -0.7333,-0.61788 -1.19556,-0.81557 -1.37233,-0.59339 -2.90319,-0.29942 -3.96292,0.61776 l -53.96,-53.77341 c 0.15157,-0.18339 0.28779,-0.38197 0.40594,-0.59839 l 89.80419,29.10268 -31.09165,25.467 m 68.20104,-13.43874 c -0.0925,0.41344 -0.11394,0.83341 -0.068,1.24172 l -67.18985,13.812 c -0.10895,-0.38234 -0.28083,-0.74366 -0.50233,-1.07566 l 31.43882,-25.75092 36.32132,11.77286 m 80.15289,55.06589 c -0.24035,0.5613 -0.33246,1.15164 -0.29546,1.72261 l -60.78612,9.45217 -14.20792,-61.83423 c 0.65405,-0.2155 1.2469,-0.60447 1.7046,-1.14667 l 73.77244,51.43282 c -0.0675,0.11959 -0.13073,0.24319 -0.18749,0.37332 m -87.56818,12.41071 c -0.15955,-0.0696 -0.32169,-0.12231 -0.48551,-0.16676 l 11.26125,-62.7239 c 0.27684,0.0239 0.55378,0.0137 0.82387,-0.023 l 14.19732,61.7845 -23.63145,3.67436 c -0.27843,-1.09923 -1.04307,-2.06191 -2.16548,-2.54524 m -123.6717,-23.71569 30.23982,-13.67916 12.24988,30.06806 c -1.13054,0.21394 -2.14176,0.94936 -2.67967,2.05061 l -39.61078,-16.21701 c 0.16361,-0.75877 0.0839,-1.53182 -0.19922,-2.2225 m -117.25724,20.26773 19.14843,-33.26533 0.0792,0.039 c 1.91536,0.82393 4.13579,-0.0603 4.96001,-1.9754 0.0642,-0.14965 0.11475,-0.30119 0.15854,-0.45345 l 78.27982,14.758 7.4264,1.39966 c -0.0454,0.25451 -0.0637,0.50915 -0.0569,0.76143 l -108.33663,20.76846 c -0.28576,-0.8338 -0.85841,-1.56441 -1.65869,-2.03238 m -2.67573,-0.44053 -8.13028,-34.88531 27.78365,-0.89792 c 0.13105,1.03469 0.68542,1.99379 1.56506,2.6134 l -19.17675,33.31526 c -0.67566,-0.24315 -1.37956,-0.28342 -2.04168,-0.14543 m -77.84803,-26.37958 24.62596,-26.20018 22.83805,15.70333 c -0.0628,0.11298 -0.12085,0.22954 -0.17268,0.3503 -0.26904,0.62652 -0.35333,1.28435 -0.28109,1.91672 l -46.22911,9.62116 c -0.15738,-0.5112 -0.42324,-0.98564 -0.78114,-1.39133 m -19.57322,-56.5912 43.61827,29.99163 -24.55341,26.12244 c -0.2484,-0.19336 -0.52253,-0.36223 -0.82529,-0.49274 -0.75541,-0.32505 -1.55725,-0.38075 -2.30353,-0.21581 l -17.36169,-54.35144 c 0.54632,-0.23 1.03704,-0.5871 1.42565,-1.05408 M 199.35709,64.807935 c 0.58614,0.18545 1.19129,0.21806 1.76561,0.11826 l 15.59043,62.544625 -64.62594,46.77009 c -0.27808,-0.31838 -0.60826,-0.59408 -0.99298,-0.80975 L 199.35709,64.807935 m 37.83761,45.882105 c -1.10017,-0.47355 -2.30042,-0.38038 -3.2811,0.14485 l -8.64022,-13.011535 -22.38226,-33.7081 c 0.12088,-0.0975 0.23274,-0.20547 0.34036,-0.3191 l 49.52347,38.770995 -13.37056,12.40467 c 0.38756,-1.73397 -0.49786,-3.554 -2.18969,-4.28178 m 66.86904,35.44695 -50.95144,19.10885 -15.89175,-47.63694 c 0.74467,-0.32639 1.38314,-0.89222 1.79542,-1.64563 l 65.09749,28.01672 c -0.23429,0.71919 -0.23807,1.46557 -0.0498,2.157 m -29.93242,76.1329 c -0.67333,-0.21925 -1.37021,-0.2359 -2.02316,-0.0829 l -18.77533,-56.27965 50.97507,-19.11687 c 0.33473,0.68918 0.87764,1.28046 1.59023,1.66709 l -31.76677,73.81237 m 88.41308,19.95502 c -0.0221,0.0516 -0.0383,0.10472 -0.0581,0.15677 l -50.76473,-9.57058 -34.99803,-6.59786 c 0.0754,-0.79898 -0.11041,-1.59144 -0.50877,-2.26846 l 54.53906,-39.35008 33.25215,55.92647 c -0.6273,0.39255 -1.14667,0.97232 -1.46174,1.70377 M 229.98611,178.0806 c 0.29072,-0.0971 0.57046,-0.22617 0.83031,-0.39015 l 39.42841,45.55729 c -0.30523,0.3176 -0.56216,0.69085 -0.74671,1.11907 -0.17772,0.4134 -0.2714,0.84089 -0.29679,1.26581 l -27.92283,0.90284 -11.29239,-48.45486 m -6.01248,45.53092 c -0.17583,-0.0755 -0.35454,-0.13219 -0.53391,-0.17935 l 4.82237,-45.19535 c 0.35092,0.0502 0.70179,0.0498 1.04526,0.002 l 11.26091,48.31875 -14.3148,0.46297 c -0.023,-1.44059 -0.87123,-2.80324 -2.27983,-3.40952 m 2.50333,-46.1335 c 0.24839,0.19385 0.522,0.36223 0.82526,0.49275 0.0915,0.0389 0.18394,0.0707 0.27626,0.10228 l -4.82754,45.24369 c -1.20535,-0.0864 -2.39092,0.41247 -3.16844,1.34618 l -22.75174,-15.64393 29.6462,-31.541 m -73.7604,0.7388 c 0.17398,-0.40903 0.27028,-0.82813 0.29515,-1.2493 l 72.03837,-2.01119 c 0.0921,0.75598 0.41218,1.47036 0.91853,2.04458 l -29.71871,31.61873 -43.70474,-30.05129 c 0.0625,-0.11268 0.1197,-0.23005 0.17124,-0.35157 m 74.83175,-7.27227 c -0.96193,0.33687 -1.78638,1.05595 -2.22173,2.06599 -0.17559,0.40818 -0.2687,0.82979 -0.29566,1.2493 l -72.0369,2.01216 c -0.064,-0.51983 -0.23344,-1.0174 -0.49917,-1.46722 l 64.39952,-46.6055 10.65408,42.74532 m 5.31545,-54.30344 c 0.35873,0.41032 0.80963,0.75227 1.34552,0.98357 0.23437,0.10002 0.47425,0.17472 0.71699,0.22667 l -2.16966,18.88585 -3.9047,33.99139 c -0.21169,-0.003 -0.42078,0.0144 -0.62785,0.0463 l -10.72177,-43.01674 15.36147,-11.11711 m -0.58371,56.41751 c -0.36329,-0.87629 -1.05311,-1.61833 -1.99324,-2.02328 -0.23607,-0.10131 -0.47622,-0.17666 -0.71846,-0.22765 l 6.05118,-52.8791 c 0.32014,0.008 0.63484,-0.0272 0.93853,-0.1011 l 15.90099,47.66324 -20.17899,7.56793 m 38.50129,49.72628 -39.27398,-45.66181 c 0.3091,-0.31918 0.56858,-0.69533 0.75485,-1.12775 0.32016,-0.74355 0.37939,-1.53358 0.22384,-2.27002 l 20.19399,-7.57319 18.76712,56.2553 c -0.23408,0.10269 -0.4564,0.22928 -0.66582,0.37747 m -68.46582,-158.276285 19.1678,28.86659 11.84918,17.843665 c -0.46353,0.37419 -0.84704,0.86045 -1.09813,1.44637 -0.49573,1.14981 -0.36997,2.40975 0.21942,3.40932 l -15.13294,10.95555 -15.52476,-62.284005 c 0.17873,-0.0667 0.35111,-0.14672 0.51943,-0.23749 M 399.4788,227.96171 369.18121,241.66557 c -0.39246,-0.60758 -0.96277,-1.10925 -1.67694,-1.41654 -0.27933,-0.11999 -0.56507,-0.19985 -0.85236,-0.24992 l 2.35464,-48.96733 1.5243,-31.67795 c 0.31704,-0.0148 0.62751,-0.0654 0.92961,-0.15862 l 28.01837,68.76645 m -26.70079,-69.47745 53.97069,53.78401 c -0.20274,0.25529 -0.37792,0.53786 -0.51453,0.85373 -0.39297,0.9152 -0.3923,1.9013 -0.0779,2.77145 l -26.042,11.78038 -28.01005,-68.73862 c 0.24008,-0.12517 0.46378,-0.2764 0.67379,-0.45095 m 128.22734,42.74988 -47.77811,33.79901 -20.52577,-18.13321 c 0.18281,-0.24072 0.34311,-0.50371 0.46948,-0.79536 0.25905,-0.60157 0.34871,-1.23355 0.28987,-1.84089 l 67.20092,-13.81577 c 0.0838,0.27432 0.2009,0.5371 0.34361,0.78622 m -72.7961,16.84805 0.007,0.003 -1.17224,3.65922 -12.05383,37.64151 c -0.24143,-0.18504 -0.50713,-0.34506 -0.79833,-0.47143 -0.48103,-0.20648 -0.98149,-0.30465 -1.47381,-0.30655 l -12.33945,-30.28911 26.07351,-11.79336 c 0.39351,0.66893 0.9907,1.22566 1.75702,1.55754 m -11.93653,43.09182 c -0.15663,-0.45896 -0.40054,-0.88668 -0.7191,-1.26083 l 12.15059,-37.94285 1.17683,-3.67427 c 1.20901,0.26997 2.45477,-0.0758 3.34875,-0.88241 l 20.41361,18.03203 -36.37068,25.72833 m 72.36504,6.06704 c -0.16423,0.22479 -0.30878,0.46903 -0.42225,0.73425 -0.11855,0.27486 -0.19743,0.5547 -0.24822,0.8378 l -71.53505,-5.88812 c 0.0484,-0.33956 0.0529,-0.68306 0.009,-1.01597 l 36.74016,-25.99019 35.45661,31.32218 m 14.14156,-64.42291 c 0.16175,0.0669 0.32414,0.11977 0.48577,0.16698 l -11.26144,62.72345 c -1.06935,-0.0926 -2.12943,0.28002 -2.90699,1.0107 l -35.33192,-31.21315 47.64258,-33.70266 c 0.36458,0.42421 0.82505,0.7773 1.37204,1.01473 m -363.47382,128.60454 -29.68408,-36.75191 56.78115,-53.60766 c 0.29159,0.25626 0.62562,0.47307 1.00096,0.63426 0.0421,0.0179 0.0855,0.0314 0.12793,0.0477 l -25.37359,89.00801 c -1.0146,-0.17316 -2.04174,0.08 -2.8523,0.66971 M 91.531874,315.69049 c 0.31858,-1.16735 0.0478,-2.3918 -0.66848,-3.30867 l 18.250506,-17.23025 29.66795,36.733 c -0.29455,0.31199 -0.54298,0.67697 -0.72268,1.09431 L 91.531824,315.6904 M 248.28937,262.63529 224.88066,229.99007 c 0.44977,-0.36971 0.82181,-0.84721 1.06801,-1.41891 0.11975,-0.27904 0.19939,-0.56453 0.24918,-0.8511 l 14.53184,-0.46975 8.17261,35.06644 c -0.21319,0.0876 -0.41862,0.19314 -0.61291,0.31855 m 285.5992,53.5157 c -0.24379,-0.19222 -0.51434,-0.35707 -0.81297,-0.48596 -0.584,-0.24948 -1.19557,-0.33994 -1.78723,-0.29314 l -11.47022,-49.92711 60.73588,-9.44304 c 0.16749,0.66587 0.51501,1.27942 1.01332,1.76769 L 533.88859,316.151 m 103.89238,-63.59808 -40.59646,25.38968 -10.85757,-19.73771 c 0.57695,-0.38984 1.05727,-0.94402 1.35287,-1.63203 0.19997,-0.464 0.29723,-0.94622 0.30584,-1.42302 l 49.4448,-3.66947 c 0.0639,0.37168 0.18117,0.73335 0.35052,1.07255 m 3.31542,-16.45217 c 0.79543,-0.0952 1.54518,-0.44157 2.13364,-0.99168 l 12.72327,11.27866 -11.27398,3.12832 c -0.3521,-0.92207 -1.05843,-1.7094 -2.03638,-2.12824 -0.40496,-0.17522 -0.8268,-0.26915 -1.24588,-0.29659 l -0.30066,-10.99045 m 51.80625,0.0357 -36.14964,10.02792 -13.06489,-11.5775 c 0.16643,-0.22759 0.31053,-0.47225 0.42743,-0.73895 0.13149,-0.30626 0.2161,-0.61962 0.26375,-0.93521 l 48.4689,2.69422 c 0.008,0.17983 0.023,0.35725 0.0553,0.52939 m 2.22223,2.7975 c 0.86186,0.37255 1.78596,0.39491 2.61747,0.13432 l 27.90022,66.84534 c -0.2924,0.1567 -0.56738,0.35039 -0.81255,0.58326 l -67.45566,-59.78134 35.71659,-9.90736 c 0.3497,0.91973 1.056,1.70703 2.03393,2.12578 m 35.71107,68.73683 c -0.37626,-0.8186 -1.04016,-1.5051 -1.93427,-1.88964 -0.85943,-0.37007 -1.78356,-0.39243 -2.615,-0.13187 l -27.89029,-66.82072 42.6465,65.23659 -10.20707,3.60578 m -86.7681,-54.42093 47.33915,32.04665 32.69606,22.13309 c -0.056,0.10625 -0.10973,0.21498 -0.15851,0.32852 -0.2727,0.63222 -0.35553,1.29544 -0.28074,1.93323 l -69.87671,14.88384 -11.67416,-70.07326 c 0.75553,-0.19847 1.44315,-0.63085 1.95497,-1.25192 m 13.92657,8.58664 -13.53776,-9.1627 c 0.061,-0.10651 0.11471,-0.215 0.16098,-0.32613 0.30429,-0.70881 0.37693,-1.45569 0.24751,-2.16228 l 11.70949,-3.24638 66.59925,59.0219 -65.1795,-44.12442 m 112.12953,86.71905 c -0.0597,0.0536 -0.11517,0.11633 -0.16811,0.17676 l -39.56697,-37.1651 c 0.19352,-0.24968 0.35952,-0.52178 0.49102,-0.82305 0.34088,-0.79515 0.38583,-1.6381 0.18957,-2.41571 l 10.36451,-3.66084 28.69097,43.8889 M 525.69182,136.44291 c 0.30048,0.30422 0.65859,0.55863 1.06316,0.75319 l -21.5124,58.51034 c -1.78173,-0.474 -3.68729,0.41012 -4.43745,2.15333 l 5.8e-4,5.6e-4 -35.89631,-11.63164 60.78249,-49.7857 M 105.19918,71.094825 c 0.20431,-0.47916 0.30359,-0.97564 0.30721,-1.46477 l 91.26913,-7.757 c 0.11221,0.62952 0.38631,1.22462 0.79691,1.72613 L 129.32848,130.9564 103.57189,72.892595 c 0.70096,-0.39122 1.28423,-1.00532 1.62729,-1.79777 m 23.89964,61.064445 18.07475,40.74513 -21.34668,-32.72829 c 0.47461,-0.37549 0.86607,-0.87052 1.12216,-1.46574 0.57606,-1.33993 0.31364,-2.82833 -0.54905,-3.88365 l 2.69882,-2.66745 m 271.19202,228.09854 c -0.27243,-0.22604 -0.57899,-0.4186 -0.92053,-0.56542 -0.19752,-0.0851 -0.39894,-0.14777 -0.60099,-0.19718 l 13.72861,-93.34695 c 0.87572,0.0465 1.73529,-0.21472 2.4334,-0.7259 l 37.7301,42.52818 -52.37061,52.3073 m 76.99941,-25.59681 -23.67186,-26.68216 35.65267,-35.60957 c 0.27247,0.22551 0.57801,0.4201 0.91929,0.56667 0.16296,0.0682 0.32614,0.12171 0.49098,0.1672 l -10.84354,60.83897 c -0.91456,-0.077 -1.81917,0.18585 -2.54754,0.71888 m 261.98989,64.62538 c -1.20617,0.21844 -2.28385,1.01466 -2.80244,2.22219 -0.0999,0.23459 -0.17501,0.47402 -0.22797,0.71083 l -27.11626,-5.67264 -41.91639,-8.76497 c 0.077,-0.36014 0.0973,-0.72244 0.0684,-1.07959 l 67.28161,-22.14902 4.71312,34.7332 m 33.80485,-109.10896 c -1.50145,-0.64768 -3.18966,-0.23978 -4.24583,0.89174 L 699.7967,237.49309 c 0.10749,-0.16811 0.20764,-0.34355 0.28799,-0.53372 0.82542,-1.91387 -0.0607,-4.13432 -1.97467,-4.95974 -1.91631,-0.82292 -4.13428,0.0608 -4.95975,1.97465 -0.13142,0.30623 -0.21358,0.62206 -0.2613,0.93768 l -48.47379,-2.69427 c -0.0529,-1.41042 -0.89434,-2.73345 -2.27477,-3.33002 -1.91629,-0.82289 -4.13779,0.0623 -4.96192,1.97741 -0.36376,0.84605 -0.39333,1.75324 -0.14666,2.57096 l -49.46378,19.91797 c -0.38721,-0.751 -1.02693,-1.37924 -1.86312,-1.74101 -0.90853,-0.38934 -1.88277,-0.39262 -2.74784,-0.0869 l -52.6929,-114.4703 c 0.67955,-0.39136 1.24708,-0.9965 1.58163,-1.77341 0.82442,-1.91485 -0.061,-4.13453 -1.9749,-4.95997 -1.91634,-0.82293 -4.13799,0.062 -4.96193,1.97736 -0.23958,0.55713 -0.32994,1.13937 -0.29723,1.70615 l -150.64401,22.70008 c 0.56987,-1.8236 -0.31956,-3.81685 -2.11269,-4.58645 -1.91385,-0.82544 -4.13528,0.0598 -4.95949,1.97488 -0.0758,0.17508 -0.13024,0.35155 -0.17761,0.53021 l -55.25224,-9.20693 c 0.11343,-1.55959 -0.75292,-3.08873 -2.26946,-3.74149 -0.76284,-0.32845 -1.57399,-0.38119 -2.32685,-0.20951 l -21.97545,-67.354915 0.94693,0.14295 -1.15969,-0.78991 -0.13276,-0.40586 -0.19372,0.1809 -99.23783,-67.6351817 c 0.0609,-0.10637 0.1172,-0.21743 0.16547,-0.33605 0.82541,-1.9139 -0.0607,-4.13431 -1.97468,-4.95974 -1.91385,-0.82543 -4.13424,0.0607 -4.95972,1.97464 -0.82296,1.91631 0.0583,4.1368 1.97467,4.95975 0.71366,0.30924 1.47047,0.37677 2.17947,0.24501 l 14.65657,51.9511817 c -0.0486,0.089 -0.0948,0.18044 -0.13616,0.27615 -0.20681,0.47604 -0.30533,0.97275 -0.30979,1.46194 l -91.26653,7.75949 c -0.21843,-1.20599 -1.01514,-2.28335 -2.22525,-2.8044 -1.91485,-0.82444 -4.134556,0.061 -4.959956,1.97491 -0.82296,1.91632 0.0623,4.13773 1.977376,4.96192 0.75668,0.3253 1.56093,0.37955 2.30937,0.21279 l 19.45077,60.467245 c -0.85906,0.36763 -1.58708,1.04874 -1.98521,1.97606 -0.53466,1.24362 -0.34842,2.61093 0.3717,3.6468 l -34.573406,29.17113 c -0.32447,-0.32112 -0.71093,-0.58941 -1.15477,-0.78008 -1.9151,-0.82417 -4.13454,0.061 -4.95993,1.97492 -0.8232,1.91657 0.0595,4.13553 1.97492,4.9595 1.16211,0.50011 2.43512,0.3681 3.44223,-0.23831 l 29.781426,40.34984 c -0.39728,0.35687 -0.73135,0.79843 -0.95555,1.32221 -0.73971,1.71829 -0.10132,3.67879 1.42208,4.661 l -25.677456,44.44576 c -1.90362,-0.79121 -4.09694,0.0924 -4.91702,1.99094 -0.8232,1.91657 0.0621,4.13801 1.97714,4.96218 0.33361,0.14339 0.67734,0.23205 1.02135,0.27558 l -0.20473,38.48096 c -1.33829,0.1183 -2.57074,0.94787 -3.13902,2.26856 -0.14795,0.34266 -0.2383,0.6953 -0.2787,1.04879 l -58.482606,-1.4867 c -0.09292,-1.3673 -0.926525,-2.63543 -2.271137,-3.21368 -1.915108,-0.82417 -4.137321,0.0588 -4.960269,1.97513 -0.825301,1.91382 0.05985,4.13525 1.975145,4.95932 0.138043,0.0586 0.280671,0.10771 0.424285,0.15082 L 4.1608419,401.30934 c -1.597812,-0.16398 -3.18408998,0.71103 -3.85239398,2.26364 -0.824215,1.9151 0.0603,4.13579 1.97512198,4.95971 1.91537,0.82445 4.136058,-0.0601 4.959768,-1.9751 0.235198,-0.54627 0.326996,-1.11722 0.299826,-1.67315 L 132.58936,387.18911 c 0.30839,1.0348 1.05545,1.93052 2.12472,2.39073 1.91488,0.82444 4.13582,-0.0603 4.96001,-1.97492 0.82395,-1.91535 -0.0601,-4.13602 -1.97515,-4.96021 -0.19087,-0.082 -0.38486,-0.14269 -0.58002,-0.19119 l 4.30085,-44.21025 c 1.50009,0.0418 2.94404,-0.81674 3.57368,-2.2792 0.20429,-0.47535 0.30299,-0.96892 0.30763,-1.45559 l 104.35733,-11.91816 c 0.24383,1.16099 1.02722,2.19038 2.20024,2.69538 1.91512,0.82415 4.13578,-0.0603 4.95973,-1.97564 0.82419,-1.91463 -0.0597,-4.13531 -1.97513,-4.95975 -0.43956,-0.18894 -0.89491,-0.28415 -1.34618,-0.30131 l -2.61023,-48.51126 c 1.25127,-0.18574 2.38056,-0.9915 2.91768,-2.23859 l -0.11407,0.3288 116.7072,40.47744 c -0.43519,1.76082 0.44897,3.62817 2.16969,4.36834 0.88607,0.3818 1.83624,0.39318 2.68489,0.1104 l 20.79498,47.27875 c -0.70514,0.39097 -1.29309,1.00632 -1.63641,1.80446 -0.82442,1.91537 0.0599,4.1358 1.97538,4.96001 1.91463,0.82418 4.13532,-0.0603 4.9595,-1.97541 0.32141,-0.74628 0.3804,-1.53853 0.22182,-2.2774 l 74.47126,-23.22224 c 0.36378,0.87384 1.05259,1.61341 1.99048,2.01713 1.91511,0.82419 4.13555,-0.0601 4.95998,-1.97539 0.34283,-0.79665 0.38598,-1.64524 0.1861,-2.42553 l 44.98892,-16.04594 c 0.37629,0.81368 1.03777,1.49776 1.92694,1.87778 1.91388,0.82541 4.13534,-0.0597 4.95953,-1.97482 0.0878,-0.2025 0.14925,-0.40634 0.20087,-0.61508 l 86.90712,10.74761 c -0.0146,1.47601 0.84279,2.88348 2.2825,3.50441 1.08659,0.46743 2.26643,0.38498 3.23953,-0.12271 l 33.51452,49.89343 c -0.48348,0.37457 -0.88025,0.87421 -1.1382,1.47692 -0.82539,1.91387 0.0609,4.13431 1.97469,4.95973 1.91629,0.82297 4.13429,-0.0608 4.95975,-1.9746 l 0.017,-0.0421 45.24392,9.45985 23.92191,5.0017 c -0.0365,1.4934 0.82336,2.92795 2.27785,3.55367 1.91387,0.82542 4.13681,-0.0583 4.95977,-1.97463 0.64035,-1.48914 0.24735,-3.15771 -0.85951,-4.214 l 28.56397,-45.61852 c 0.0472,0.0219 0.0939,0.0485 0.14328,0.0683 1.91634,0.82295 4.13676,-0.0583 4.95973,-1.97466 0.8254,-1.91387 -0.0583,-4.13676 -1.97463,-4.95971 -0.45439,-0.1948 -0.92302,-0.29096 -1.3913,-0.30326 l -0.84755,-50.09658 c 1.30522,-0.14474 2.49604,-0.96646 3.05363,-2.25805 0.82292,-1.91631 -0.0607,-4.13427 -1.97467,-4.95973"
       style="display:none;opacity:0.122;fill:#ffffff;fill-opacity:1;fill-rule:nonzero;stroke:none;stroke-width:0.034846"
       inkscape:label="Network Orig"
       sodipodi:insensitive="true" />
    <g
       id="g2"
       inkscape:label="Network Bottom">
      <path
         id="path1"
         style="display:inline;opacity:0.122;fill:#ffffff;fill-opacity:1;fill-rule:nonzero;stroke:none;stroke-width:0.0245668"
         inkscape:label="Network Top Orig"
         d="M 8.699219 717.834 C 8.9427365 718.37796 9.3167319 718.85066 9.8535159 719.12892 L 0 753.96486 L 0 755.7676 L 10.310547 719.31642 C 10.455411 719.35832 10.601522 719.39283 10.75586 719.41213 C 11.120494 719.45603 11.475777 719.42555 11.808594 719.33205 L 21.900391 742.01564 L 0.97070315 756.38869 C 0.70154342 756.11712 0.37370363 755.90297 0 755.7676 L 0 761.59377 L 9.9550784 793.70119 L 10.470703 793.70119 L 0.22656251 760.66799 C 0.57149016 760.50547 0.87546693 760.27431 1.1191407 759.98439 L 29.072266 783.91603 L 15.460938 793.70119 L 16.302735 793.70119 L 29.458985 784.24611 L 40.503907 793.70119 L 41.257813 793.70119 L 29.867188 783.94924 L 36.062501 779.49416 C 36.478752 779.97392 37.065041 780.30882 37.746095 780.3926 C 38.400823 780.4734 39.029714 780.30528 39.541017 779.96486 L 50.630861 793.70119 L 51.259767 793.70119 L 39.925782 779.66017 C 40.092737 779.49639 40.239207 779.30935 40.359376 779.10353 L 71.255861 793.70119 L 72.404299 793.70119 L 41.585938 779.14064 L 86.83594 793.70119 L 88.439455 793.70119 L 67.166017 786.85549 L 40.66797 778.3301 C 40.6849 778.2471 40.700338 778.16266 40.710938 778.07619 C 40.770698 777.59447 40.696045 777.12786 40.519532 776.71096 L 84.875002 752.84572 L 104.55274 793.70119 L 105.09961 793.70119 L 85.308596 752.6133 L 100.25781 744.57033 C 100.66866 745.21478 101.3538 745.67876 102.17383 745.77931 C 102.28868 745.79401 102.40406 745.79674 102.51953 745.79494 L 107.10547 793.70119 L 107.59961 793.70119 L 104.00781 756.17971 L 103.00781 745.75002 C 103.46814 745.65862 103.88826 745.45101 104.23438 745.15236 L 132.04102 772.88674 L 113.48438 793.70119 L 114.14063 793.70119 L 132.38867 773.23439 L 143.63282 784.44924 C 143.31925 784.82696 143.10334 785.29828 143.03907 785.82228 C 142.99527 786.17579 143.02498 786.52131 143.11328 786.84572 L 124.7793 793.70119 L 126.17969 793.70119 L 143.28516 787.30471 C 143.33356 787.40361 143.38716 787.49868 143.44727 787.58986 L 135.67969 793.70119 L 136.47852 793.70119 L 143.75196 787.97853 C 144.16225 788.41038 144.71812 788.70928 145.35547 788.78908 C 146.04723 788.87328 146.70728 788.68238 147.23243 788.30471 L 151.91993 793.70119 L 152.57032 793.70119 L 147.60352 787.98244 C 147.81342 787.76364 147.9875 787.51044 148.11328 787.22658 L 167.32813 793.70119 L 168.86133 793.70119 L 148.26953 786.76174 C 148.29163 786.66744 148.31152 786.56999 148.32422 786.47072 C 148.37612 786.04338 148.32165 785.62719 148.1836 785.24807 L 187.45899 766.85158 L 202.46485 793.70119 L 203.02735 793.70119 L 187.9043 766.6426 L 203.17383 759.49221 C 203.57927 760.18119 204.28556 760.68155 205.14063 760.78713 C 205.26235 760.80283 205.38229 760.80495 205.50196 760.80275 L 209.00782 793.70119 L 209.5 793.70119 L 205.99024 760.75197 C 206.73228 760.60357 207.37778 760.14225 207.75977 759.49416 L 237.83399 773.6465 L 221.9004 793.70119 L 222.52735 793.70119 L 238.29102 773.86135 L 255.76172 782.08205 C 255.68552 782.28106 255.62954 782.49056 255.60157 782.71291 C 255.54497 783.17119 255.60936 783.6162 255.76954 784.01564 L 237.45899 793.70119 L 238.50782 793.70119 L 255.99024 784.4551 C 256.13946 784.69236 256.32756 784.90301 256.54297 785.084 L 250.63868 793.70119 L 251.23243 793.70119 L 256.94727 785.36135 C 257.23974 785.52237 257.56609 785.63518 257.91797 785.67775 C 258.9639 785.80848 259.94231 785.30652 260.47852 784.47658 L 277.36719 793.70119 L 278.39063 793.70119 L 260.70508 784.04103 C 260.79188 783.82822 260.85465 783.6021 260.88477 783.36135 C 260.97007 782.66436 260.77517 781.99759 260.39063 781.47072 L 275.69141 768.35744 L 295.79884 793.70119 L 296.42579 793.70119 L 276.06446 768.03713 L 293.86524 752.78127 C 294.25077 753.11504 294.73529 753.34316 295.2793 753.41017 C 295.49205 753.43627 295.70194 753.43316 295.90626 753.41017 L 303.97852 787.0176 L 305.58399 793.70119 L 306.0879 793.70119 L 296.38673 753.31056 C 296.69516 753.21546 296.98284 753.06625 297.23438 752.87111 L 330.83595 784.21291 L 323.44141 793.70119 L 324.06446 793.70119 L 331.19727 784.54885 L 341.00977 793.70119 L 341.72852 793.70119 L 331.50001 784.16017 L 360.67188 746.72658 C 360.93169 746.89326 361.2219 747.01943 361.53712 747.08791 L 355.79298 793.70119 L 356.28712 793.70119 L 362.0254 747.14846 C 362.52439 747.16396 362.99844 747.03713 363.41016 746.80471 L 387.22657 781.18947 L 370.51173 793.70119 L 371.33399 793.70119 L 387.50782 781.59377 L 395.89259 793.70119 L 396.49024 793.70119 L 387.9004 781.29885 L 400.06446 772.19338 C 400.48332 772.71475 401.09631 773.08141 401.81251 773.16994 C 401.99228 773.19194 402.16975 773.19496 402.34376 773.18166 L 405.86134 793.70119 L 406.36915 793.70119 L 402.84376 773.09377 C 402.98764 773.05407 403.12592 773.00193 403.25978 772.93947 L 415.3711 793.70119 L 415.93751 793.70119 L 403.6836 772.69142 C 404.26825 772.27368 404.68403 771.62308 404.77931 770.85353 C 404.81761 770.54261 404.79898 770.24046 404.73438 769.95119 L 453.09181 754.36916 C 453.23775 754.70835 453.44958 755.012 453.71876 755.26369 L 423.85353 793.70119 L 424.47462 793.70119 L 454.10743 755.56447 C 454.35849 755.72508 454.63651 755.846 454.93946 755.91603 L 449.83204 793.70119 L 450.32814 793.70119 L 455.42579 755.98049 C 456.02407 756.00559 456.59321 755.82864 457.05665 755.50392 L 477.71485 779.96682 L 470.06642 793.70119 L 470.62892 793.70119 L 478.0547 780.36721 L 489.31446 793.70119 L 489.959 793.70119 L 478.31251 779.91017 L 479.70314 777.41017 C 479.93546 777.51256 480.18653 777.5848 480.45118 777.61721 C 481.02979 777.68901 481.5851 777.56698 482.05861 777.30666 L 493.15431 793.70119 L 493.74611 793.70119 L 482.46486 777.03127 C 482.97373 776.61289 483.33151 776.007 483.41798 775.3008 C 483.53432 774.35359 483.13719 773.46521 482.44532 772.90627 L 500.0879 746.33986 C 500.37089 746.49315 500.68536 746.59728 501.02345 746.63869 C 502.48229 746.81848 503.80939 745.78057 503.99025 744.32228 C 504.16909 742.86263 503.13478 741.53509 501.67579 741.35549 C 500.7905 741.2464 499.95448 741.58808 499.39259 742.19728 L 471.2715 720.76564 C 471.46993 720.4457 471.60788 720.08043 471.65626 719.68166 C 471.7404 718.9995 471.55073 718.35432 471.1836 717.834 L 466.37892 717.834 L 456.09376 750.72267 C 456.01836 750.70707 455.9419 750.69136 455.86329 750.68166 C 455.28724 750.61046 454.73251 750.73142 454.25978 750.99025 L 431.91798 717.834 L 428.67384 717.834 L 417.1836 740.41603 L 398.62696 734.29494 C 398.64686 734.20614 398.66459 734.1154 398.67579 734.02345 C 398.73419 733.54631 398.66001 733.08562 398.48634 732.67189 L 426.37501 717.834 L 425.32618 717.834 L 398.25782 732.23635 C 397.99817 731.84236 397.63395 731.52013 397.20118 731.30861 L 402.30665 717.834 L 401.78321 717.834 L 396.7422 731.13478 C 396.61786 731.10078 396.49077 731.07296 396.35938 731.05666 C 395.77849 730.98506 395.21967 731.10904 394.74415 731.37306 L 385.50587 717.834 L 384.91407 717.834 L 394.33985 731.64845 C 394.27385 731.70305 394.21078 731.76143 394.1504 731.82228 L 376.3086 717.834 L 375.50977 717.834 L 393.83399 732.20119 C 393.60259 732.54021 393.44637 732.93752 393.39259 733.37306 C 393.36659 733.58556 393.36769 733.79427 393.39063 733.99806 L 383.64845 737.18361 L 372.75392 717.834 L 372.19142 717.834 L 383.17188 737.33986 L 364.54493 743.43166 C 364.25199 742.75722 363.6882 742.21852 362.97071 741.97267 L 368.83985 717.834 L 368.33399 717.834 L 362.4922 741.85744 L 362.43165 741.84767 C 360.97266 741.66807 359.64468 742.70522 359.46485 744.16408 C 359.45095 744.27803 359.44492 744.39028 359.44532 744.50197 L 303.55274 749.96486 L 298.25001 750.48244 C 298.23051 750.30122 298.19307 750.12645 298.13868 749.95705 L 360.88087 717.834 L 359.80274 717.834 L 297.94532 749.50197 C 297.54921 748.77102 296.81934 748.23624 295.93165 748.12697 C 295.53226 748.07767 295.14427 748.12213 294.78516 748.2383 L 281.70118 717.834 L 281.16602 717.834 L 293.97657 747.60158 L 275.95118 717.834 L 275.37696 717.834 L 294.0254 748.63088 L 294.02344 748.63088 C 293.45754 749.04991 293.05778 749.68929 292.96485 750.44338 L 292.9629 750.46877 L 262.98243 747.31447 C 262.96963 746.34201 262.42619 745.47017 261.59962 745.0176 L 273.35938 717.834 L 272.82227 717.834 L 261.14844 744.82228 C 260.98838 744.77018 260.82198 744.73058 260.64844 744.709 C 260.498 744.6907 260.34974 744.68873 260.20313 744.69533 L 256.47852 717.834 L 255.98243 717.834 L 259.71485 744.76174 C 259.11297 744.90312 258.58449 745.25059 258.2129 745.73439 L 224.28126 724.3965 L 227.88477 717.834 L 227.32618 717.834 L 223.86524 724.13478 L 213.84571 717.834 L 212.91993 717.834 L 223.62891 724.56642 L 206.52735 755.7051 C 206.29842 755.6062 206.05288 755.53575 205.79297 755.50392 C 205.66922 755.48992 205.54828 755.48465 205.42774 755.48635 L 201.36915 717.834 L 200.875 717.834 L 204.93946 755.53713 C 204.34653 755.6574 203.8176 755.97586 203.4336 756.42971 L 170.92969 733.79299 C 171.12222 733.47818 171.25332 733.12025 171.30079 732.73244 C 171.37589 732.12493 171.23833 731.54183 170.94922 731.05275 L 189.21875 717.834 L 188.38086 717.834 L 170.65821 730.65627 C 170.24296 730.17981 169.6612 729.84734 168.98438 729.76564 C 167.52612 729.58476 166.19739 730.62318 166.01758 732.08205 C 165.99808 732.23643 165.99566 732.38567 166.00196 732.53713 L 105.06055 742.41799 C 104.7791 741.41612 103.9212 740.63218 102.82422 740.49611 C 101.99653 740.39422 101.21465 740.68307 100.65625 741.21877 L 72.640627 717.834 L 71.873049 717.834 L 100.33203 741.58791 C 100.08091 741.93804 99.912934 742.35366 99.857424 742.81252 C 99.798124 743.27777 99.867063 743.72845 100.03125 744.13283 L 85.095705 752.17189 L 68.554689 717.834 L 68.009767 717.834 L 84.662111 752.40236 L 40.285157 776.28127 C 40.043248 775.91824 39.716233 775.6141 39.32422 775.40432 L 63.546876 717.834 L 63.015626 717.834 L 38.871095 775.21486 C 38.718826 775.16586 38.558729 775.13125 38.394532 775.10939 C 37.985027 775.06079 37.584435 775.10926 37.218751 775.23244 L 22.515626 742.18947 L 57.976564 717.834 L 57.109376 717.834 L 22.310547 741.73244 L 12.265625 719.15431 C 12.807227 718.88399 13.180038 718.39521 13.435547 717.834 L 8.699219 717.834 z M 431.37501 717.90627 L 453.85353 751.26564 C 453.52924 751.52914 453.26853 751.86704 453.09767 752.25978 L 417.65626 740.57033 L 429.1172 718.04494 C 429.32345 718.12684 429.54281 718.18627 429.77345 718.21486 C 430.34893 718.28566 430.90248 718.16523 431.37501 717.90627 z M 466.36134 719.53908 C 466.42244 720.44272 466.94034 721.24318 467.709 721.6758 L 457.82618 746.82814 L 466.36134 719.53908 z M 470.97462 721.15627 L 499.09376 742.58791 C 498.89303 742.9069 498.75569 743.2727 498.70704 743.67189 C 498.68134 743.87989 498.68229 744.08459 498.70509 744.28517 L 475.50001 749.00978 L 469.73048 721.91994 C 470.21106 721.78565 470.64138 721.51863 470.97462 721.15627 z M 468.15821 721.87697 C 468.32826 721.93447 468.50616 721.97553 468.68946 721.99806 C 468.87813 722.02116 469.06429 722.02403 469.2461 722.00783 L 475.01759 749.10744 L 458.084 752.55471 C 457.87336 751.86053 457.38396 751.27683 456.73439 750.94924 L 468.15821 721.87697 z M 224.04493 724.8301 L 257.95118 746.14846 C 257.81579 746.41598 257.72011 746.71096 257.68165 747.02541 C 257.67365 747.09081 257.67117 747.1574 257.66797 747.22267 L 208.01368 757.37502 C 207.83645 756.78996 207.46012 756.2837 206.95704 755.94142 L 224.04493 724.8301 z M 166.07227 733.0215 C 166.16697 733.42489 166.35398 733.79458 166.61329 734.10549 L 132.36914 772.51955 L 104.57227 744.79885 C 104.87141 744.42724 105.07779 743.97092 105.14063 743.46291 C 105.16343 743.27129 105.16504 743.08564 105.14844 742.90041 L 166.07227 733.0215 z M 170.63672 734.18752 L 203.15235 756.834 C 202.98479 757.12882 202.8705 757.46155 202.82618 757.82033 C 202.77318 758.24983 202.8265 758.66752 202.96485 759.04689 L 187.66602 766.21096 L 170.04297 734.6797 C 170.26375 734.54508 170.46409 734.37915 170.63672 734.18752 z M 166.96289 734.4551 C 167.05189 734.5312 167.14854 734.59784 167.24805 734.66017 L 146.49024 783.61135 C 146.33511 783.56345 146.17469 783.52643 146.00782 783.50588 C 145.24942 783.41078 144.52643 783.64943 143.98047 784.10549 L 132.7168 772.86721 L 166.96289 734.4551 z M 393.4922 734.48244 C 393.79213 735.45292 394.63405 736.20754 395.70704 736.33986 C 395.84095 736.35626 395.97281 736.35899 396.10352 736.35549 L 401.76173 767.8965 C 401.51431 767.9318 401.27576 768.00144 401.05274 768.10158 L 383.89454 737.62111 L 393.4922 734.48244 z M 398.47267 734.76174 L 416.95899 740.85939 L 403.11915 768.05861 C 402.91277 767.97641 402.69392 767.91523 402.4629 767.88674 C 402.3933 767.87874 402.32459 767.87616 402.25587 767.87306 L 396.59376 736.29689 C 397.42662 736.11744 398.13072 735.54721 398.47267 734.76174 z M 167.68555 734.88088 C 167.88849 734.96288 168.10447 735.02057 168.33204 735.04885 C 168.77653 735.10245 169.20841 735.04292 169.59961 734.89455 L 187.21875 766.42189 L 147.97461 784.8008 C 147.72982 784.38318 147.37313 784.03679 146.93946 783.80471 L 167.68555 734.88088 z M 383.41798 737.77541 L 400.62501 768.34181 C 400.44749 768.465 400.28417 768.60731 400.14063 768.76955 L 364.4629 745.71877 C 364.60679 745.44356 364.70572 745.14072 364.7461 744.81447 C 364.7848 744.49959 364.76397 744.19106 364.69727 743.89845 L 383.41798 737.77541 z M 417.4297 741.01369 L 452.94142 752.72658 C 452.92152 752.81508 452.9074 752.90565 452.8965 752.99806 C 452.8594 753.30926 452.87707 753.61238 452.94337 753.90236 L 404.58204 769.48244 C 404.37052 768.98895 404.01464 768.56802 403.5586 768.27931 L 417.4297 741.01369 z M 22.103516 742.47267 L 36.769532 775.43166 C 36.384263 775.64761 36.059983 775.95512 35.822266 776.33205 L 1.6542969 758.96291 C 1.6868469 758.84088 1.7141788 758.71989 1.7304688 758.59181 C 1.8128587 757.92399 1.6374141 757.2834 1.2871094 756.76955 L 22.103516 742.47267 z M 498.80079 744.76564 C 498.95568 745.27905 499.26368 745.7321 499.67775 746.06642 L 482.03712 772.63478 C 481.7542 772.48147 481.43944 772.37563 481.10157 772.334 C 480.88432 772.3069 480.67144 772.31008 480.4629 772.334 L 475.59962 749.49025 L 498.80079 744.76564 z M 359.4922 744.99025 C 359.59887 745.5459 359.87995 746.04621 360.28321 746.4258 L 331.13868 783.82424 L 297.59376 752.53517 C 297.94086 752.14569 298.17724 751.65103 298.2461 751.09377 C 298.2511 751.05447 298.25287 751.01577 298.25587 750.97658 L 334.50196 747.43361 L 359.4922 744.99025 z M 364.19141 746.13869 L 399.78517 769.29103 C 399.63897 769.56807 399.53681 769.87371 399.4961 770.20314 C 399.4262 770.76958 399.54241 771.31548 399.79298 771.78322 L 387.6211 780.89455 L 363.81446 746.52541 C 363.95262 746.40968 364.07888 746.28027 364.19141 746.13869 z M 257.68751 747.71877 C 257.72181 747.95814 257.78737 748.19157 257.88282 748.40822 L 238.14649 773.25197 L 207.9668 759.0508 C 208.0336 758.86624 208.08297 758.67262 208.10743 758.47072 C 208.13343 758.26128 208.13048 758.05517 208.10938 757.85353 L 257.68751 747.71877 z M 262.94141 747.80471 L 292.95118 750.96096 C 292.99028 751.50678 293.19745 752.01422 293.5254 752.4258 L 275.75782 767.65431 L 261.53321 749.72072 C 262.25615 749.35278 262.79472 748.65622 262.94141 747.80471 z M 258.14258 748.87306 C 258.3391 749.15284 258.58752 749.39362 258.87696 749.584 L 258.14258 777.66408 L 258.07227 780.38283 C 257.20071 780.43873 256.42437 780.91825 255.97852 781.64064 L 238.60352 773.46486 L 258.14258 748.87306 z M 475.1172 749.58596 L 479.98439 772.43752 C 479.5846 772.56181 479.22135 772.77666 478.92579 773.06447 L 457.709 754.8633 C 457.95613 754.51528 458.12384 754.10187 458.1797 753.64846 C 458.2061 753.44044 458.20225 753.23456 458.18165 753.03517 L 475.1172 749.58596 z M 259.36329 749.8301 C 259.56322 749.9077 259.77407 749.96417 259.9961 749.99221 C 260.36242 750.03701 260.7211 750.00412 261.05469 749.90822 L 275.38477 767.97267 L 260.06446 781.10158 C 259.66611 780.72649 259.15254 780.46791 258.56837 780.39455 L 258.56251 780.39455 L 258.63477 777.68557 L 259.36329 749.8301 z M 457.69728 755.50002 L 478.60353 773.43752 C 478.35645 773.78535 478.19064 774.19699 478.13478 774.65041 C 478.00937 775.671 478.47958 776.62585 479.2715 777.16994 L 477.97267 779.50783 L 457.69728 755.50002 z M 1.4804688 759.4258 L 35.597657 776.76955 C 35.515957 776.97674 35.457269 777.19398 35.427735 777.42385 C 35.353985 778.0293 35.489062 778.60815 35.775391 779.09572 L 29.482423 783.61916 L 1.4023438 759.57814 C 1.4321338 759.53004 1.4565688 759.47716 1.4804688 759.4258 z " />
      <path
         id="path1-6"
         style="display:inline;opacity:0.122;fill:#ffffff;fill-opacity:1;fill-rule:nonzero;stroke:none;stroke-width:0.0245668"
         inkscape:label="Network Top Orig"
         d="M 979.56643 717.834 L 958.41994 730.49611 C 957.92524 729.82172 957.12289 729.38888 956.22268 729.40627 C 954.75306 729.43487 953.58452 730.64945 953.6133 732.11916 C 953.6417 733.58848 954.8563 734.75702 956.32619 734.72853 C 956.66342 734.72153 956.98265 734.64979 957.27737 734.52931 L 973.08205 764.91603 C 972.33261 765.39945 971.84108 766.24602 971.8594 767.20314 L 971.83791 766.959 L 885.11721 774.95705 C 884.88385 773.69976 883.77352 772.75927 882.45315 772.78517 C 881.77308 772.79807 881.15982 773.06745 880.69729 773.49611 L 853.57619 749.19728 C 853.9151 748.74092 854.11358 748.17299 854.10158 747.56056 C 854.07308 746.09071 852.85854 744.92253 851.38869 744.95119 C 849.91937 744.97959 848.75077 746.19446 848.77932 747.66408 C 848.79032 748.23682 848.98379 748.76323 849.3008 749.19142 L 808.25002 785.78908 C 807.76202 785.33392 807.10454 785.06029 806.38478 785.07424 C 804.91517 785.10274 803.74697 786.31732 803.77541 787.78713 C 803.78731 788.39845 804.00578 788.95569 804.36135 789.39846 L 799.91018 793.70119 L 800.6133 793.70119 L 804.70119 789.75002 C 805.17983 790.16185 805.80539 790.40966 806.48635 790.3965 C 806.61035 790.3935 806.73032 790.38015 806.84963 790.36135 L 807.70119 793.70119 L 808.20705 793.70119 L 807.32619 790.24025 C 807.93581 790.02336 808.43952 789.59144 808.75197 789.03713 L 819.21486 793.70119 L 820.42385 793.70119 L 808.95314 788.58791 C 809.04944 788.304 809.10175 788.00072 809.09572 787.68361 C 809.08432 787.11069 808.89088 786.58464 808.57424 786.15627 L 849.62697 749.55861 C 849.81938 749.73801 850.03683 749.88763 850.27541 750.00392 L 833.82033 793.70119 L 834.34377 793.70119 L 850.7344 750.17971 C 850.97513 750.24551 851.2282 750.27859 851.49025 750.27346 C 851.64186 750.27046 851.78949 750.25183 851.93361 750.22463 L 864.42775 793.70119 L 864.93752 793.70119 L 852.40627 750.08986 C 852.59088 750.01776 852.76613 749.92608 852.92775 749.81642 L 880.1719 783.05861 L 877.26955 793.70119 L 877.78127 793.70119 L 880.55471 783.52541 L 888.89455 793.70119 L 889.52932 793.70119 L 880.71291 782.94338 L 882.04299 778.06642 C 882.20882 778.09532 882.38002 778.10899 882.55471 778.10549 C 882.95676 778.09749 883.33506 777.999 883.67385 777.83205 L 893.36916 793.70119 L 893.94533 793.70119 L 884.09377 777.57619 C 884.74377 777.09031 885.16192 776.31712 885.16213 775.44728 L 971.87698 767.44728 C 971.92318 767.86461 972.0677 768.25027 972.28323 768.58596 L 936.74612 793.70119 L 937.59768 793.70119 L 972.58401 768.97463 C 973.01039 769.42667 973.59016 769.72946 974.24026 769.79689 L 971.92776 793.70119 L 972.41994 793.70119 L 974.7344 769.8008 C 975.239 769.7601 975.70298 769.58221 976.08791 769.3008 L 991.46682 789.3301 L 982.60354 793.70119 L 983.71682 793.70119 L 991.77346 789.72853 L 994.82424 793.70119 L 995.44338 793.70119 L 992.22268 789.50588 L 1001.2774 785.04103 C 1001.7117 785.95928 1002.6535 786.58739 1003.7344 786.56642 L 1003.7344 786.56447 C 1003.8692 786.56147 1004 786.54731 1004.1289 786.52541 L 1006.5039 793.70119 L 1007.0215 793.70119 L 1004.6055 786.39846 C 1005.4046 786.10291 1006.0208 785.43733 1006.2481 784.61135 L 1025.4121 788.03127 L 1023.4785 793.70119 L 1023.9961 793.70119 L 1025.9004 788.11721 L 1057.2051 793.70119 L 1059.9981 793.70119 L 1026.0606 787.6465 L 1034.2188 763.72463 C 1034.4345 763.77653 1034.6602 763.8052 1034.8926 763.8008 C 1035.4723 763.7894 1036.0025 763.59086 1036.4336 763.2676 L 1063.4082 793.10939 C 1063.2543 793.27576 1063.1853 793.50025 1063.0782 793.70119 L 1067.7129 793.70119 C 1067.3973 793.09024 1066.8667 792.60961 1066.211 792.38869 L 1073.4043 761.99221 C 1073.5807 762.02511 1073.7607 762.03887 1073.9453 762.03517 C 1074.1353 762.03117 1074.3204 762.00861 1074.4981 761.96681 L 1084.0489 787.97658 L 1068.0098 793.70119 L 1069.4688 793.70119 L 1084.2149 788.43557 L 1086.1485 793.70119 L 1086.6719 793.70119 L 1084.6797 788.2715 L 1106.9785 780.31057 C 1107.2045 780.79688 1107.574 781.20232 1108.0313 781.47463 L 1102.2129 793.70119 L 1102.7637 793.70119 L 1108.4805 781.68557 C 1108.7823 781.79724 1109.1087 781.85847 1109.4492 781.85158 C 1110.9188 781.82308 1112.086 780.60789 1112.0586 779.13869 C 1112.0286 777.66842 1110.8154 776.50055 1109.3457 776.52932 C 1108.4539 776.54662 1107.6751 777.00296 1107.2051 777.68557 L 1076.334 760.45119 C 1076.4852 760.10638 1076.571 759.72584 1076.5625 759.32424 C 1076.5375 758.00561 1075.5552 756.93113 1074.291 756.74416 L 1077.834 720.73049 C 1079.2866 720.68419 1080.4385 719.47931 1080.4121 718.0215 C 1080.4108 717.95486 1080.3773 717.89932 1080.3711 717.834 L 1075.1367 717.834 C 1075.1275 717.93352 1075.0815 718.02057 1075.084 718.12306 C 1075.096 718.78404 1075.3508 719.38464 1075.7578 719.84181 L 1036.5332 759.09181 C 1036.3891 758.97207 1036.2338 758.86662 1036.0664 758.77931 L 1052.8164 717.834 L 1052.2871 717.834 L 1035.6133 758.59377 C 1035.3515 758.51417 1035.0731 758.47271 1034.7852 758.47853 C 1034.7532 758.47903 1034.7215 758.48435 1034.6895 758.48635 L 1028.6231 717.834 L 1028.1289 717.834 L 1034.2051 758.55471 C 1033.4232 758.74583 1032.7813 759.28254 1032.4414 759.99025 L 1011.0567 752.07619 L 1018.7188 717.834 L 1018.2168 717.834 L 1010.5918 751.90431 L 958.84182 732.75588 C 958.90482 732.51988 958.93882 732.27216 958.93362 732.01564 C 958.92562 731.62204 958.83213 731.25166 958.6719 730.91799 L 980.52151 717.834 L 979.56643 717.834 z M 1076.1153 720.1758 C 1076.4229 720.41343 1076.7818 720.58254 1077.1719 720.66799 L 1065.543 792.25392 C 1065.466 792.24892 1065.3899 792.24511 1065.3106 792.24611 C 1064.7303 792.25721 1064.1989 792.45617 1063.7676 792.77932 L 1036.793 762.93947 C 1037.2403 762.45274 1037.5099 761.80081 1037.4961 761.08791 C 1037.4841 760.45995 1037.2537 759.88774 1036.8809 759.43947 L 1076.1153 720.1758 z M 1076.8301 725.83791 L 1073.7949 756.71681 C 1072.8548 756.75141 1072.047 757.27205 1071.6016 758.02931 L 1076.8301 725.83791 z M 958.6719 733.21681 L 1010.4844 752.38869 L 1004.0215 781.2676 C 1003.8936 781.2516 1003.7652 781.23971 1003.6328 781.24221 C 1003.0476 781.25361 1002.5114 781.45649 1002.0781 781.78517 L 958.24026 733.85353 C 958.41307 733.66341 958.55987 733.45073 958.6719 733.21681 z M 957.87893 734.18556 L 1001.7149 782.11525 C 1001.6569 782.17855 1001.6039 782.24569 1001.5528 782.31447 L 976.9844 768.15431 C 977.1171 767.82911 977.18914 767.47306 977.18166 767.09963 C 977.15336 765.6301 975.93874 764.46156 974.46877 764.49025 C 974.1316 764.49625 973.81068 764.56884 973.51565 764.68947 L 957.71291 734.30275 C 957.76931 734.26565 957.82533 734.22644 957.87893 734.18556 z M 853.65432 749.9258 L 880.36721 773.86135 C 880.02824 774.31793 879.82988 774.88541 879.84182 775.49807 C 879.86342 776.62038 880.57934 777.56394 881.57033 777.93557 L 880.3301 782.47853 L 853.65432 749.9258 z M 1010.9492 752.56056 L 1032.2696 760.44924 L 1032.2715 760.44924 C 1032.2085 760.6851 1032.1728 760.9349 1032.1778 761.19142 C 1032.1878 761.67156 1032.3264 762.11707 1032.5567 762.50197 L 1005.6758 782.1426 C 1005.363 781.7893 1004.9583 781.52119 1004.5 781.37307 L 1010.9492 752.56056 z M 1071.293 759.93166 C 1071.4815 760.81754 1072.1096 761.53602 1072.9317 761.85549 L 1066.7071 788.15432 L 1071.293 759.93166 z M 1076.0879 760.87892 L 1106.959 778.1133 C 1106.8054 778.45749 1106.7222 778.84016 1106.7305 779.24221 C 1106.7305 779.45176 1106.7635 779.65236 1106.8145 779.84767 L 1084.5117 787.81057 L 1074.9649 761.81056 C 1075.4216 761.60962 1075.8094 761.28481 1076.0879 760.87892 z M 1032.8457 762.90041 C 1033.0952 763.18249 1033.4047 763.4102 1033.752 763.56642 L 1025.5703 787.56057 L 1006.334 784.12892 C 1006.344 784.03822 1006.3448 783.94613 1006.3438 783.85353 C 1006.3338 783.37291 1006.1973 782.92602 1005.9668 782.54103 L 1032.8457 762.90041 z M 976.75588 768.59181 L 1001.293 782.73439 C 1001.112 783.10276 1001.0111 783.51829 1001.0196 783.95705 C 1001.0196 784.17109 1001.0554 784.3777 1001.1074 784.57619 L 991.91409 789.10939 L 976.4551 768.97463 C 976.56645 768.85627 976.6676 768.72886 976.75588 768.59181 z " />
      <path
         id="path2"
         style="display:inline;opacity:0.122;fill:#ffffff;fill-opacity:1;fill-rule:nonzero;stroke:none;stroke-width:0.0245668"
         inkscape:label="Network Top Orig"
         d="M 523.66993 717.834 L 502.88282 741.83791 C 502.81422 741.78501 502.74045 741.73816 502.66212 741.69338 C 501.38905 740.95951 499.76283 741.40045 499.02931 742.67385 C 498.29575 743.94698 498.73645 745.57311 500.00978 746.30666 C 501.28513 747.03841 502.9106 746.60339 503.64259 745.32814 C 503.91739 744.85358 504.02681 744.32758 503.9922 743.82033 L 541.56447 737.77736 C 541.62037 737.82266 541.68115 737.85864 541.74415 737.8965 C 542.06286 738.07644 542.40179 738.18985 542.74415 738.23244 L 541.04298 793.70119 L 541.53517 793.70119 L 543.23634 738.24416 C 543.6863 738.21666 544.12522 738.07302 544.50978 737.82619 L 586.13869 791.08986 L 577.75587 793.70119 L 579.40431 793.70119 L 586.4629 791.50197 L 588.18361 793.70119 L 591.70119 793.70119 C 591.58336 793.6025 591.51292 793.46603 591.37501 793.38674 C 590.48361 792.87417 589.41854 792.93693 588.60939 793.4551 L 586.96095 791.34767 L 616.96486 782.00002 L 593.49415 793.70119 L 594.59181 793.70119 L 617.54884 782.25588 C 617.77346 782.6188 618.08834 782.93244 618.48439 783.16017 C 618.66408 783.2682 618.85692 783.3422 619.04884 783.40041 L 616.97853 793.70119 L 617.47853 793.70119 L 619.52931 783.50002 C 620.25077 783.57582 620.97692 783.35212 621.53126 782.88088 L 632.60939 793.70119 L 633.31642 793.70119 L 624.90626 785.48635 L 634.61134 793.70119 L 635.37306 793.70119 L 621.9922 782.37697 C 622.0362 782.31357 622.07719 782.24819 622.1172 782.17971 C 622.40668 781.67665 622.51178 781.12015 622.45705 780.584 L 661.9297 772.84182 C 662.11638 773.47595 662.53621 774.04296 663.15431 774.39846 C 663.69867 774.71173 664.30656 774.80731 664.88283 774.71877 L 669.61916 793.70119 L 670.12306 793.70119 L 665.35939 774.59963 C 665.53625 774.53783 665.70808 774.45983 665.86916 774.36135 L 680.3047 793.70119 L 680.91603 793.70119 L 666.26173 774.06838 C 666.46485 773.88502 666.64377 773.66773 666.78713 773.41799 C 666.80323 773.39029 666.81529 773.36055 666.83009 773.33205 L 715.93947 793.70119 L 717.21095 793.70119 L 667.01955 772.88088 C 667.25862 772.11229 667.13063 771.28683 666.69923 770.63088 L 684.50002 756.38088 L 723.65236 793.70119 L 724.3633 793.70119 L 684.88673 756.07033 L 727.96095 721.58595 C 728.13075 721.76154 728.32633 721.91917 728.54885 722.04689 C 728.8903 722.24284 729.25649 722.35214 729.62502 722.38674 L 729.49806 793.70119 L 729.99025 793.70119 L 730.11525 722.38869 C 730.94812 722.31219 731.73273 721.84689 732.18166 721.06642 C 732.80912 719.97522 732.53807 718.65937 731.65822 717.834 L 728.07814 717.834 C 727.8923 718.00892 727.7022 718.18139 727.56838 718.41408 C 727.40062 718.7067 727.29666 719.01739 727.24806 719.33205 L 703.01564 717.834 L 695.0547 717.834 L 727.21877 719.82228 C 727.22177 719.88978 727.22454 719.95645 727.23244 720.02345 L 663.56837 732.8965 C 663.54398 732.8142 663.51504 732.73354 663.48244 732.65431 L 688.27541 718.8965 C 688.48576 719.17779 688.75424 719.42144 689.07814 719.60744 C 690.35217 720.34037 691.98009 719.90157 692.71291 718.62697 C 692.85858 718.37462 692.93522 718.10507 692.99025 717.834 L 685.13478 717.834 L 662.66408 720.3965 L 662.87697 717.834 L 662.38673 717.834 L 662.16798 720.45314 L 627.31642 724.4258 C 627.27202 724.21437 627.20498 724.00789 627.11134 723.81252 L 635.88869 717.834 L 634.82033 717.834 L 626.76955 723.28127 C 626.57113 723.03888 626.3287 722.82577 626.04103 722.66017 C 625.5463 722.37558 624.99908 722.27125 624.47072 722.32033 L 623.35744 717.834 L 622.84962 717.834 L 623.98634 722.41017 C 623.34319 722.59338 622.76622 723.01519 622.40626 723.64064 C 622.31636 723.79791 622.24482 723.95959 622.18947 724.12502 L 595.24415 717.834 L 593.07033 717.834 L 598.5879 719.12502 L 622.07619 724.62111 C 622.05689 724.76911 622.05116 724.91692 622.05666 725.06447 L 591.06056 729.0801 L 584.75587 717.834 L 584.19142 717.834 L 590.53712 729.1465 L 545.65822 734.96095 C 545.62572 734.83058 545.58303 734.70149 545.53322 734.57619 L 567.30665 723.49806 L 578.43751 717.834 L 577.35548 717.834 L 570.72853 721.20705 L 545.30275 734.14455 C 545.24415 734.05215 545.17846 733.96316 545.10743 733.87892 L 560.97072 717.834 L 560.27931 717.834 L 544.76173 733.52931 C 544.65026 733.43781 544.53153 733.35151 544.40236 733.27736 C 544.27305 733.19966 544.13791 733.14284 544.00001 733.09377 L 548.11134 717.834 L 547.59962 717.834 L 543.5254 732.96486 C 542.45619 732.78107 541.33988 733.26286 540.76759 734.25783 C 540.18063 735.27782 540.34637 736.52162 541.0879 737.35353 L 503.91407 743.334 C 503.80139 742.8986 503.57905 742.49264 503.25782 742.15822 L 524.32032 717.834 L 523.66993 717.834 z M 582.71681 717.834 C 582.87425 717.85173 583.01939 717.84431 583.17579 717.834 L 582.71681 717.834 z M 687.84572 718.01955 C 687.88982 718.17597 687.94758 718.32836 688.01955 718.47463 L 663.25587 732.21486 C 663.03343 731.86993 662.72808 731.57037 662.34767 731.35158 C 662.16423 731.2413 661.97036 731.1671 661.77345 731.10939 L 662.62306 720.89455 L 687.84572 718.01955 z M 727.3301 720.50392 C 727.404 720.74999 727.51352 720.98465 727.65627 721.20119 L 684.52736 755.72853 L 663.10744 735.31056 C 663.18704 735.20919 663.26207 735.10501 663.32814 734.99025 C 663.6199 734.48284 663.72252 733.91963 663.66408 733.37892 L 727.3301 720.50392 z M 662.12502 720.95314 L 661.28712 731.01564 C 660.27638 730.91472 659.25187 731.39682 658.71291 732.334 C 658.64601 732.45107 658.59259 732.57163 658.54494 732.69338 L 627.28517 725.6465 C 627.34897 725.40479 627.37671 725.1585 627.37111 724.91408 L 662.12502 720.95314 z M 622.12111 725.55275 C 622.27906 726.2531 622.71726 726.88877 623.38869 727.27541 C 623.66227 727.42822 623.94661 727.53115 624.2383 727.584 L 619.79689 778.19533 C 619.42764 778.19833 619.06509 778.27552 618.72853 778.4258 L 591.32033 729.54103 L 622.12111 725.55275 z M 627.11525 726.11135 L 658.40822 733.16799 C 658.24978 734.00514 658.50297 734.87572 659.09377 735.49611 L 646.28908 750.15822 L 626.60939 726.834 C 626.76543 726.67578 626.90546 726.49864 627.0215 726.29689 C 627.0559 726.23589 627.08575 726.17356 627.11525 726.11135 z M 626.23244 727.15236 L 645.96291 750.53322 L 621.3672 778.69924 C 621.2949 778.64404 621.21644 778.59481 621.13673 778.54689 L 621.13478 778.54885 C 620.86111 778.39598 620.57591 778.29426 620.28322 778.24221 L 624.72658 727.62892 C 625.2635 727.62592 625.78912 727.46002 626.23244 727.15236 z M 590.79494 729.61135 L 618.29884 778.66799 C 618.05326 778.8369 617.83464 779.045 617.65236 779.29689 L 545.50197 736.6758 C 545.6796 736.2804 545.75174 735.8576 545.72853 735.44728 L 590.79494 729.61135 z M 662.76955 735.66603 L 684.14064 756.03908 L 666.39259 770.24611 L 666.39259 770.24806 C 666.22291 770.07255 666.02713 769.91501 665.8047 769.78713 C 665.38805 769.5483 664.93488 769.43456 664.48634 769.43361 L 661.50392 736.27736 C 661.96789 736.19136 662.40647 735.98249 662.76955 735.66603 z M 659.46291 735.81838 C 659.53551 735.87368 659.61349 735.92191 659.69337 735.96877 C 660.11043 736.20784 660.56497 736.32146 661.01369 736.32228 L 663.99611 769.47853 C 663.6259 769.54692 663.2718 769.69504 662.959 769.91213 L 646.60939 750.53713 L 659.46291 735.81838 z M 545.37111 737.16213 L 617.40626 779.71877 C 617.15052 780.26021 617.09387 780.85305 617.21291 781.40627 L 586.64259 790.92971 L 544.89845 737.52345 C 545.00602 737.42197 545.10325 737.31086 545.19337 737.19142 L 545.37111 737.16213 z M 646.28322 750.91213 L 662.58205 770.22853 C 662.42643 770.38666 662.28591 770.56616 662.16994 770.7676 C 661.88102 771.2703 661.77713 771.82727 661.83205 772.3633 L 622.35939 780.10744 C 622.24272 779.70616 622.03179 779.33352 621.73634 779.02346 L 646.28322 750.91213 z " />
    </g>
    <g
       id="g6"
       inkscape:label="Network Top"
       transform="rotate(180,556.02954,396.85062)">
      <path
         id="path4"
         style="display:inline;opacity:0.122;fill:#ffffff;fill-opacity:1;fill-rule:nonzero;stroke:none;stroke-width:0.0245668"
         inkscape:label="Network Top Orig"
         d="m 8.699219,717.834 c 0.2435175,0.54396 0.6175129,1.01666 1.1542969,1.29492 L 0,753.96486 v 1.80274 l 10.310547,-36.45118 c 0.144864,0.0419 0.290975,0.0764 0.445313,0.0957 0.364634,0.0439 0.719917,0.0134 1.052734,-0.0801 L 21.900391,742.01564 0.97070315,756.38869 C 0.70154342,756.11712 0.37370363,755.90297 0,755.7676 v 5.82617 l 9.9550784,32.10742 H 10.470703 L 0.22656251,760.66799 c 0.34492765,-0.16252 0.64890442,-0.39368 0.89257819,-0.6836 l 27.9531253,23.93164 -13.611328,9.78516 h 0.841797 l 13.15625,-9.45508 11.044922,9.45508 h 0.753906 l -11.390625,-9.75195 6.195313,-4.45508 c 0.416251,0.47976 1.00254,0.81466 1.683594,0.89844 0.654728,0.0808 1.283619,-0.0873 1.794922,-0.42774 l 11.089844,13.73633 h 0.628906 L 39.925782,779.66017 c 0.166955,-0.16378 0.313425,-0.35082 0.433594,-0.55664 l 30.896485,14.59766 h 1.148438 L 41.585938,779.14064 86.83594,793.70119 h 1.603515 L 67.166017,786.85549 40.66797,778.3301 c 0.01693,-0.083 0.03237,-0.16744 0.04297,-0.25391 0.05976,-0.48172 -0.01489,-0.94833 -0.191406,-1.36523 l 44.35547,-23.86524 19.677736,40.85547 h 0.54687 L 85.308596,752.6133 100.25781,744.57033 c 0.41085,0.64445 1.09599,1.10843 1.91602,1.20898 0.11485,0.0147 0.23023,0.0174 0.3457,0.0156 l 4.58594,47.90625 h 0.49414 l -3.5918,-37.52148 -1,-10.42969 c 0.46033,-0.0914 0.88045,-0.29901 1.22657,-0.59766 l 27.80664,27.73438 -18.55664,20.81445 h 0.65625 l 18.24804,-20.4668 11.24415,11.21485 c -0.31357,0.37772 -0.52948,0.84904 -0.59375,1.37304 -0.0438,0.35351 -0.0141,0.69903 0.0742,1.02344 l -18.33398,6.85547 h 1.40039 l 17.10547,-6.39648 c 0.0484,0.0989 0.102,0.19397 0.16211,0.28515 l -7.76758,6.11133 h 0.79883 l 7.27344,-5.72266 c 0.41029,0.43185 0.96616,0.73075 1.60351,0.81055 0.69176,0.0842 1.35181,-0.1067 1.87696,-0.48437 l 4.6875,5.39648 h 0.65039 l -4.9668,-5.71875 c 0.2099,-0.2188 0.38398,-0.472 0.50976,-0.75586 l 19.21485,6.47461 h 1.5332 l -20.5918,-6.93945 c 0.0221,-0.0943 0.042,-0.19175 0.0547,-0.29102 0.0519,-0.42734 -0.003,-0.84353 -0.14062,-1.22265 l 39.27539,-18.39649 15.00586,26.84961 h 0.5625 l -15.12305,-27.05859 15.26953,-7.15039 c 0.40544,0.68898 1.11173,1.18934 1.9668,1.29492 0.12172,0.0157 0.24166,0.0178 0.36133,0.0156 l 3.50586,32.89844 H 209.5 l -3.50976,-32.94922 c 0.74204,-0.1484 1.38754,-0.60972 1.76953,-1.25781 l 30.07422,14.15234 -15.93359,20.05469 h 0.62695 l 15.76367,-19.83984 17.4707,8.2207 c -0.0762,0.19901 -0.13218,0.40851 -0.16015,0.63086 -0.0566,0.45828 0.008,0.90329 0.16797,1.30273 l -18.31055,9.68555 h 1.04883 l 17.48242,-9.24609 c 0.14922,0.23726 0.33732,0.44791 0.55273,0.6289 l -5.90429,8.61719 h 0.59375 l 5.71484,-8.33984 c 0.29247,0.16102 0.61882,0.27383 0.9707,0.3164 1.04593,0.13073 2.02434,-0.37123 2.56055,-1.20117 l 16.88867,9.22461 h 1.02344 l -17.68555,-9.66016 c 0.0868,-0.21281 0.14957,-0.43893 0.17969,-0.67968 0.0853,-0.69699 -0.1096,-1.36376 -0.49414,-1.89063 l 15.30078,-13.11328 20.10743,25.34375 h 0.62695 l -20.36133,-25.66406 17.80078,-15.25586 c 0.38553,0.33377 0.87005,0.56189 1.41406,0.6289 0.21275,0.0261 0.42264,0.023 0.62696,0 l 8.07226,33.60743 1.60547,6.68359 h 0.50391 l -9.70117,-40.39063 c 0.30843,-0.0951 0.59611,-0.24431 0.84765,-0.43945 l 33.60157,31.3418 -7.39454,9.48828 h 0.62305 l 7.13281,-9.15234 9.8125,9.15234 h 0.71875 l -10.22851,-9.54102 29.17187,-37.43359 c 0.25981,0.16668 0.55002,0.29285 0.86524,0.36133 l -5.74414,46.61328 h 0.49414 l 5.73828,-46.55273 c 0.49899,0.0155 0.97304,-0.11133 1.38476,-0.34375 l 23.81641,34.38476 -16.71484,12.51172 h 0.82226 l 16.17383,-12.10742 8.38477,12.10742 h 0.59765 l -8.58984,-12.40234 12.16406,-9.10547 c 0.41886,0.52137 1.03185,0.88803 1.74805,0.97656 0.17977,0.022 0.35724,0.025 0.53125,0.0117 l 3.51758,20.51953 h 0.50781 l -3.52539,-20.60742 c 0.14388,-0.0397 0.28216,-0.0918 0.41602,-0.1543 l 12.11132,20.76172 h 0.56641 l -12.25391,-21.0097 c 0.58465,-0.41774 1.00043,-1.06834 1.09571,-1.83789 0.0383,-0.31092 0.0197,-0.61307 -0.0449,-0.90234 l 48.35743,-15.58203 c 0.14594,0.33919 0.35777,0.64284 0.62695,0.89453 l -29.86523,38.4375 h 0.62109 l 29.63281,-38.13672 c 0.25106,0.16061 0.52908,0.28153 0.83203,0.35156 l -5.10742,37.78516 h 0.4961 l 5.09765,-37.7207 c 0.59828,0.0251 1.16742,-0.15185 1.63086,-0.47657 l 20.6582,24.4629 -7.64843,13.73437 h 0.5625 l 7.42578,-13.33398 11.25976,13.33398 h 0.64454 l -11.64649,-13.79102 1.39063,-2.5 c 0.23232,0.10239 0.48339,0.17463 0.74804,0.20704 0.57861,0.0718 1.13392,-0.0502 1.60743,-0.31055 l 11.0957,16.39453 h 0.5918 l -11.28125,-16.66992 c 0.50887,-0.41838 0.86665,-1.02427 0.95312,-1.73047 0.11634,-0.94721 -0.28079,-1.83559 -0.97266,-2.39453 l 17.64258,-26.56641 c 0.28299,0.15329 0.59746,0.25742 0.93555,0.29883 1.45884,0.17979 2.78594,-0.85812 2.9668,-2.31641 0.17884,-1.45965 -0.85547,-2.78719 -2.31446,-2.96679 -0.88529,-0.10909 -1.72131,0.23259 -2.2832,0.84179 L 471.2715,720.76564 c 0.19843,-0.31994 0.33638,-0.68521 0.38476,-1.08398 0.0841,-0.68216 -0.10553,-1.32734 -0.47266,-1.84766 h -4.80468 l -10.28516,32.88867 c -0.0754,-0.0156 -0.15186,-0.0313 -0.23047,-0.041 -0.57605,-0.0712 -1.13078,0.0498 -1.60351,0.30859 L 431.91798,717.834 h -3.24414 l -11.49024,22.58203 -18.55664,-6.12109 c 0.0199,-0.0888 0.0376,-0.17954 0.0488,-0.27149 0.0584,-0.47714 -0.0158,-0.93783 -0.18945,-1.35156 l 27.8887,-14.83789 h -1.04883 l -27.06836,14.40235 c -0.25965,-0.39399 -0.62387,-0.71622 -1.05664,-0.92774 l 5.10547,-13.47461 h -0.52344 l -5.04101,13.30078 c -0.12434,-0.034 -0.25143,-0.0618 -0.38282,-0.0781 -0.58089,-0.0716 -1.13971,0.0524 -1.61523,0.3164 L 385.50587,717.834 h -0.5918 l 9.42578,13.81445 c -0.066,0.0546 -0.12907,0.11298 -0.18945,0.17383 L 376.3086,717.834 h -0.79883 l 18.32422,14.36719 c -0.2314,0.33902 -0.38762,0.73633 -0.4414,1.17187 -0.026,0.2125 -0.0249,0.42121 -0.002,0.625 l -9.74218,3.18555 -10.89453,-19.34961 h -0.5625 l 10.98046,19.50586 -18.62695,6.0918 c -0.29294,-0.67444 -0.85673,-1.21314 -1.57422,-1.45899 l 5.86914,-24.13867 h -0.50586 l -5.84179,24.02344 -0.0606,-0.01 c -1.45899,-0.1796 -2.78697,0.85755 -2.9668,2.31641 -0.0139,0.11395 -0.0199,0.2262 -0.0195,0.33789 l -55.89258,5.46289 -5.30273,0.51758 c -0.0195,-0.18122 -0.0569,-0.35599 -0.11133,-0.52539 L 360.88087,717.834 h -1.07813 l -61.85742,31.66797 c -0.39611,-0.73095 -1.12598,-1.26573 -2.01367,-1.375 -0.39939,-0.0493 -0.78738,-0.005 -1.14649,0.11133 L 281.70118,717.834 h -0.53516 l 12.81055,29.76758 -18.02539,-29.76758 h -0.57422 l 18.64844,30.79688 h -0.002 c -0.5659,0.41903 -0.96566,1.05841 -1.05859,1.8125 l -0.002,0.0254 -29.98047,-3.1543 c -0.0128,-0.97246 -0.55624,-1.8443 -1.38281,-2.29687 l 11.75976,-27.1836 h -0.53711 l -11.67383,26.98828 c -0.16006,-0.0521 -0.32646,-0.0917 -0.5,-0.11328 -0.15044,-0.0183 -0.2987,-0.0203 -0.44531,-0.0137 L 256.47852,717.834 h -0.49609 l 3.73242,26.92774 c -0.60188,0.14138 -1.13036,0.48885 -1.50195,0.97265 l -33.93164,-21.33789 3.60351,-6.5625 h -0.55859 l -3.46094,6.30078 -10.01953,-6.30078 h -0.92578 l 10.70898,6.73242 -17.10156,31.13868 c -0.22893,-0.0989 -0.47447,-0.16935 -0.73438,-0.20118 -0.12375,-0.014 -0.24469,-0.0193 -0.36523,-0.0176 L 201.36915,717.834 H 200.875 l 4.06446,37.70313 c -0.59293,0.12027 -1.12186,0.43873 -1.50586,0.89258 l -32.50391,-22.63672 c 0.19253,-0.31481 0.32363,-0.67274 0.3711,-1.06055 0.0751,-0.60751 -0.0625,-1.19061 -0.35157,-1.67969 L 189.21875,717.834 h -0.83789 l -17.72265,12.82227 c -0.41525,-0.47646 -0.99701,-0.80893 -1.67383,-0.89063 -1.45826,-0.18088 -2.78699,0.85754 -2.9668,2.31641 -0.0195,0.15438 -0.0219,0.30362 -0.0156,0.45508 l -60.94141,9.88086 c -0.28145,-1.00187 -1.13935,-1.78581 -2.23633,-1.92188 -0.82769,-0.10189 -1.60957,0.18696 -2.16797,0.72266 L 72.640627,717.834 h -0.767578 l 28.458981,23.75391 c -0.25112,0.35013 -0.419096,0.76575 -0.474606,1.22461 -0.0593,0.46525 0.0096,0.91593 0.173826,1.32031 L 85.095705,752.17189 68.554689,717.834 h -0.544922 l 16.652344,34.56836 -44.376954,23.87891 c -0.241909,-0.36303 -0.568924,-0.66717 -0.960937,-0.87695 L 63.546876,717.834 h -0.53125 l -24.144531,57.38086 c -0.152269,-0.049 -0.312366,-0.0836 -0.476563,-0.10547 -0.409505,-0.0486 -0.810097,-1.3e-4 -1.175781,0.12305 L 22.515626,742.18947 57.976564,717.834 H 57.109376 L 22.310547,741.73244 12.265625,719.15431 c 0.541602,-0.27032 0.914413,-0.7591 1.169922,-1.32031 z m 422.675791,0.0723 22.47852,33.35937 c -0.32429,0.2635 -0.585,0.6014 -0.75586,0.99414 l -35.44141,-11.68945 11.46094,-22.52539 c 0.20625,0.0819 0.42561,0.14133 0.65625,0.16992 0.57548,0.0708 1.12903,-0.0496 1.60156,-0.30859 z m 34.98633,1.63281 c 0.0611,0.90364 0.579,1.7041 1.34766,2.13672 l -9.88282,25.15234 z m 4.61328,1.61719 28.11914,21.43164 c -0.20073,0.31899 -0.33807,0.68479 -0.38672,1.08398 -0.0257,0.208 -0.0247,0.4127 -0.002,0.61328 l -23.20508,4.72461 -5.76953,-27.08984 c 0.48058,-0.13429 0.9109,-0.40131 1.24414,-0.76367 z m -2.81641,0.7207 c 0.17005,0.0575 0.34795,0.0986 0.53125,0.12109 0.18867,0.0231 0.37483,0.026 0.55664,0.01 l 5.77149,27.09961 -16.93359,3.44727 c -0.21064,-0.69418 -0.70004,-1.27788 -1.34961,-1.60547 z m -244.11328,2.95313 33.90625,21.31836 c -0.13539,0.26752 -0.23107,0.5625 -0.26953,0.87695 -0.008,0.0654 -0.0105,0.13199 -0.0137,0.19726 l -49.65429,10.15235 c -0.17723,-0.58506 -0.55356,-1.09132 -1.05664,-1.4336 z m -57.97266,8.1914 c 0.0947,0.40339 0.28171,0.77308 0.54102,1.08399 l -34.24415,38.41406 -27.79687,-27.7207 c 0.29914,-0.37161 0.50552,-0.82793 0.56836,-1.33594 0.0228,-0.19162 0.0244,-0.37727 0.008,-0.5625 z m 4.56445,1.16602 32.51563,22.64648 c -0.16756,0.29482 -0.28185,0.62755 -0.32617,0.98633 -0.053,0.4295 3.2e-4,0.84719 0.13867,1.22656 l -15.29883,7.16407 -17.62305,-31.53126 c 0.22078,-0.13462 0.42112,-0.30055 0.59375,-0.49218 z m -3.67383,0.26758 c 0.089,0.0761 0.18565,0.14274 0.28516,0.20507 l -20.75781,48.95118 c -0.15513,-0.0479 -0.31555,-0.0849 -0.48242,-0.10547 -0.7584,-0.0951 -1.48139,0.14355 -2.02735,0.59961 L 132.7168,772.86721 Z m 226.52931,0.0273 c 0.29993,0.97048 1.14185,1.7251 2.21484,1.85742 0.13391,0.0164 0.26577,0.0191 0.39648,0.0156 l 5.65821,31.54101 c -0.24742,0.0353 -0.48597,0.10494 -0.70899,0.20508 l -17.1582,-30.48047 z m 4.98047,0.2793 18.48632,6.09765 -13.83984,27.19922 c -0.20638,-0.0822 -0.42523,-0.14338 -0.65625,-0.17187 -0.0696,-0.008 -0.13831,-0.0106 -0.20703,-0.0137 l -5.66211,-31.57617 c 0.83286,-0.17945 1.53696,-0.74968 1.87891,-1.53515 z m -230.78712,0.11914 c 0.20294,0.082 0.41892,0.13969 0.64649,0.16797 0.44449,0.0536 0.87637,-0.006 1.26757,-0.1543 l 17.61914,31.52734 -39.24414,18.37891 c -0.24479,-0.41762 -0.60148,-0.76401 -1.03515,-0.99609 z m 215.73243,2.89453 17.20703,30.5664 c -0.17752,0.12319 -0.34084,0.2655 -0.48438,0.42774 L 364.4629,745.71877 c 0.14389,-0.27521 0.24282,-0.57805 0.2832,-0.9043 0.0387,-0.31488 0.0179,-0.62341 -0.0488,-0.91602 z m 34.01172,3.23828 35.51172,11.71289 c -0.0199,0.0885 -0.034,0.17907 -0.0449,0.27148 -0.0371,0.3112 -0.0194,0.61432 0.0469,0.9043 l -48.36133,15.58008 c -0.21152,-0.49349 -0.5674,-0.91442 -1.02344,-1.20313 z m -395.326184,1.45898 14.666016,32.95899 c -0.385269,0.21595 -0.709549,0.52346 -0.947266,0.90039 L 1.6542969,758.96291 c 0.03255,-0.12203 0.059882,-0.24302 0.076172,-0.3711 0.08239,-0.66782 -0.093055,-1.30841 -0.4433594,-1.82226 z m 476.697274,2.29297 c 0.15489,0.51341 0.46289,0.96646 0.87696,1.30078 l -17.64063,26.56836 c -0.28292,-0.15331 -0.59768,-0.25915 -0.93555,-0.30078 -0.21725,-0.0271 -0.43013,-0.0239 -0.63867,0 l -4.86328,-22.84375 z m -139.30859,0.22461 c 0.10667,0.55565 0.38775,1.05596 0.79101,1.43555 l -29.14453,37.39844 -33.54492,-31.28907 c 0.3471,-0.38948 0.58348,-0.88414 0.65234,-1.4414 0.005,-0.0393 0.007,-0.078 0.01,-0.11719 l 36.24609,-3.54297 z m 4.69921,1.14844 35.59376,23.15234 c -0.1462,0.27704 -0.24836,0.58268 -0.28907,0.91211 -0.0699,0.56644 0.0463,1.11234 0.29688,1.58008 l -12.17188,9.11133 -23.80664,-34.36914 c 0.13816,-0.11573 0.26442,-0.24514 0.37695,-0.38672 z m -106.5039,1.58008 c 0.0343,0.23937 0.0999,0.4728 0.19531,0.68945 L 238.14649,773.25197 207.9668,759.0508 c 0.0668,-0.18456 0.11617,-0.37818 0.14063,-0.58008 0.026,-0.20944 0.0231,-0.41555 0.002,-0.61719 z m 5.2539,0.0859 30.00977,3.15625 c 0.0391,0.54582 0.24627,1.05326 0.57422,1.46484 l -17.76758,15.22851 -14.22461,-17.93359 c 0.72294,-0.36794 1.26151,-1.0645 1.4082,-1.91601 z m -4.79883,1.06835 c 0.19652,0.27978 0.44494,0.52056 0.73438,0.71094 l -0.73438,28.08008 -0.0703,2.71875 c -0.87156,0.0559 -1.6479,0.53542 -2.09375,1.25781 l -17.375,-8.17578 z m 216.97462,0.7129 4.86719,22.85156 c -0.39979,0.12429 -0.76304,0.33914 -1.0586,0.62695 L 457.709,754.8633 c 0.24713,-0.34802 0.41484,-0.76143 0.4707,-1.21484 0.0264,-0.20802 0.0225,-0.4139 0.002,-0.61329 z m -215.75391,0.24414 c 0.19993,0.0776 0.41078,0.13407 0.63281,0.16211 0.36632,0.0448 0.725,0.0119 1.05859,-0.084 l 14.33008,18.06445 -15.32031,13.12891 c -0.39835,-0.37509 -0.91192,-0.63367 -1.49609,-0.70703 h -0.006 l 0.0723,-2.70898 z m 198.33399,5.66992 20.90625,17.9375 c -0.24708,0.34783 -0.41289,0.75947 -0.46875,1.21289 -0.12541,1.02059 0.3448,1.97544 1.13672,2.51953 l -1.29883,2.33789 z M 1.4804688,759.4258 35.597657,776.76955 c -0.0817,0.20719 -0.140388,0.42443 -0.169922,0.6543 -0.07375,0.60545 0.06133,1.1843 0.347656,1.67187 l -6.292968,4.52344 -28.0800792,-24.04102 c 0.02979,-0.0481 0.054225,-0.10098 0.078125,-0.15234 z" />
      <path
         id="path5"
         style="display:inline;opacity:0.122;fill:#ffffff;fill-opacity:1;fill-rule:nonzero;stroke:none;stroke-width:0.0245668"
         inkscape:label="Network Top Orig"
         d="m 979.56643,717.834 -21.14649,12.66211 c -0.4947,-0.67439 -1.29705,-1.10723 -2.19726,-1.08984 -1.46962,0.0286 -2.63816,1.24318 -2.60938,2.71289 0.0284,1.46932 1.243,2.63786 2.71289,2.60937 0.33723,-0.007 0.65646,-0.0787 0.95118,-0.19922 l 15.80468,30.38672 c -0.74944,0.48342 -1.24097,1.32999 -1.22265,2.28711 l -0.0215,-0.24414 -86.7207,7.99805 c -0.23336,-1.25729 -1.34369,-2.19778 -2.66406,-2.17188 -0.68007,0.0129 -1.29333,0.28228 -1.75586,0.71094 l -27.1211,-24.29883 c 0.33891,-0.45636 0.53739,-1.02429 0.52539,-1.63672 -0.0285,-1.46985 -1.24304,-2.63803 -2.71289,-2.60937 -1.46932,0.0284 -2.63792,1.24327 -2.60937,2.71289 0.011,0.57274 0.20447,1.09915 0.52148,1.52734 l -41.05078,36.59766 c -0.488,-0.45516 -1.14548,-0.72879 -1.86524,-0.71484 -1.46961,0.0285 -2.63781,1.24308 -2.60937,2.71289 0.0119,0.61132 0.23037,1.16856 0.58594,1.61133 l -4.45117,4.30273 h 0.70312 l 4.08789,-3.95117 c 0.47864,0.41183 1.1042,0.65964 1.78516,0.64648 0.124,-0.003 0.24397,-0.0163 0.36328,-0.0351 l 0.85156,3.33984 h 0.50586 l -0.88086,-3.46094 c 0.60962,-0.21689 1.11333,-0.64881 1.42578,-1.20312 l 10.46289,4.66406 h 1.20899 l -11.47071,-5.11328 c 0.0963,-0.28391 0.14861,-0.58719 0.14258,-0.9043 -0.0114,-0.57292 -0.20484,-1.09897 -0.52148,-1.52734 l 41.05273,-36.59766 c 0.19241,0.1794 0.40986,0.32902 0.64844,0.44531 l -16.45508,43.69727 h 0.52344 l 16.39063,-43.52148 c 0.24073,0.0658 0.4938,0.0989 0.75585,0.0937 0.15161,-0.003 0.29924,-0.0216 0.44336,-0.0488 l 12.49414,43.47656 h 0.50977 l -12.53125,-43.61133 c 0.18461,-0.0721 0.35986,-0.16378 0.52148,-0.27344 l 27.24415,33.24219 -2.90235,10.64258 h 0.51172 l 2.77344,-10.17578 8.33984,10.17578 h 0.63477 l -8.81641,-10.75781 1.33008,-4.87696 c 0.16583,0.0289 0.33703,0.0426 0.51172,0.0391 0.40205,-0.008 0.78035,-0.10649 1.11914,-0.27344 l 9.69531,15.86914 h 0.57617 l -9.85156,-16.125 c 0.65,-0.48588 1.06815,-1.25907 1.06836,-2.12891 l 86.71485,-8 c 0.0462,0.41733 0.19072,0.80299 0.40625,1.13868 l -35.53711,25.11523 h 0.85156 L 972.584,768.97469 c 0.42638,0.45204 1.00615,0.75483 1.65625,0.82226 l -2.3125,23.9043 h 0.49218 l 2.31446,-23.90039 c 0.5046,-0.0407 0.96858,-0.21859 1.35351,-0.5 l 15.37891,20.0293 -8.86328,4.37109 h 1.11328 l 8.05664,-3.97266 3.05078,3.97266 h 0.61914 l -3.2207,-4.19531 9.05473,-4.46485 c 0.4343,0.91825 1.3761,1.54636 2.457,1.52539 v -0.002 c 0.1348,-0.003 0.2656,-0.0172 0.3945,-0.0391 l 2.375,7.17578 h 0.5176 l -2.416,-7.30273 c 0.7991,-0.29555 1.4153,-0.96113 1.6426,-1.78711 l 19.164,3.41992 -1.9336,5.66992 h 0.5176 l 1.9043,-5.58398 31.3047,5.58398 h 2.793 l -33.9375,-6.05469 8.1582,-23.92187 c 0.2157,0.0519 0.4414,0.0806 0.6738,0.0762 0.5797,-0.0114 1.1099,-0.20994 1.541,-0.5332 l 26.9746,29.84179 c -0.1539,0.16637 -0.2229,0.39086 -0.33,0.5918 h 4.6347 c -0.3156,-0.61095 -0.8462,-1.09158 -1.5019,-1.3125 l 7.1933,-30.39648 c 0.1764,0.0329 0.3564,0.0467 0.541,0.043 0.19,-0.004 0.3751,-0.0266 0.5528,-0.0684 l 9.5508,26.00977 -16.0391,5.72461 h 1.459 l 14.7461,-5.26562 1.9336,5.26562 h 0.5234 l -1.9922,-5.42969 22.2988,-7.96093 c 0.226,0.48631 0.5955,0.89175 1.0528,1.16406 l -5.8184,12.22656 h 0.5508 l 5.7168,-12.01562 c 0.3018,0.11167 0.6282,0.1729 0.9687,0.16601 1.4696,-0.0285 2.6368,-1.24369 2.6094,-2.71289 -0.03,-1.47027 -1.2432,-2.63814 -2.7129,-2.60937 -0.8918,0.0173 -1.6706,0.47364 -2.1406,1.15625 l -30.8711,-17.23438 c 0.1512,-0.34481 0.237,-0.72535 0.2285,-1.12695 -0.025,-1.31863 -1.0073,-2.39311 -2.2715,-2.58008 l 3.543,-36.01367 c 1.4526,-0.0463 2.6045,-1.25118 2.5781,-2.70899 0,-0.0666 -0.035,-0.12218 -0.041,-0.1875 h -5.2344 c -0.01,0.0995 -0.055,0.18657 -0.053,0.28906 0.012,0.66098 0.2668,1.26158 0.6738,1.71875 l -39.2246,39.25 c -0.1441,-0.11974 -0.2994,-0.22519 -0.4668,-0.3125 l 16.75,-40.94531 h -0.5293 l -16.6738,40.75977 c -0.2618,-0.0796 -0.5402,-0.12106 -0.8281,-0.11524 -0.032,5e-4 -0.064,0.006 -0.096,0.008 l -6.0664,-40.65235 h -0.4942 l 6.0762,40.72071 c -0.7819,0.19112 -1.4238,0.72783 -1.7637,1.43554 l -21.3847,-7.91406 7.6621,-34.24219 h -0.502 l -7.625,34.07031 -51.74999,-19.14843 c 0.063,-0.236 0.097,-0.48372 0.0918,-0.74024 -0.008,-0.3936 -0.10149,-0.76398 -0.26172,-1.09765 L 980.52151,717.834 Z m 96.54887,2.3418 c 0.3076,0.23763 0.6665,0.40674 1.0566,0.49219 l -11.6289,71.58593 c -0.077,-0.005 -0.1531,-0.009 -0.2324,-0.008 -0.5803,0.0111 -1.1117,0.21006 -1.543,0.53321 l -26.9746,-29.83985 c 0.4473,-0.48673 0.7169,-1.13866 0.7031,-1.85156 -0.012,-0.62796 -0.2424,-1.20017 -0.6152,-1.64844 z m 0.7148,5.66211 -3.0352,30.8789 c -0.9401,0.0346 -1.7479,0.55524 -2.1933,1.3125 z m -118.1582,7.3789 51.8125,19.17188 -6.4629,28.87891 c -0.1279,-0.016 -0.2563,-0.0279 -0.3887,-0.0254 -0.5852,0.0114 -1.1214,0.21428 -1.5547,0.54296 l -43.83784,-47.93164 c 0.17281,-0.19012 0.31961,-0.4028 0.43164,-0.63672 z m -0.79297,0.96875 43.83597,47.92969 c -0.058,0.0633 -0.111,0.13044 -0.1621,0.19922 l -24.5684,-14.16016 c 0.1327,-0.3252 0.20474,-0.68125 0.19726,-1.05468 -0.0283,-1.46953 -1.24292,-2.63807 -2.71289,-2.60938 -0.33717,0.006 -0.65809,0.0786 -0.95312,0.19922 l -15.80274,-30.38672 c 0.0564,-0.0371 0.11242,-0.0763 0.16602,-0.11719 z m -104.22461,15.74024 26.71289,23.93555 c -0.33897,0.45658 -0.53733,1.02406 -0.52539,1.63672 0.0216,1.12231 0.73752,2.06587 1.72851,2.4375 l -1.24023,4.54296 z m 157.29488,2.63476 21.3204,7.88868 v 0 c -0.063,0.23586 -0.099,0.48566 -0.094,0.74218 0.01,0.48014 0.1486,0.92565 0.3789,1.31055 l -26.8809,19.64063 c -0.3128,-0.3533 -0.7175,-0.62141 -1.1758,-0.76953 z m 60.3438,7.3711 c 0.1885,0.88588 0.8166,1.60436 1.6387,1.92383 l -6.2246,26.29883 z m 4.7949,0.94726 30.8711,17.23438 c -0.1536,0.34419 -0.2368,0.72686 -0.2285,1.12891 0,0.20955 0.033,0.41015 0.084,0.60546 l -22.3028,7.9629 -9.5468,-26.00001 c 0.4567,-0.20094 0.8445,-0.52575 1.123,-0.93164 z m -43.2422,2.02149 c 0.2495,0.28208 0.559,0.50979 0.9063,0.66601 l -8.1817,23.99415 -19.2363,-3.43165 c 0.01,-0.0907 0.011,-0.18279 0.01,-0.27539 -0.01,-0.48062 -0.1465,-0.92751 -0.377,-1.3125 z m -56.08982,5.6914 24.53712,14.14258 c -0.181,0.36837 -0.2819,0.7839 -0.2734,1.22266 0,0.21404 0.036,0.42065 0.088,0.61914 l -9.19331,4.5332 -15.45899,-20.13476 c 0.11135,-0.11836 0.2125,-0.24577 0.30078,-0.38282 z" />
      <path
         id="path6"
         style="display:inline;opacity:0.122;fill:#ffffff;fill-opacity:1;fill-rule:nonzero;stroke:none;stroke-width:0.0245668"
         inkscape:label="Network Top Orig"
         d="m 523.66993,717.834 -20.78711,24.00391 c -0.0686,-0.0529 -0.14237,-0.0997 -0.2207,-0.14453 -1.27307,-0.73387 -2.89929,-0.29293 -3.63281,0.98047 -0.73356,1.27313 -0.29286,2.89926 0.98047,3.63281 1.27535,0.73175 2.90082,0.29673 3.63281,-0.97852 0.2748,-0.47456 0.38422,-1.00056 0.34961,-1.50781 l 37.57227,-6.04297 c 0.0559,0.0453 0.11668,0.0813 0.17968,0.11914 0.31871,0.17994 0.65764,0.29335 1,0.33594 l -1.70117,55.46875 h 0.49219 l 1.70117,-55.45703 c 0.44996,-0.0275 0.88888,-0.17114 1.27344,-0.41797 l 41.62891,53.26367 -8.38282,2.61133 h 1.64844 l 7.05859,-2.19922 1.72071,2.19922 h 3.51758 c -0.11783,-0.0987 -0.18827,-0.23516 -0.32618,-0.31445 -0.8914,-0.51257 -1.95647,-0.44981 -2.76562,0.0684 l -1.64844,-2.10743 30.00391,-9.34765 -23.47071,11.70117 h 1.09766 l 22.95703,-11.44531 c 0.22462,0.36292 0.5395,0.67656 0.93555,0.90429 0.17969,0.10803 0.37253,0.18203 0.56445,0.24024 l -2.07031,10.30078 h 0.5 l 2.05078,-10.20117 c 0.72146,0.0758 1.44761,-0.1479 2.00195,-0.61914 l 11.07813,10.82031 h 0.70703 l -8.41016,-8.21484 9.70508,8.21484 h 0.76172 L 621.9922,782.37697 c 0.044,-0.0634 0.085,-0.12878 0.125,-0.19726 0.28948,-0.50306 0.39458,-1.05956 0.33985,-1.59571 l 39.47265,-7.74218 c 0.18668,0.63413 0.60651,1.20114 1.22461,1.55664 0.54436,0.31327 1.15225,0.40885 1.72852,0.32031 l 4.73633,18.98242 h 0.5039 l -4.76367,-19.10156 c 0.17686,-0.0618 0.34869,-0.1398 0.50977,-0.23828 l 14.43554,19.33984 h 0.61133 l -14.6543,-19.63281 c 0.20312,-0.18336 0.38204,-0.40065 0.5254,-0.65039 0.0161,-0.0277 0.0282,-0.0574 0.043,-0.0859 l 49.10938,20.36914 h 1.27148 l -50.1914,-20.82031 c 0.23907,-0.76859 0.11108,-1.59405 -0.32032,-2.25 l 17.80079,-14.25 39.15234,37.32031 h 0.71094 l -39.47657,-37.63086 43.07422,-34.48438 c 0.1698,0.17559 0.36538,0.33322 0.5879,0.46094 0.34145,0.19595 0.70764,0.30525 1.07617,0.33985 l -0.12696,71.31445 h 0.49219 l 0.125,-71.3125 c 0.83287,-0.0765 1.61748,-0.5418 2.06641,-1.32227 0.62746,-1.0912 0.35641,-2.40705 -0.52344,-3.23242 h -3.58008 c -0.18584,0.17492 -0.37594,0.34739 -0.50976,0.58008 -0.16776,0.29262 -0.27172,0.60331 -0.32032,0.91797 L 703.01564,717.834 h -7.96094 l 32.16407,1.98828 c 0.003,0.0675 0.006,0.13417 0.0137,0.20117 L 663.5684,732.8965 c -0.0244,-0.0823 -0.0533,-0.16296 -0.0859,-0.24219 l 24.79297,-13.75781 c 0.21035,0.28129 0.47883,0.52494 0.80273,0.71094 1.27403,0.73293 2.90195,0.29413 3.63477,-0.98047 0.14567,-0.25235 0.22231,-0.5219 0.27734,-0.79297 h -7.85547 l -22.4707,2.5625 0.21289,-2.5625 h -0.49024 l -0.21875,2.61914 -34.85156,3.97266 c -0.0444,-0.21143 -0.11144,-0.41791 -0.20508,-0.61328 l 8.77735,-5.97852 h -1.06836 l -8.05078,5.44727 c -0.19842,-0.24239 -0.44085,-0.4555 -0.72852,-0.6211 -0.49473,-0.28459 -1.04195,-0.38892 -1.57031,-0.33984 L 623.3575,717.834 h -0.50782 l 1.13672,4.57617 c -0.64315,0.18321 -1.22012,0.60502 -1.58008,1.23047 -0.0899,0.15727 -0.16144,0.31895 -0.21679,0.48438 L 595.24415,717.834 h -2.17382 l 5.51757,1.29102 23.48829,5.49609 c -0.0193,0.148 -0.025,0.29581 -0.0195,0.44336 l -30.9961,4.01563 -6.30469,-11.2461 h -0.56445 l 6.3457,11.3125 -44.8789,5.81445 c -0.0325,-0.13037 -0.0752,-0.25946 -0.125,-0.38476 l 21.77343,-11.07813 11.13086,-5.66406 h -1.08203 l -6.62695,3.37305 -25.42578,12.9375 c -0.0586,-0.0924 -0.12429,-0.18139 -0.19532,-0.26563 L 560.97072,717.834 h -0.69141 l -15.51758,15.69531 c -0.11147,-0.0915 -0.2302,-0.1778 -0.35937,-0.25195 -0.12931,-0.0777 -0.26445,-0.13452 -0.40235,-0.18359 l 4.11133,-15.25977 h -0.51172 l -4.07422,15.13086 c -1.06921,-0.18379 -2.18552,0.298 -2.75781,1.29297 -0.58696,1.01999 -0.42122,2.26379 0.32031,3.0957 l -37.17383,5.98047 c -0.11268,-0.4354 -0.33502,-0.84136 -0.65625,-1.17578 l 21.0625,-24.32422 z m 59.04688,0 c 0.15744,0.0177 0.30258,0.0103 0.45898,0 z m 105.12891,0.18555 c 0.0441,0.15642 0.10186,0.30881 0.17383,0.45508 l -24.76368,13.74023 c -0.22244,-0.34493 -0.52779,-0.64449 -0.9082,-0.86328 -0.18344,-0.11028 -0.37731,-0.18448 -0.57422,-0.24219 l 0.84961,-10.21484 z m 39.48438,2.48437 c 0.0739,0.24607 0.18342,0.48073 0.32617,0.69727 l -43.12891,34.52734 -21.41992,-20.41797 c 0.0796,-0.10137 0.15463,-0.20555 0.2207,-0.32031 0.29176,-0.50741 0.39438,-1.07062 0.33594,-1.61133 z m -65.20508,0.44922 -0.8379,10.0625 c -1.01074,-0.10092 -2.03525,0.38118 -2.57421,1.31836 -0.0669,0.11707 -0.12032,0.23763 -0.16797,0.35938 l -31.25977,-7.04688 c 0.0638,-0.24171 0.0915,-0.488 0.0859,-0.73242 z m -40.00391,4.59961 c 0.15795,0.70035 0.59615,1.33602 1.26758,1.72266 0.27358,0.15281 0.55792,0.25574 0.84961,0.30859 l -4.44141,50.61133 c -0.36925,0.003 -0.7318,0.0802 -1.06836,0.23047 l -27.4082,-48.88477 z m 4.99414,0.5586 31.29297,7.05664 c -0.15844,0.83715 0.0947,1.70773 0.68555,2.32812 L 646.28908,750.15822 626.60939,726.834 c 0.15604,-0.15822 0.29607,-0.33536 0.41211,-0.53711 0.0344,-0.061 0.0643,-0.12333 0.0937,-0.18554 z m -0.88281,1.04101 19.73047,23.38086 -24.59571,28.16602 c -0.0723,-0.0552 -0.15076,-0.10443 -0.23047,-0.15235 l -0.002,0.002 c -0.27367,-0.15287 -0.55887,-0.25459 -0.85156,-0.30664 l 4.44336,-50.61329 c 0.53692,-0.003 1.06254,-0.1689 1.50586,-0.47656 z m -35.4375,2.45899 27.5039,49.05664 c -0.24558,0.16891 -0.4642,0.37701 -0.64648,0.6289 L 545.50197,736.6758 c 0.17763,-0.3954 0.24977,-0.8182 0.22656,-1.22852 z m 71.97461,6.05468 21.37109,20.37305 -17.74805,14.20703 v 0.002 c -0.16968,-0.17551 -0.36546,-0.33305 -0.58789,-0.46093 -0.41665,-0.23883 -0.86982,-0.35257 -1.31836,-0.35352 l -2.98242,-33.15625 c 0.46397,-0.086 0.90255,-0.29487 1.26563,-0.61133 z m -3.30664,0.15235 c 0.0726,0.0553 0.15058,0.10353 0.23046,0.15039 0.41706,0.23907 0.8716,0.35269 1.32032,0.35351 l 2.98242,33.15625 c -0.37021,0.0684 -0.72431,0.21651 -1.03711,0.4336 l -16.34961,-19.375 z m -114.0918,1.34375 72.03515,42.55664 c -0.25574,0.54144 -0.31239,1.13428 -0.19335,1.6875 l -30.57032,9.52344 -41.74414,-53.40626 c 0.10757,-0.10148 0.2048,-0.21259 0.29492,-0.33203 z m 100.91211,13.75 16.29883,19.3164 c -0.15562,0.15813 -0.29614,0.33763 -0.41211,0.53907 -0.28892,0.5027 -0.39281,1.05967 -0.33789,1.5957 l -39.47266,7.74414 c -0.11667,-0.40128 -0.3276,-0.77392 -0.62305,-1.08398 z" />
    </g>
  </g>
</svg>
